<mxfile host="app.diagrams.net" modified="2020-09-14T15:57:49.392Z" agent="5.0 (Macintosh; Intel Mac OS X 10_13_6) AppleWebKit/537.36 (KHTML, like Gecko) Chrome/85.0.4183.83 Safari/537.36" etag="zYAI4Z99iEYud4yQEpwO" version="13.6.10" type="github">
  <diagram id="2f404044-711c-603c-8f00-f6bb4c023d3c" name="Page-1">
    <mxGraphModel dx="1734" dy="1068" grid="1" gridSize="13" guides="1" tooltips="1" connect="1" arrows="1" fold="1" page="1" pageScale="1" pageWidth="827" pageHeight="1169" background="#ffffff" math="0" shadow="0">
      <root>
        <mxCell id="0" />
        <mxCell id="1" parent="0" />
        <mxCell id="KFGAFjV_gYXadnEVJTAJ-440" value="diagrams.net" style="shape=image;verticalLabelPosition=bottom;labelBackgroundColor=#ffffff;verticalAlign=top;aspect=fixed;imageAspect=0;image=data:image/png,iVBORw0KGgoAAAANSUhEUgAAADEAAAAwCAYAAAC4wJK5AAACp0lEQVRoBe2Z30sUURTH/WvmxV4M/wEfor8g6MWHHnrs2UxQH8UWgnzZIjIyItBiBZGgsgiFfXCVCB8SCmoh6kFW3XTnx+45ca6d2Ds7c2aiO3d2ZR4OB+fOnfv93O8549UZCoIABz2GBh2A9BcQ/eJi4cRAOdF+M4Od8gh27jp2ojyCtGbaTUosJwVgS3xonbQgiRBWHQhB0Npp3EiGCD/Y8s8FBO+AtWaOcZh1SLkopyiXYPkqwpcNhHq1N/bX0X9y5Z9e05IDPGbcCdhfRwCIDW9nFb359L9vWKiUzUOQAwJE8LmKjZsOerfTgUjieSwfiAknNQgLlXJ+EClBJPE8li/EhIOHk3JpsVApm4eoPRB7wt16jA1yoSskEEk8jxmHoNcu7K0okOa9ceSgZne3X2jie0BKvc3OQqVsHAIq1xSAu/lQE9x6eecMbPG6dj0JRBLPY+Yhvtewc/AVG7cu6GInh7H94xMG3z7o17vKioBUaXU5wkKlbBQCNqbVbp9WZiOF/lq6cTa+Nhc5zq4QiP8HRBLPY+YgyhcRvBP0916LAr1aBcE7xcOZUfE+AqH+YqFS/i8IeD6OHO3dpwiBqxqZdzQqU6OD30K3+uxv09O1qHuzhXg0htD8qUoj6ogRV/ft+sfYOZ2DOh7NjWkwmUJAdSFWDEOFd1c5IJypaF7r1UIBEdtAZGk4CieEkrJbTm9nE3vieP6SVt/HpcuJc05WprQ5mTY2PdzfXkb6Aycq3Hf3NTH8+nTfL0beT89wt5Z65mQOQQs0p/XTKIs1la1AZA1iDSJLEKsQWYFYhzANcjRl6QBIwsPhlRw0Efxc6fTKY8mnWJsfV8KbYupf++fiIwtZpkBsOmL6cxfXXT/nxJ7oZ/GsrYDgncg7F07k7QCv/xulv3NVaR/3pAAAAABJRU5ErkJggg==;" vertex="1" parent="1">
          <mxGeometry x="778" y="1121" width="49" height="48" as="geometry" />
        </mxCell>
        <mxCell id="KFGAFjV_gYXadnEVJTAJ-441" value="desing by primate" style="shape=image;verticalLabelPosition=bottom;labelBackgroundColor=#ffffff;verticalAlign=top;aspect=fixed;imageAspect=0;image=data:image/png,iVBORw0KGgoAAAANSUhEUgAAAScAAABhCAYAAACULGeEAAAcZ0lEQVR4Ae2dBbQdtdPAcXcvrsW9uBQpDsXdOUix4rRIi0OhuLVAixV3SoEixV0KBQptKe7uLvmf3/3I+3LzNpvJyn17XzPn7MludjeZTLKzyWRkPBUhUiBSIFKgghQYr4I4RZQiBSIFIgVUZE5xEEQKRApUkgKROVWyWyJSkQKRApE5xTEQKRApUEkKROZUyW6JSEUKRApE5hTHQKRApEAlKRCZU8ndcsstt5RcQyw+UqB9UiAyp5L7daONNlLPPvtsybXE4iMF2h8FInMquU/XW289tcIKK6h//vmn5Jpi8ZEC7YsCkTmV3J/rrLOOGm+88dSAAQNKrikWHynQvigQmVPJ/dm5c+cac5p11lnVDz/8UHJtsfhIgfZDgcicSu7LNdZYo8acmD0dffTRJdcWiw+lwOeff64+/PDDluODDz5Q+nj//feVPt577z2lj3fffVfp45133lH6GDt2rOJ4++23W44xY8YofYwePVrpY9SoUUofb731ltLHm2++qfQxcuRIpY833nhD6eP1119vOdd5+jlS/T6pLlenuk5SjQupxpHUxJ9z3S5S3VZSTQOdavqQarqRQs8vvvgitGvyma/07NlTHXrooerggw9WBxxwgNpvv/3U3nvvrfbcc0+1xx57qL322kvts88+qlu3burAAw+sPcfzRxxxhDrqqKMU7x933HGqd+/e6sQTT1SnnHKKOv3001WfPn1U37591aWXXqoefPDBGhH+/vvv4MZV4YXVVluthTlNOumktc6tAl4Rh/+jAOOQH0c8yqXBBRdcEDzkcs2cJp544oZ16hRTTKFWX331GuOCuzcLrLLKKnU02nrrrZsF9XaH519//aWuvvrqunb9+OOPqkOHDnV9FBlVsYyqY8eO6s8//6yju+QiF3Maf/zx26xTV155ZXXVVVepX3/9VdLONntmpZVWakWjRx99tM3wGZcrvummmxQ/1OHDh9eRYeDAga36KDKo4hjUPffcU0dv6UVm5sTWeBU6kL/eoEGD1L///ittc+bn0Fdaf/31a2tyaSErrrhiKzotvfTSqlmXqdJ2V/E5VDoYs8gBTWAsL7/88q36qQrju9lx2GCDDUxSB51nZk5//PFHpTpz2223LXUWBfPT8qPpp59eSWc/nTp1SqRTv379gjpqXHr4448/Llwv7KGHHqrrh9tvv72OpE8++aRqy5VAszOhJPwnmmiimkC/jtABF5mZ02+//VbX2UnINTqPbXtkCGXADTfcUNdehNv33nuvtyrXH3mmmWZS3377rff9ce0BfgJrr722evnllwtt+rrrrlvXfwsssIDiB2vCjjvuWPdMo8dve6uve/fuJnmDzzMzp59//rmSHcnA/v3334MJkfbCL7/8ouaaa65W7Z188snVc889l/Zq6nLhoIMOSn037WYzyNvS8Hfdu/XWW2t0Zqe2KHjhhRda9R2M4Oyzz66rApUC9NGmnXba2jHNNNOoqaeeWk011VS1Y8opp1RszNDvk002We3gJzXJJJPUZFnMFDgmnHBCNcEEE7TZTAwcpptuOjXjjDPW2jPHHHOoeeaZR80///wK4fRiiy2mllpqKbXsssvWrBfYtGGpy7fTpUsXteGGG6pNNtlEbbrppmqzzTarHV27dlUcm2++ee3YYostFMeWW25ZO7baaivFZg/HNttso7bffvvcP9/MzIkZSlU5/b777ls36PJeoOrgauucc86Zqly53HLLOd9lEI0YMSITegsuuGBN9SLTyxV9id20RRZZpEYv1FGKAj6gpP7jA/7qq6+KqsZZDno/SfWbedddd13tY2Y27TvA23zXPkfA3x4gM3P6/vvvUwlkE6zR10OGDCmkfxhY/CnT8D/88MOddaUxJ8rkjxUqzP/mm29qf2X+6J988omz7ma7gRxO03nxxRcvBH2UFJnF6HLtFP27sgFFRLte+/ruu+8Wo4HM037fvL722mvFZVX5wczM6bvvvkslkEmstjhfeOGFFX/ivMAU1Yc/U3u0YJOAqbPv/VB1iAceeKClTJRd2wMwE59lllla2gVDKcLcZ+edd24pM6kfmL2iSV0mSJjT4MGDxSjMMMMMqW0a55kTU8+kzq5S3jXXXCPucNeDJ598sqidaMknQRnM6dRTT23BiY/4pZdeSqq6qfJ69erV0iY9hh555JFcbcDEAuajy3OlyFfKhMicslE388yJpYWrs6uSjz5REYBg0NcmhKdsEtjgW9ZRLgL3EEBIaeKTZWkYUl/Zz3766acKYbPZJs7PPPPMXFVjTmWX6brGTKoskDCnEEXFOHPy9FQzMCcG4osvvuhpif82uzhJH4890NlpskHCnJKYml2OeW0ufzQOzexx08VEWFJnBRgeO2qaPr50ySWXLE0xVsKcQmSkkTl5RkWzMKdjjjnG0xLZ7SOPPNI70DF6tsGl52R+LD/99JP9mvMaC3DzXX0+33zzKXTPmg2wlnctveaee+7MzZH0l6adTi+77LLM9aW9WDRzQkVA45yUjvMyp2ZhTpiPFAHs2vk0iNEfsUHCnEIUR5khJQ1I8vDo0GyAroyrPeR/9tlnwU1ibKKflFZu0j10nEL6QoqYhDlJFHp1fZE5aUo40mYQiDMA2UkrYtcOMviE2yjf2VrHEuYUsiuVNiPgg2Q50yzwxBNPeBnIXXfdFdwc6SZGEoM69thjg+vzvRCZk49CyfczC8SrrkpgDjyWQkWASzZi1oVDLhMkzAmdMSmsueaaqR80PrSaAdDtwrOESbuk81BmwebCzDPP7C03qS7y0GlzqYVkpauEOd13333i4jF9cuFP/ji/rKu6EqbZeUUIxRk5J510UuqgoM7nn3++bpBJmBOMXgJ4MvAJ5lEtKNouTYJb6DNpy1Oz77CJC4GLLrrI20dm+Unn2NgVCRLmdP/994urjMzJQ6oqm6/YA+7hhx/2tEZ2W8KcWKqYUCRzwtTFblvSNbOrKgOOxzC/ScLdzsPOTRq5hnKxIbPLCL1GtvjMM88URsLInLKRMvOyrpmY04033piNOtZbPXr08A78LMwJ+Z0ErrjiCm/9+kOssmrBhRdeKG4H7WFHTwJXXnllULmaVkkpTgJDzYpcOEqY09ChQ12vt8qPM6dWJKnPYPs7qVOrmFfUGvyQQw7xttn+40pmTuwuSQB5kpS+8847byVVCxD+h8qEJP3H7AqTJSl9JM9hjFsESJgTJklS8NFPQi9pXW35XOaZUzMxpzvvvLMQGuPQzjeobTstCXP6+uuvRfgtscQS3vpN/E477TRRuY18iIAWJo6Sc5dpkIm3drUiKU/6DHpWoXaPJk76PDInTYmwNDNzqqo/p6SBV5TtmXbnkVSHzrMVKiXMSeK2A3qjqqDrkaR4LaiSagG7YD4PD0ntYonlA5fH0aTyQvKKYPAS5hRiPhNnTp7R0CzMCYf2Rfz9+Mh9SphJGs0S5vTll196qK0UbmRDPir9bJW8FoCLxiskRVctzYEgH3ZIeSHPojuWRRHU7NCimVOS+ZLZpnF+WYc+iUmQqp4TTqoIwDOjr414A7RBwpwkAQfPOeccb/1J+KFagCfItgaCPYbO/Mz2EFzCBTrku/l8kedJZkkuXJLyJcwJH+dSiMzJQ6lmYU7nnnuupyX+29is4XPaN+D79+/fqjAJcyLqrA+22247b/0u/FZdddXCdp58eLru4+LVhZ8k//zzz08sGjfJkvfzPANTfeWVVxLrl2RKmFOIuouPOeFKGG+Z0gPndZjEsAtI2bPNNpuaffbZFV5ecU+Nega2m7jxbWTUoMwyJ5ZKeTq8Ee+yHJDMStIGGNvJu+22m7etyFKSBNtFMae8+jsEaGgreOyxx7z0840Hl2IkPq197xZxnw8zKzSaORXR3qQy7ICkWekhfa9dMydCoecBZkw77bSTaPC73L1KmJNPpsHMKmmwhOQVtfMUSk+Yu44XF4Kv/SxGubbeES54fXJAu5w811ns/KCXhDkNGzZMTFpokacdWd4lIIJUGVbcEM+DmZlTFUNDmUTPYyPFrBAzCHSFzDJd50yfXTM0CXPy7ajhiMxVd0j+Kaec4hkOxd8myq4ER3YWfc+9/fbbdQj6XPD6ygu9jx5VlrDaEuYU4vWzLZhTiO1fXSfluGi3zAnLdClgJ8huGO5v11tvPa/9mj2oCdPkAglz8gUpOOGEE7wfro1T0nWjAyLgoUEiq0NGgk0iwvskvHWeaX8mdcGr3y0qvfjii11d7cxvduYUat/oJETgjczMia3dojq86HKWWWaZVq5LoAvLAiKlbLzxxrWlBkI+yR87Db9ddtklleRFMCfiiKXhgNten0mDfn/33XdPxbfImwixdb1pqd608Gl433zzzS3odevWTVR2Wr1Z7iE4lmr0a2QlzEkaQZoyEVhnwT3LO/ww8mwGaBpkSdsdc4LZuGyxBg0aVGinEg8tTf+GDpEwJ8JvuwCG6nPLev311yuElZLBx2ArykuDC2fymY1KGOZCCy3U4m/LF3FXz5yQ0YW44JXQJeSZQw89NK3pre41M3MqMn5gK8J4MjIzJ6bsIR3aiGcRjt5+++2JTUZzm+3RIvDArSzLRsm2qoQ5ffTRR4k4k4mcxYcz/qpgYmhS+57lPrpftnDZiUDGGz179hThctttt7XUQAReF/5Eq9VOA48++mjnc673i8wnwu+YMWNa8PadSJgTO5pS8M2cjj/+ePXUU095D+xAUcVADw4riuHDh6tXX31Vvf766wq9NH7yRSgwS9tlP9eumFOfPn3s9rVc40u8iAGKzhCdKIW8zAkVgDS8EY5qkMhtdFnmEkm/X1RKQAiJmYoty2Bpo/GzUx2eHN9XRLqx7zf6GvfCUpAwp8cff1xanOrQoUNq+8d5DXF2LRo9IFz1sVuW1iEIT/MsA5iRde7cuTYrC51xSJgTH7MLfJ4QCFtlAjIlF53M/DK9FkhwQLHxtddeM1Gv+e9OEoozU9DBG8yYfWZ72uJcKieSMCfb1U4dYayLyJwsgtiXVWBOOCLDjavPNm3rrbcWfbDmAOfj3XXXXRWBOdNkQjZd7Ou8zGmVVVZJxb137951VaKWIHXuX0ZABJYFSQzGpC3n++67bx3e+oIw5PazOn5dXhe8drl5rwn7JdH9kTAnlmFSiMzJQylmED6H/3k7P+l9PYth+972AJCEsmupgPyJpV7fvn1rwmSiXyAoxnK+yHW2hDm5fFYj1/PN+JLcwbC8TaKdnVdGQATfziI48FNx6YXZsy5MK3REFOnun93OMq9xcOcDCXOy/YCllRmZUxp1/rv39NNPl66hy0BebbXVFMEF+vXrp9KExzbK/NVcDBQmV5QzMbte81rCnBi8SQCz9H1YhKyygR1EqRvcIgMiYLzqw5f7CL5dgB6RWYaeGcKosfUy71XhnJ+cLyiqhDkhmJaCb2MnTcQhraMKz2UWiGvk0+zOIOIll1yiCFY4cODA2hKJbW+EseyqDR48WOEBkJ0K/hw45sckgZ0QZhP4OQqV8Wi8SKkzbQBjexey1jfLlp7nYU4+Z/3o3Ljog6lFWtv1PZZgRQREYOeS8O+6XFeKT6w0LWu8D+h3Ceag7RUHDBjQkq/vVyXt1atX6nCQMKcQzxGROaWS+/9vIuNw7Z4w42lLQBnTN4DRIXLpRRWBu4Q5Jc1+qBuZVxr+66+/fiqKaLunva/vFREQAdmcLi8t9TlVY0mtIwBrfSJmwBJHf2n1lnkPDfe0Gb2EOYU4RIzMKXXY199EbpPU+RtttFH9gw2+YpmBs7kk3Mw8NMUlbkuyoJ+HOfk+SF9MN2ah+kM325t0jpvbrMAyUuI1AU12CWBkii6R/uDvuOMObx8mtamRefxIXCBhTiHqKXPMMUcqPeKyzugJ5AEdO3ZsRTB2ydoakFNJBilhy9kNKhokQQmSgn4SCMC362UqMLrwxluCpP0waL1d7yrLlZ+mPKnr5icxatQoVxF1+XjMNDWTi/BqoPEoK0WG6VqaSZgTu5xSiMxJSqn/nhsyZEirj2D77bcPLKWcxw866KBWuCUNUnwDSbS+Q7BMW/ZqHNDDsgHnY/q+K3UtB82ykNn4zF90+VlUC7AzY0dNl+FK9RLNxM11jlBc0wSZpKvMquW7NO8lzMnW+XLRhvzInNKo47jHMs4cMFVhTpg9dOnSpQ43E0/zvHv37o7WZc/2zSz0h2jWgGN9Ey/7HLs1KUjjxGVRLTjiiCNS8QRvHPJLoxrTJvMHgfKr3fYqXyctjyXMiSW4FCJzklLKeI6wSKaMJ8mntvF4Q08JXJm09Ewa6Oedd16huLE7tdhiizk/srFjx7aqz+fhcYMNNmj1jisD5pxWv0kDcznlKk/nM3Njx9N8P+mc3dosgKpKUnlVzsMG0DYGlzAnO6RYGr18KhVR5uSgnmluEWJ/5Ciu0GxkHpIlCLKeJOXGPMjgTMz1USUxJ59xJ/HfQkAaoYS2S3eOJM7e2DE1Z0IhOGOa46JZlfPPOuusumZKmJNUHkfBkTnVkVd+wQxFu8poJHOSCrP5SCU7WNoBmrzl/id32GGHxI/N9vAoGczsYIWCbzamP/g11ljDqT+l64SB+QT2lBdi0KrLJkVAjJBZ49RMKYrDpkmVpD9DvBxE5mSOlMBzFC8ZTI1c1uGiQwo+5Ub9IRCJIkkeJK3Hfg6Pl0l2b/bAvOWWW7wfJQM+FJihSZZhtN/ntUASjomIMVkhT7QZ3X9tme6///4tTWdZ7YvWnDR7binAOiEiSlrb4rLOIph5qTujUQJxPPWhTRwCUk+KeGcM9XyYhgdTfntg2czpqKOOavWM+Q6a4VlB6mcJw2eXjSFO30x8ks5xmZKFgdKu0aNHi2ZlSfVWJY/ZuSnkdtl4anyT1ElcfRyZk4sywnyWT5i2NALWWmutWsDGkLoQUkv+/gweljlZdYBsnJJ0wvgYTaA9etAmpT7NcLMs+xwjWp88S9eZFBABbW2JmYrPpMPGy7wmao7GoZlTjKBN2HbbbZ3tCmHkkTmZVM14HuLdL2MVCkVEPYAl7ivMepgRSQ1kmQW67NjMMiXneEDQOJOazIk2JC39zOfxppAHpHZqzEZtdzESMxW2un3GsC7829oFr0nnIs61a2Hay+6mywlfmk8vm1aE+UrDLS7rbIq1wTWzGTSbdUcxKwkF7OpwVqfLSEtxD1sU4H9c12Xu1LDE0/mu1OWKWIobDFBiVkP9plkGmw4+YSzv4Ks9K/iWtJQP89tkk01qgSoIVoF+HQczFQ7ULDiYYXJgY8iBrhsHHjg5mDlzEDCTgxkrB7pVHNgccjBz5kDJEntRDjyiSjYE8E+FmEMDXhaS+tX+Cejnk9LInJKoUrE8W1Ex69Jr6NChoh08BhXmMEUAf0pmJpRpGh5LhOEu/08heEnd3bBjhvtfwKZ30keGH/OsM0xmsr5ZI3XmYX4hNPI9i05YEg3sPO1imPJg8El2iL7YhSYukTmZ1KjgOX8aO6yTVJ0gqTkXXHCBaKAh6CwqwOAZZ5zRijlhzGsPbvMabeuiQBrNeOWVV645h2OL3MTFPoeR4fIkK5x44omp5VMf8pY0lytZ687yHktQCTOlz4hGoyHpBxRieB6Zk6ZkRdMkBUCJZ8y05uA61v7gkq4ZkEXE8mIZuuiiiypTO5hlSlKdOi+PMNxuO1b/evamy3elEg1zXww/u37zmr5jF9JVv87HA0aVQOp1lOWqCbZZDr7LpJA089L0IY0yJyklS3jOtSTJy5z4IyN7MDvadY7cQ7v0yNNENMdN5uSzm8orDLdxJcSVq40h+cxiQ+QmNh4E1vTVh98wcwZil9EW15iqSKIao19mqgvwcyPIg25ziLpKZE5t0dOCOhHmulxo5GVOVI8Vv3QHD79DuDbJC9q8g7+nHqyuVOImJQQfdJl8g92Fi5mfxaOBxpMZpETQ3qNHD/1KpVJMnUxauM5RJTAB19P62RDDaF9/xZmTSeUGnqdFts0jczKbwEzGJ1/Rg4pdoKJkIMOGDWsZrLp8O5W4STHbIjlPkoHY9aZdE7XXNnaV1Kufkag2MPMIERrrshuVSrxeIJMzo6xg4qJ3ikN+cijIpvUH6h5sSmTdmGgUzXz15PYh7qugyPvMjNJclLo0mrPggH6KOe1OGww4RytiIOBTPa2eEDcpoW1myzyt7rR74J0VmDVKvEUUGYghK65p7xElV2KziVNDc6zgAQPahsz6fczJ7CuYOuoRZp1p7ajSvaZiTj7TiyKZE50UEoqInaa8wN8zbcaGbk9ZYMtAzAGedm5H7Q3FTzJrY8ZhmoKE1tGo56VeRwnyoYFZN5siIbP+EOZE3+GuuhmhaZgTioo+o9WimRMdKt3B4wNiyZkX0hjiSSedlLf41PelbdXMipnliBEjUsv03SQwpS7PldpRjX1lttV9qddRVAHMscosPURHz1Q8dtFM53ft2rWtyJG73qZhTuxSaYK7UrPDc1PmvwL4s/ls3TQ+ONrzRRfx4YU2cVLUW+rA7KVMMGUguk1pKQLdPCAxIKZ+U06Tp75GvCv1eEFY9awgZU6Yypg7hFnra6v3moY5ScwaymBOdAx/RMl2MR8S2915ZxMux3AhinpZB5RkS5924pc8RDcnCR9MQtKYH/d4ppkg7edithXVC1zoZAEpc0oy3M5SX1u90zTM6fDDD/cO5LKYE50zcuRIZ3w+c9BxjhZz1oGnBwLTcbNcPAk0Apgp+kJSgRczhDxAMFOzfa5zgoM2G0gjH7ORkgUkzImfachSMQseZb/TNMyJ6B2uAazzy2ROdAQRZqQ7eIRBD9mBsTsaA2Bit+m2FakZbtdlX2Oeo+tNSm1jVvt9ybVPE5568aUV6mlCUncjnpF4HcVwOEu0ZfyUJ/WLmVe2CKARNGwa5nTwwQd7O6Rs5kSHJDmLMweFec7umlawzNKZeEHQ5RHlpJEA7rpuO8VQOg+w7GUDwS7Xvr7iiivyVNOm70q9jmKREArolDErSjtCy6zi803DnCTbtI1gTnTi7rvv7v2w9Id2wAEHZO53HMN16NChVlcRO4EhiLA7akbS0e0pQp1BYnBMu/Modoa0taxn0WjXdEtLiw6mUVZ7Gl1u0zAnSWDMRjEnPhp8+6QNOPOeHY0jpJOvuuqqWj3SiCghZfuetZfSLDNNx3i+95PuM6OQKCvisaHZQep1FA37LL7Imp0+PvybhjkddthhXmbQKOYEUdl2lyrDIVvIqkWNzKVTp05BSnq+TpfeNyPpwGyPPPJI6avO5yS6VHh9CLE1c1ZWgRtXXnmld9xC23POOacC2FYLhaZhTti7DRw4UPXv318R3YXdIiLZmofpcbARZGYHz6xfn4MbDsYuv/xyxeDEENN01xqKW4gL19Cyfc/TDj4ellkh9l9J5WJCQf9pOrlSNh7aC/BzwUGhq606v70Y6xbZb03DnIpsdCxLTgEYPoExq+J9Uo55fLLZKRCZU7P3YAPwZ+bWjIajDSBNrKJECkTmVCJxY9GRApEC2SkQmVN22sU3IwUiBUqkQGROJRI3Fh0pECmQnQKROWWnXXwzUiBSoEQKROZUInFj0ZECkQLZKRCZU3baxTcjBSIFSqRAZE4lEjcWHSkQKZCdApE5ZaddfDNSIFKgRApE5lQicWPRkQKRAtkpEJlTdtrFNyMFIgVKpEBkTiUSNxYdKRApkJ0CkTllp118M1IgUqBECvwPq046tPj6AGYAAAAASUVORK5CYII=;" vertex="1" parent="1">
          <mxGeometry x="585" y="1117" width="158.14" height="52" as="geometry" />
        </mxCell>
        <mxCell id="KFGAFjV_gYXadnEVJTAJ-442" value="la fabrica&#xa;de poliedros" style="shape=image;verticalLabelPosition=bottom;labelBackgroundColor=#ffffff;verticalAlign=top;aspect=fixed;imageAspect=0;image=data:image/png,iVBORw0KGgoAAAANSUhEUgAAAHoAAAB8CAYAAACmAKT5AAAeQ0lEQVR4Ae3ddbR1RfkHcExsMLAVxG4sVAwQEVTAwBZRxMACG1uwwBYFA8FWwG5BAUEU7CQMWGC3YC/9a37rM8vvXfPu3zn3xN3nvue+7/lj1jN79tR+vvPMPPNM7E022WSTsiG5i1zkIvV70Ite9KJL33bxi198nWfv14cbxOvUFR30vqewDQvoMKVl2sUudrFZMnCivDW+NEBU3dq6pv4zoBsW0AE1NNKCcZe+9KXLJS5xiXLJS16ybLrpptXxt88Jn4Re6lKXKpz84x9G5asOHL+y+cXnnwHAyXPDAjrS0QKNeZ7vfOc7lze96U3lzW9+cznssMOW3OGHH17e+ta3lre97W3l7W9/+0TuHe94RzniiCOqe+c731nGcUceeWQ56qijalxppXnZy15W7nKXu9R6zgjs/oA2DmKoLikMV+nWP6OPSKsdSCPVj370o8uf/vSn8p3vfKd861vfKt/4xjfKqaeeWk4//fTqvvnNb5avf/3rYzvpTjvttOq+9rWvlXHcV7/61RpPOvGVf8YZZxRl77XXXkvd+gz41B/QW265ZbnpTW9aNttssyVFJxVux6aErRYN0Pvss0/53e9+V575zGeW29/+9uU2t7lNud3tblfucIc7lG222abc8pa3rGHCh7nb3va2hct76eJufetbFy7Pg+itbnWrpff8d7vb3cohhxxSvvzlL5fHPOYxa0Oi73SnO5WnP/3p5Y53vGMh3WFwlI/VArZbTuoRoO93v/stjY3q2Y6Xnqd1ejNuufTeZ4zm33zzzct+++1XTjrppAq0tN369/Tcn0Rvt9125eijjy4vfOELyzWucY3aDXW78Z4qPREzukA/4AEPqEC3TBWHW436pT6AvvzlL1+e/OQnly996UtrC+jjjjuufPGLXyz3uc99ymUve9kKtg9an1IdxpLoP/zhD+X+979/lboMJ2mM6rlaQKdhBWgS/djHPnaWfOpPou9617uW448/vvz+97+vWqzxOh+ErgYTB5XRAv2b3/ymkGigpm5JM04du2mSdhKaPFD6zFOf+tTade+9996z5FF/QOu6AX3hhReW7373u+Vxj3tcHYMwIdIzCUP6iouhys8Y/aAHPWgdpWe165YeBDVGP+UpT6m94JpRxmiQn//85+tU5dvf/nYdr4HPEBAJ6gu8SfLpAq3rVp901ZGwSfLsI24r0SeccMLa0boD9Lve9a5qlPjKV75SFbNrXetaS0CHqWgfzBonD2W1Eh2ghY2Tvo2T+rdhk/jb9Py6bhJNGdN1p/FNkueYcfvrull2Pve5z5U3vvGNZffddy/vfve7q4TzM/FhbFw+uKVjVngqcFqgM0YLa8ufxL+SurblXOEKV1gaoxl0vFtJ3suk7Q/ou9/97hXo173udeVmN7tZ2XPPPcuJJ55YTY03uclN1gE5FfJhGJ7nWdCUkTE6QJOeNLxxaUCatp4pJ+kvd7nLlSc96UmVT7TudsqXOD3R/oCmdZPoN7zhDeX6179+ud71rlde/epXl5NPPrnsu+++SxYzFQ/DAkJPHzOwwaSMUUCPA3zqPW19kx7gyjO90nUTiDXVdX/hC18or3/968tWW21VV2d22mmn8slPfrIcc8wxdVGBVag7DuXj0WkZuFw6+WIsoH/7298uTa+6wHafU69IIZqw5cob9S71QXXdT3va0wpljK27y5tReU3wvj+JjjIWoH3IFltsUZ7xjGdUqT7wwAPLta997XW66jAudIKKj90o5N0CHWUMU/PO+xbo1Cc0YOd5JfVMXmg7j14z0ytTqc9+9rNVGdNtY4oxh3Hf0hxp32OPPeq6bRgWBq+EcaPSKks56bpboFumrzbQ6tXauteUZSxjdID2MRSORzziEYV51LrvzW9+8yqNAQCzR4G1kvcpJ0APU8a6QKfMpFdPfi7vpqHKYVu46lWvWnbddddqb7B8+chHPnJtdt1hAqkG/Cte8Ypq6mPE15J9MCdeHwxMeV0aoADNPBuJboETpwW6bXxJ38ZPnduyxGuf4xfeOgqYlb4Xv/jFdfpJWbVUqecLP5K2R9rfGJ15tDG6lWgMsm3mHve4R/nIRz5Sjj322GIqFotZy9QeP2yJ6QGqC3SACR0FdPJB4wbVt43nve/T2G01uvGNb1ye+MQnVh6ccsop5b3vfW81FVsXuMxlLrPi3mJQff4X1j/Qplct0Ary8boq69UW2V/5yleW6173ujU8krJMJZdAmyZOGJ+uOxItPHVD1aN1KSvpQ7v1Fa6RcG2eia9B+9aHPOQhdbuSlSozkec+97l17f5KV7pSLTflzYj2B7R5NFt3tG4Vzsdijg+2M8M+K4sfD3vYw+pSpjhh0Cw+MnUI0DYedEFRbgsyf+qS9KnnIKDbtPkWZVzlKlcpO+64Y3n5y19edRSmzoMPPrjsvPPO5ZrXvGblSfJvy0zZPdL+gSbR5tEqmY8IpZg99KEPrQ0C4LbTRBp6/KglkNo69AW0b+HkHYATlmfjsEZtakl69WIU0Yc//OHVmGQoSxo06ZLvDHjRH9AZo9m6dd1hciqPAtU7LZw1yFrsrLuuMLJPoANECxA/m75xmJXrPe95T1U+GYt8p/1kGkB6E/VqXcKTd8+0P6DTdXclOh+DEfxas+6MYsYxtPjInj9sKT9lKjtAr2SMzreE5psAbJVut912q1uKjcOf+cxn6uodAbjyla88cFdLm4+8ZsWDTfrMuGsZk3c+pKU+iMXMpjhd2kEHHVT3mInTZ32Sl3wDdDu9SnmhGpt4cd304iWv+GnTQNx+++3LS17ykgqurVQauzmycZjZN/FDU4bnlk8pcwa0f4mmjNn6m49qKy3MR8ZiZsM8i5ldH6QicZM2jEj4ODRlJG6e7Xix3dey6aBuUr3EzTv+uADTUnvizH3Zqj/0oQ/VRmstXrd9oxvdqPZciZ98Wpry1FN46jsjujpAdz8QM9l5ad6Aft/73lc3FGbfdPZO23edPdjtu2F+8SlB3sdvjqphPf7xj69Ak7SA2TI1zBY3AIWKnwUZDdLqnLpTKHXThiBTR2X7LvEDYPfbU04b3q1H4rThK/TPDugwSaX5fXzCMBPjtt566zqn/uEPf1hXcGwX/uAHP1jNgihJocyg4zhxk05enOkM5jNUOKlBopXfBSJ1VM+2rgEYvdrVrlYb5Gte85p6ouPcc8+tM4hnP/vZVe8AtJmEwwDW5ClmHAnP0q3ezrz6Ote5Tu3a2RfMRlrg1wzQplcBNQzMcxiJshZRzCyG2IrrmMv73//+KuGsRiSd9ioMFbaca+MD/Sc/+UldObPPXBf717/+tS5TAq2tV+oUa12eUWEUSGDRK8yFDQH/+c9/ap0d4/n0pz9dPvzhDy81UI1NXSzmcM5YmV459+X8lzHcBg2mz+c///mVB90p1woluDsUzEaiu0BjaiQ7rVUYyWJUYP92/ghzKDakwK4UDoN1v2gkZDkqnnROjDDgUPiufvWrV5D+8Y9/lAc+8IFLChIgAzh/um20fUfqAOLMlHpahLAnjnOGyjku4Ry/zZF2wn7ve98rP/jBD6rTazlndeaZZ1bKf9ZZZ9WzYJZwldH2MnMNtPE206uAO6xLSjimmmMa70gLIIyDbfr4x/n4xNWAPvaxj1WgY3795z//WfMHYsvUthHyB2R5cYaYT3ziE3U8NgTc+973rtYtBxVMqVjb1JuZk0HIap2tVDYTUM4ogtKZT+tZ9t9//9pwSDgrIYm3qpe6q8M43zpBnH4lehDQbWUCbpgcRhpDMQjQPvqGN7zhOh/dMiB5DKNA8g64H//4x4vFA6A/61nPKv/617+WdpikDqmfNMqRPnmkXD2U3kGPk/1vbflpGKiGmx4B1SXr/g0XGrBdJcZr83kzFMOVBmk9P+XJO/XqifYLdGvrTqVT0TBGeN7Fj2Lmq171qtodkgAKSjdtnofRtgyKEwbqXs11ja+AJnkAkUfLUHUQ3oKW/FjzrLUD2rDRrX/SJb/Q5IlGmdthhx3qnNt8++yzz67Dga7bkJPykn7Yd04RPlugfWAqlY8QNihcy7fH7FOf+lRVakyPWkDaNMlzGJWORJv2ABropj+DgG7rJV2YTBrzTtdNYaQQ6m0SLr56eQ5Vp7xH5aNHcRBfr0Jx+/GPf1zHcL2XnowmHgVRmmHftYLw/oFux+j248epJKXJ+WXgvOAFL6gM8uEBPHmMYob3kWhdN9CNi12g1a91ygnYwpUnL0CTaECTvNQj3ydO1w9gdnznr+30pJVTxL7//e/XmYOxW++gO5eeS74zoPMFtFa97bbblg984APVkELChYX54zIA06YFugUs5em6I9HACSio+KmfZ37j8C1ucYuqhJnm/ehHP6rOpgszDMqnjQZJi6asGdH5AhqjrnjFK1ZNlSTqHRgWwtBxmSD+IKCjdZM2eWHwICc9l/ICtDl8O5Z209IrbnCDG5QHP/jBdRZhemUubziK5SwrWMk7tFtmwnui8wc0EMyb3/KWt9Qu3BhGa53kg8cBWhzSF7A8t37PKTNA67pJdNKFkk7KJKvboYceWufTALZf28UA5vSkXJ7Jd5A/71Juj3S+gPZhPlarN/0w3XKGixQBYVxGiDdKosVJnvxcgMtzGB2gLVqk6xaHBNurbscIKxfjyTnnnFOndNbcadjGaXHllfLynSknNOXNgM4X0C1DSIhrmZgYGRlyg0LihBnd5zBxFNDiYXziy2cU0KZXGp0ZArOqNfgXvehF1ZACYHVl4txll12qIim/tp5tXfnzjKYuid8znR+g8+EoBpEWu0VZpIxxVrGEhzlhRPdZuLBxgE5aFKPjkkfKiESzueuGbde1uY/dAMDGYveU6bo1AMNPnLzbcvKcsvIcmjJ7pvMDdJjbMsC0yL4rkmJh3zi3nJSEOZjWAs1vetVVxhIfTblol+kB2iEEBwc1PACzVxu3bb43F6ZLJG2XtmXlnTD+lNnG6dk/X0C3H04iTK2sLZMk6772hkcxwyBxwpAwLHnYxcIyZoM8KQO0RY1BV1tIg9mRQo0pwMuXyZL0WrX69a9/XTVpebPgeRfbfOoyh3S+gA5YKIfxplsWCawY0WhJZ0AIQ9t0Aa0LNBMooE19WiCVIT+NKq4FXFxTJnZ8QFMQGXXYvGPsSJnqkTrNGZ0/oANyS1mmgGwJ0JZZ69jACWNDw1zvAJ1FDRLNOmU92kG/gAvE+ANunpO/vCPRpJqiZVYgPHFCU/4c0vkBumVcJA7DMBFj73Wve9V5KVNi7M1AEWcU0HqB7DBpN/CnzJSjrIDW5pkxOibQvAtNffO8AHqZi+AxKYzGuAAozLP5qoNpFvSZERkpEq/LWGnarpvfeGoXaDYHJk3AQVvAEi5egO5axsRPvPQEyXfO6PxIdBiDcWGeMH7A6a6t2dJ4LdZbLBCeOG2aLtBWj5w/BnQr0UmLSjMu0OKmvNYvnzl1/VWsu4EfAyZlAubFJa3nSC4rE2l2FTPLk3XmxG8ZLC1wM0aT6ADd3cAvboBOmZ7lmzwj0ax0ho2Ep26D6pA4c0JnB/Qw6Rj24ZgVRrdMTnzv5MkObkeonRk2FmacDmDi80cZs+RpPj4M6JSV/JWRusiLP8uUsYzlPcolXuo6h7Q/oB09oZVmPdpUBQgtU1bKAHmxmFnoMFa7vZ6iFWYnf8+OyFgiNC2jdbvHy12gdpikXqmbdGmY6p1Gk3wDNGUsimDeScvfPqceg2g3bhpY8hmUpoew/oBmrgS0bazs1Pmg0B4qW/PEGMBpUNZ5baRnewZewFKmbp1RI7tAKWPmwbnaIvVq06SOrVSLx+rl26yTtxsPvEuacan6pyFJk3pMk9e4ZfZ69oqiZJuM05SMCZQnzmIECoyVOMYJmrY8bCY0n/WrAuMwg0beea88Es1Obl3b2G5HB2WMwURcPQMnX2mEJQ/pUx4KXAaTSDSgWmC6z6MACLhtvEFh7fsV+vuTaMqYDW9avr1RxkTMdYqxT+eaJvmxgbNS/fGPf6wb43XNyvTeNltba+3DNpaTbhLtnjGrS+KwTz/qUY+qdfTMSS9MXnHCn/Oc59SFCxKtEUfiA/a4IHXjeW4bSfJbIaiDepn+gLaiQ7p+8YtfVIb+5S9/Kdyf//znSi+44IJKEz4t/dvf/lb+/ve/1+M1TnewdnG/+tWvyvnnn1/LZo82HguzBcguFfushaV+/OJxv/zlLyv9+c9/XqkuXqPwTh7nnXde7fZt5svGA6AYz9uuP0AOo0DlpGnTJXxNAM2gwTx5wAEH1I191mkdibWV1S4Lzyt18nne855Xy2Bv5tylSVo5YDJxmitbvNBNWwgBiHNRzkjpbUgoqq5OYPB71+YtjLMcyVDjnR7KCUrKGcc02tKED6OmaYkvLV3G+E/Bcx7LEDIDaZZnfxJtlcn5ohxbYZdunV8Q5djKNDR5mUNbkdJt0wkoXHZ+WD60Zk0qMuXyfZ4x0PxZ3eTjyIylTztCdO1tfYRz+W1S4iQ87+QhnXhmAJ45z8McHnDe2w3quI61bOn8C0v9+8Skyas/oI3R9kjRhNmjGRcAQIEx/0T7cMyQ9mvTB2jUwMMw3azlTPNn3WJATrfI1q2Ll0691MmYmzqpLyd/7zA+8YRx3nsnPH7p853iJL9hVHrxkv9HP/rR4lyWqz6cO2vA6dPfL9AUMcqOrsi6MUmitfbhaMLR3mnyFjooWebRts+abv3sZz+rSlWYBWR+1PloWncO3adO0bD7rGvyHkTbcvjxykzFvnG2iNS9Z9ov0N0rIiNNw5STScLlFQUGE9JF66Y1KichGEfsAjHdSpzUwfhKAcs8Wrg88n6Suqwkblsv+Ri3ncGiNK4ZoEk0yVL5fJCP4e/DyQswbV4Js82IcuYoKgUqAIrLT6IB3bV1t3mtDz+FDNBrSqJXC+iACxh+Us3pBt3rRUmyupWxWhdqjmzalEN20q0PYJUbp3xCsaa6bt2O7kfr1EoDQp8MbfPi70o3yxZDhysn6AosX8DWCHTdrQl0fYCcMrtA6wXxjnUxcXqm/XSpKkXrzhjdAt1zhddpQAAM2KhndnCGDUdSHVhXvnexjGWMnkW9pskzEr1mgM49Y90xepqPH5YmkgDQbhzvhJNqJyTMTy1nWpfWdTNlDuq6pevmtVrPymY40fsAmkI5o7L7l+hu191nxQMK2roAL4z0mnY5ImO6lX9V5PqpjNHpCfqs36R5qW+AdtMgM/KkeYwZf20BPeyjMCzv+M1PHb+16YCBhK3bzhR2ckDHRq2BtM54vpxL3Iz7njWYtvzUYxRNGkDb4crK5xTIqHRTvt8wgM7HYx4QUUuTxmpWJ7tSTL3aW4kABKgA6zn+UTRpkz6gpR7j0KQx53dpDaAXEj3BPBwIGE3jfu1rX1uPzlhPzo0H2dctjrhhuGf+US4gpmF088j7UTTlAtoR4UXXPQHIJBGDMR/Qdrv89Kc/rRsHcllNC/QoMJZ73xfQ5v6HHXbYoutejtndd5ESINC+Ae1iGNdM2IjgDhNAp0F000/yrCz5KGuSdImbugZo25gZefK+Z7phjdFhDiYyiZoBBGjKWE5TBugwW7rWn3y6NHHQVqK78cZ5Tl6A1nWz6K2ZZUoGk1lOr0YxEPPDQEAbo9m+KWO67gBNiZJX4o7KN+8TH22BTnjijUOThv5w+OGHL4Aeh2mJg3kcibWUma7bPi+3JqwU6JSD9gm0DRsLiZ5AGQsQwI4y5tIYQLcSPajrTtpxaRpU24u0adPohImTeMKFheq6AW2MtkunzaNH/4Y5RmNQC3S3654V0C24/MoZBHAblq4b0G5L7BHcNq8F0NMytgtk8gm4nlvgPXcl2zOgTa/sfbOBMfn0TBdAT8vQYUB3wW2fkyYmWEC7sd+eM1ulFxI9xTi9PrruYdLcgg1c8ex5M292KtRGCRsVzfenbXgj0i0kegSDhjI+0gk4fvkE0NCEtXEsuOiu7Uq1W9Y+NyA7OOio0bT1GZFuAfQIBg1l/CCgI60BVhx+ztzdeTCWOXeSWVmzkJGfkVpaFW/a+oxItwB6BIOGMn4Q0JHkUMDppq2k2QzhH9qWTR0+sF7uoGD7E7QF0HM4RgdEFLAaDH+eUeOwIzwOBDrZ6cCBf4foph3NybWX0iaPaRveiHQLiR7BoHUkOiBKwx/lC0ieOV20feb2zdmo6FQGgB3KdwUW4CmKSYPGTVKXCeMugJ6EYQE6wADVVCnhALY50d9zmF910ez/rrd0UYDjQplaJY/QSeoxRdwF0FMwbUkCAZsdLTRmm/uc+LSJAMj2azvZmZOSQI3kB+CWejdNfcZIswB6DCYtMV9XHWBIM2ec9c+qfffdt+461U07gOewvnDr4tJxKSt5oN2wPPdMF0BPwtB00QAyH3Ym3E/N/DUXwMyYFC/ryu4w1RCkyVjepg/Yyk/4JHWZMO4C6EkYBhyg2CvugL0pkqPCpkz+2eU6rBzbDZAtbQFNXnnfvpukTmPGXQA9JqNqF0tbJq1uQqBkuSaD0cPe8fy7KsChybv1C0ucFtyEJU3PdOMC2p6x9khOFwDMHcR8Spd1Y+e3TJfcHe7GAkC78iJ3nQ3KL8C2wA2L18bp2b9xAW2HiYPwNOVBjARAgObPOExztq8LwCSYZu0f0q6psHOF5Ws9gDfwGwZ9V693mOSQ3frcM9Z+5LDVK7bmTIkCTsCNVk2JAp7zZC7cMQZTtpwru+9971vNlq6pcs8ZoGdsp54E0GFxNy6J/ve//10PwgMauF2APZsOsV7ZNerPc8B074hx2GZ7V2GI58ZCK08LiZ69/XZY663hgyQ6Y7QxlzRzQNMTAJ/Z0m8d3DFqdcn2HtMle7nYrRNfGvZqQNuLZiqV3qHtVebIv3FJdH5CCmggxOhhumQlyXQpV1sdfPDBdcWpnQ8HTJREu5rKUZ8AnfdzBHCEYeMC2iE7WnfGaGOrE4ymS67l0E0zfohj7TgGDwCS4ki/Z4aSrkQvgJ5imXGlUjGo63a1JA3aOOyqR9Mlq0ouiUOdoTaNom13rVltfQI0iU7XrREsgO4RaMwch6GAdlKj3dd94YUX1jNYbiYyXSKRrqsyF7Yxj6KV/LsS3JbJ3ypjuu62Icyhf+113ZgcEML8TIs8x+mWHXVxmpL0ZgO/Ltp8mLJlLnzPe97z//0hbzmgkn/GaFr3AujGDLgc88Z9Fyaj6Vr5M+byU7SAbL4LTFLrQhhK03//+98KPOsWoPyBPl2utOPUQzxuAXTn+qlxmDdOHMwFrrhhdtJ5Bpix1VURlghJrgtdAcz4gbKM2RBg+TC9wKD8ku8gmrIXQM8QaGBifrrugAQ046v57ktf+tKqXBl7gaFbJeWue3aJu/GZNj0on0HAdsMWQP/vnrFZmUAxGEBhdCjQN9988zrWHnnkkfWKZDfr2rpDwsUTh5S7bN0Pzlqg0+2nt+gC231OuQuJnpFEY3hAS7cLSPNdVipdtXuwXQRvgzwwOSCLD2i3++b6qQCWfLuADntOugXQMwY6jDYXdkrSBnjWLJq0ebB90mkIQBYf4IB2p3d+K+wdtwB6wrnvaq1eAdFGPCtLbtxzQ6CL2nfaaadqCAl4ANQto9K4ItIYvdtuu9VnYZHa1p+wYTQNbaOVaJe+2nXhCKgTgpSgvh3t2eVwTJQsWRb/7bR0MTuwgNyCFj9Kov1sRdfNmGJTHwVOz9BS/uWcdNJYpqTVxzI2rGHMSXi/BhPjpB+E+kkKLddSH4OCG4FsXl+pw1SnD60NMz+6JM5WWlIWUPkj1fwY7fkJT3hC/WOP9KSao4EzifJbp+Yf5Shz4jC2aGgbHdCOgPqnhX9qYACnW/VjkTjPK3HylJfjLRYVSBYQjcEBOsC2kiSO5cdzzjmn1i8/LZFX6jjshydteMr3s5MzzjijnHnmmbUB0frTpbflzpG/P4m21OfnH/kNESD4SUrC0JU4XTaLF4NH1pRp3mFoJNlzK838unerVOzaFDi/P/I7JM+oXyTxL+ek45KGEcZmQV196jCntD+gSRQXBqeFt3QlTJBPpBdNOQE15aSMti7CophJy2ko6QWk9T75Jq8uFSdTNu/il3/Spvw5o/0BnQ8Lc9rnthHk/TQ0ecoPkz3LBwBo3qMYn+fW343nOSDxL+eSX5smafNuTml/QOeDgdAyts8Px2D5tTRlJWxQealTG4e/fU4+g9InrI2f9Mk7ceaU9gd09wMxIswLU7pxJn0Oo0Plj9GeI+HyTLlo/EnjffzexR86Tp3adMlvkvTjlNFznNkB3XNFl7rhRb5TYTZVogXTJ7QazkHjXAA9ByCshuAsgF4Avfa6p9WQjLVaxkKiNwaJ/j9P/8s6OC1a+QAAAABJRU5ErkJggg==;" vertex="1" parent="1">
          <mxGeometry x="871" y="1123" width="45.26" height="46" as="geometry" />
        </mxCell>
        <mxCell id="KFGAFjV_gYXadnEVJTAJ-443" value="cambam.info" style="shape=image;verticalLabelPosition=bottom;labelBackgroundColor=#ffffff;verticalAlign=top;aspect=fixed;imageAspect=0;image=data:image/png,iVBORw0KGgoAAAANSUhEUgAAAPcAAAA6CAYAAABs+s85AAAS9klEQVR4Ae1dd5wURRau6p5ddlmWRQEFliRIdBEkJ0nmnHPOiGDAnANmVFQUMKEImFAUFQMCxhMxoOLpDxXDmRHEfOqd3rvf12XZPT3dXdU93TPj0n/MdKquevXe+yq+95oxxij9pTxIdaBe6kC9rFTaYKWNdqoDaYudNm6pDtRbHai3FUtb7rT3Xtd1IAV32nOlOlBPdaCQguXEGH6yTPe1vJ8ebR6VOi+c8ix1Wtc5+pKqMKeKSk6bbsbogMMZXXwVo9vvZTTvKUbznxG/+x9jNOUORiefzWjrHRi1aGW4wJ8UbetqvgZdPonRwiWMHn06vx9kOHcBo0lTGO19IKMNWkB26ypfS7be8RKWyXAaPorR5NsYrfic0S/E6DfN35r/CsU7/lRGbTZKgR4/WAxauFRfHrpyQ7qvf2N0/S2MWrc1U5CXTiMXD7jLy0068HBGL78Tj/J8+z/R0/fsnYI8PpAb9NSL8cjHD/irfmZ0wGHQqXS4Hp/cImM08ot/ttCctt2J0WvvJaM0PxOjqbczar5hOuzLX1mSB7cE/VkToFepzPKXWV74jP5yTU2Gbp6VDKilksjjv9Yy2nUv0Jr2CNEVpnDghtzGnZLKK7qsouPSUWa0TLr3MOj1lYUBtgQ4jpdczYjzdF7nEGCIOW5hwf0jMRo4JJp+RatfWpaLb+EZMmQ4py9+LDywJchnP8SoQYMU4C5BaoC8sOCGvBb8A/qVyiq8rMLj0qOMcJkMHsZp1a/FA7YE+D0PMyrLpErjIdAAkBce3JDXiK3C6Vi4OqV5B/BLnzldNzHpk2+LD2wJ8CnTQXu6aBMgXBfQiwPuG29P5aQvI308auSpl1lVI5OWvFU6wJYAP2486E9ykY1Th06c9j2Y0VHHMdpiW0ZV1fGNGGC4c/RYkfeRYxh5/UafwKhTFyknTqO2YYR7Xmlxb/TxjHbaXaZ3HsOB+7s/GE2czGibHcVi5l0PRZP/GysZZTLFaIQ5tao1aLe9GR0zjtEOuzBav1l8dDSqNunQoxkdOdZfFseeyKhPfykDTn0HMMI9P9mBTuga7EU0wKtKIwsOOhp03c3RBCtBmNTxOwLz4hOYYCinJusbtP8hworre5cRzntfMtpjH/ArXwFwmjRVj68XXSnKw3qHmx4v3j7zqpc89cGNLcjtdnLXkdOZF+rR66Rp9X8YtayNW0Ze9RP0VlaZtMOujO6axwiGUU5asFZ03IlIlz8948Zn5+0sx3k+a66gq30Hkz7+Rv3O+18xqqzKV7cs/lh/gS3AyK3VBDkrU+jzBUtQh/x707IyTsNGMpo6g9Fn36vrfMSxQmhRW9hudZxgrKPDr4cXMWpc04De+lgv/eKXveSqD+7b7vauG4yVloXcJcGqeZfuXvTEdY8T55x692M08XpGK1epeQRz6HwAvn4zkwBCHdm9+SGjqkbl9PhzeunReVQ0jIU3wZkYhknoBXQqUYw0YNzuVi8atSXm1KmrQWddxOiND8LVEyaXHTtHbVQ43XqXfnlQWNiD6/I4X3BjCuLdaHHLR0CXDqRLDtycatsYhKnZC2+EM3UGXcO3iN47nj1BXxZYgL7vUf30BQI3pz321ScqjMDzTQszx/FnMaqsjAIuTus1NSxzWbSmUL6o9Jx+vh8Igu/3H2TQv/MoV0VvvuDG8NsP3PMWhuPX6l+kU5BfnmHuc8L6Dwya7n2E0Te/h6PFyTe/0Yl3vW0aYT//+Q/Ry3XS4HVeIHAbtOil5CrhVTHVPQBi2p2MWrUOD+rycm5ty9w0k8W2T48WOfzwjhM84lR1zed5vuCGOXHDqlwe1/U0tKcSkv5XVjAyjKgjKwEqvI/FqGtuZPTh6nh4t/Sf0WR35fXxlC/54z4WBNy9B3D6NcHexV0p1TWcHvoPhJKEGU5x6tKN07mXMFr+UfxCiQLuUdvGT4ebd/mCG/mhZ2xZC17jZ1DvfjySD8F10wCiMDITgEYP2rqtQfASfGk5i10X4eQUtmHu3C2T12jBLSev6wKAm9OEickroVfl3PfgOrrPQTA7DdP6c9qsL6MHHmf0U4INFObqqmFc9nPTstpy1zHu6zjADZowX1y0lNGLyxn9EJGPQ0eE5RGjjTbmdMtsRms1Fxyj8A/xBcI1OtwaNUYpK8w7BQC3QUveLC64sY1xzsWMsJ+YDRCVsnA69dxkQQ1hYb7XuVs42jBXDCPoqGnjAnfU8uV7WOUP1ztyOugIRqtdW1gyvziPW22v0qPs5737mYl2FLJuiYO7fUdO3yfQamKYD9AG7dUizZ1zGIGGcKAWioRAEZJRSR4vuBzl6dNYVmZaPWCSNMm8SwHca/9g1Mvyx88Gib9MOZ1xQWFkN/MBoSv+tLhpNggmz5K/SR4TBzeskuKsAACLYdaAwVg5ZdS2vbDEcc+Dn1vGaPORYRkvBcHp/MvipduPB/CIa1SdCdX4wJrJL7+475cCuA87BnLRb/wKxZ8vf2LUoVO4EdewUYWTXeLgHntyvJU52to3zRV0zXoGPfsaIzAcwjXNMPNqCWpxHL5l4RYAt98lu2xVD1DVKKNtgBIH0IsJboTWOvSocMDu2Nmgr36OV+f8+AjdVskr+7lBjz1bGNpAc8Lg5nTldfFVBsOZoBa8dRsjBvNEwwr85yfQOO9Pvwf1CdcIYcU3ThpUeRUT3FiLwNQIc9qyMh0+cZo2szD8gUFWWDv3HXcrDG1SpomDO84IK2BOdksY//XQYVwLPJgHwrQUttOSmWGOn37HqE27cMPxps1NLZPIMHSo0hYT3E7aXn6bWXbeQY1h+w6ZHBtwZx7yHKv1kF1UoyPIfNDQ3NFjkG6apkmYKkoaCnFMGNyM7p4XT4UwRKvrGT+YswXC6dJrgumFYLHyDnPF6ibYs2WRhlrwuMouW3XN6bxLg2mDwmC7TsemAGl07NFLBdwSDDfN8DaKAS+PGK3mz+TpjDp2MahxY4O6bmKENoEFHVfdoJJV7nMEe5R18DtCt3Sj/MLRyS8feT9xcGMPUBaW73HoiHCtZTjwQCBcGdXzpDNEOmfeFRUZa76vWz8Y0cDW3pmH6rxtuzJrPUFVxq2zGOkI/onnGd0wXS2bUgM36r/wRUZYY3HzDBaHQfyZfCtk537PJKx4B73nfPbOp3D3DCe7ysoMLXtfXcasB/QcjbAIq+qEQHPC4OZ07TR1pZzMCzoXHjj+AIfvqmn4P3crg/u6vNygtz/xp/ejNVAq76E0fGeDaJfP0LP2s6zjclt3Nz32NbfMJWUefkcAEdFK/J7L+zAoadfeJLh/ynt+x1IEN2h9ZDGjsnInyDihwfKrB4bg3TZxprf5j/hsfu+57++9v/2eLZ/ge/C7dufjvoZDz6ChIm67+5nzGj07ohgdfKQ6z8TBDYcIJ3H5nMOft1cfd8srGWtYw6U5jzJqZ32IQN7XP1bX8EB7YwSZyG35Rf6DNterJwIzBi0KeilM9zqDEPBAxTusvOPLLKp0+x8qaNCxbS5VcKOOl1julrIx5/T0K/51R+Sfmhpv3YEDx1oNYxeY0frJ30tuuNekqUnvfuFPl5TVCadhRKCeKsGLDDRgWiff9TsmDu64vcHQe+6yp3Ori1ufoEEIHllJNAJnXQjfV+9e1k8Qqp4bCuI3JNNpSeFD7dfz+9GEhkDHpROOOfBFHzjU5oPkh/OIoA5SQf/u4EZvbAfY4IGurJjP1vXyBvfgEepFVIx2OnX17vmDZKdjTAOzaAzda9sET6nmPmlH7C0BcDPq3oMn4pIIoxWYJGL+uuoXb4XG/GgvaxglW3codtAveGgHkGAxTYJD5lXdOKP1hRQRLz2o/NxnGMLruHTiG2mgZ/Awb16A9sWvMML6gKT7Co1tyiR7bvnZJ8yh0SA7GyHd89kP2vKYMiM4D+Ga6QZoxvIbUJU3/kyUo6tHQhatWme0gnXIxdV2HfzBjd6/Za0tu5IAd4MGwfNYFVPjeI6wuH0HQDAq4XCteejVN2L+JjydttyG0fOvBysV6iBD5Ehg6R0Num++Ou8HF9iK5wdu+A13dvU8Oua1SYEb82MxfRJyad/RiOQIgxX/Dp1Fj4zPUKn0BXLo3RfWjZz6D2SE3lD1DgI4YFSnJzMBbHQAl01S5/3qe3YsAT9wY53GHfm1JMANQMFcVMXApJ9jWIahe8tatNz+IB84RD1EA63ID4qls+0EiylppogwPv0GCis6BEmsqPBXGp2wVFhgGTTUzsMP3JgeuZVTtbqMeiYBbvhRb9DC7oUkXRu2NAnTrrC6cMxYUTfIVsc6DSMh2CnobDshzbAtbN5178EshxTEVqtu4h4F2Ok27mJq7bnvd4j9jh+4vXZoSgTcIoJmWIEllR7CP/F0MceRSpV9NALnblHoEp/DQetv5syfYTJb2yZX0TF/XvCCWtHvuA/KYTdWXuDGtokzjaxvscAttqRspZb0gEaEmQ7LY2cklBtidvbBF0cF7wyCg4+zQcDOSq8+XgA3rE9Kq+oBKzdn8AkvcCNSrHsaCH6NHqfmU8ILakKAiMQRtMWkYkISzxHnDK2vl9JjaySq9ZKb1sVLGWVMoQDw2XY/xzWGhu7AjLvu6Z3W+T72sxHRxAZH7pwbw194kTnTyPNigfvCK4ReSDrsYzTffzG6EHxo284kWP85+RT1HAtdzZoL3u17oHee2L9u2DC7ccaOjo7+CP2zeeEGN9aVmjbPzlvyCh2Uql4FATcAdMo5amJUxCbxHHG86nqKeZ9kHOjFAkq+5WGei2+hIV84six71ztPuK1u7AiQmMnouXTavYqtIM6eG+FvEQbXrpedDveKBe4nXwAd2Y2SoDFaAAoAzHDYN8SxQ4N57pbbSX7xwLk54r/bPDYIi3wq3UGQSjcPnOCGiSz2s+18nWUwLZfWAoEbLZBBH3ytrrSKKUk8ByOxSLZBCyicZCjXWhDxowfD/81HyrzE3Bo9gVd6zNud2zSHHOWdzvkutma8gOsEt8rjrFjgRj0OHw1ltfkDRYfHn7OOuucIkWwaTuXnNEYzFrhXGeh199zPSV+w5aKzB4absVee7ntw/XQDF+CW8QnGWDHRc9PId3TsRwoGbghy7El6FXczolDXWPU2TecwiNOxx6sNC9z0IaaWGA04hcOtwBHutLjGFEFuUVVVZWj5h2o+Tfjz4wJS2PI4ZLh4F3bo2eBx0iLOiwluLGpNv1t8gQRf8sDagc6Wnxf/xB6/eyTAaefdWegh+sqvGGEh0807P/9+NLK2A5CptV7jN49u31HITqyjuOuTLb8SAzeAY9KiJWrF9RJgIe6JoADZTISQEY8c3m2q8LcrPmMEH1+/MMmITe4OQI9ewm75OZ16npo/GG6LUYabVjGUnP+M4LUEvN9Rx2Mv3y+OFEJuaKTcYJR1xgo89vNVX5OFgRIWzNZr6j2NgS07tsTc9Rlzkl024t67n7uvIe9efZwjFluG3erEtqqfoZSsE45+6zfO8sQXR+z8ne+HPNfLpG5ToyS+7ulkAs5FkLug1lIErsde6rU3MZoznxHm6zPmMCsiKlr7yoZB7wv+1LYxCTbymHPhiySIBCoZjYUv3IND/0NPef+wZ49gFH7K3LEzggKq6UCZCMKP/PzKQix27NVK+uyj/hdH3HxO4hrWgTZt3ueIL48RAqzyEBcABlCz5zJLFpi+NK4BqG1ZeOXXpIlhxdTDu5A7bBzsdwy64IpgfmKtQQTC9C6nZW3uAqkXHbi31wHCgMtPdmjgb5mJT1R7l+WXr899b6bmJuZWBNIkhBw1T8SdDm8WqlvfcOk4D5c+l7+FeL90wA3rxNrWeo1Z0rz6e8gukn6EeYnTyWerhzBRwRrmPZj1SQOTpIVff/IvHXBPDRiS1x9+h8FWImnDZlq4CJV+YMdqIr4VnipBWNmVBrixBtKtrjR67XquQ2EVBOnFN6V1Nvz9ABr1PoLje20l1XMhxdSQlQa4YTthz3mj6F/6jqa+R2UUp+GjmJbPa1Qgu9/D6io+AqdZsTRdjidd8cGNBS23EUgqz6gYVL6nTBAIEmxBTL45+l6nG8Be1zAi2XmPVCnyB0FxwY1V7vBeWvnpZ/48+1uXHwfx+PA5p/vnxwty7Aufdh6C/6fzs3iUtDjghpELQkPBXiKeesShs+tEHnFW0qAevRhNnMxohUaIGq9eGk4VT/y5J6yzh5kqSxj5FS62O2QL89z5TyP2HPZsY9m3TRuHnKlWoPwDH0ZkJqeKCtOKLoIP8t0zjxG+0YyeeM1vjNb8LqzGYMf97ueM4IGFiJ4wNGm3EZQg7amTabQMywgE7o+IppLEDzKGWSk8yBA+OpVlEvjSzlM7YUSgi/wR7KC6Mb4swqlVaxgwMGq+IRqBFMjJANlLrpyaNYfFHrNkADnE/RNTqLSXLpxMveT8172/TvICb4lUJq1DuGFbyq/6za8U3GnDlOpAPdWBVLD1VLBpr1y/e2Ud+abgTsGd6kB91IH/A1s6RR81xQJqAAAAAElFTkSuQmCC;" vertex="1" parent="1">
          <mxGeometry x="580" y="845" width="247" height="58" as="geometry" />
        </mxCell>
        <mxCell id="KFGAFjV_gYXadnEVJTAJ-444" value="https://polyhedra.tessera.li/" style="shape=image;verticalLabelPosition=bottom;labelBackgroundColor=#ffffff;verticalAlign=top;aspect=fixed;imageAspect=0;image=data:image/png,iVBORw0KGgoAAAANSUhEUgAAAKcAAACjCAYAAADvhw76AAAgAElEQVR4Ae2dCXxU5bm4x30DsieTPRD2xQUXKgpKMmsCLr1aq0JmS4KssmXPTEJc6tKrbe2itmrdQEDAkEwmCVptta21rVXvrVZrq7duf+tuQSDb8/+935mTTEKwUJEZ9Ay/j3PmzCQ5837PvN/ybiaMhyGBGJWAKUbvy7gtQwIYcBoQxKwEDDhjtmuMGzPgNBiIWQkYcMZs1xg3ZsBpMBCzEjDgjNmuMW7MgNNgIGYlYMAZs11j3JgBp8FAzErAgDNmu8a4MQNOg4GYlYABZ8x2jXFjBpwGAzErAQPOmO0a48YMOA0GYlYCBpwx2zXGjRlwGgzErARiHs6+IaLr6xt6ZcgbjKdfGQnENJyCobTPPvmArRvuZ8/OTzTB64Dqb/jKdIfxQSIlELNwCne9YTi7Xv8dtd8+kwqvk7/+z9P09nTR3Qu98obIFvnJjPPDXgIxDWdPmL09rzzOPUsLuO7iKay+cAaPb1nP7h27lPB7ejXtKjDLw1CmYUF8BQ4xD2dXXx87X+zkPs9phMrP5gcXTmbJrAncWLWKt197XXVBN7300KfA1LXtV6BvvvYfIabh7AZEe37w7DY2l5/MU74sOrwTuG1eNuUzzKy+zMGLv3+CPv4F7FZ6VtegX/ue/QoIIKbh1If1d367gY1XTWa751hCruPZ6s3n5nnpLJmZyqqLz+H+71/Dp2+/Gp4EGEP7V4BL9RFiGM4+etUEspc3nvg566+aQEvZCFrdJlq88WxdOIkbbaO4ekYii88/hRsWXsEbzz0dnnVqgGqdZOjSwxXWmIJTW8zI//oSvA+6u3g7+BO2uPMJeeMIuk4i6Ion5M2geUEa37WdRIV1AqsKxrLYMpHHH76Tnp3vqwmBzEPp26NNDvTtp8O1p76G9x1lODUc9YF4LzgFqK7dvLH5FraW5BJyxdFWEkebwOlKoMOTwmZXPtdZEqmeNYJKRz4rLp7OT5oW8fpLv42A/GvYs1+BjxxFOCM1pKYp94azF7p28eq669iyIItQSQKhknjt6Eqg3Z1MyJvNI96xNJ1rot6WQuUF41lZlEXlFefwu8dboK+Lrl5tYfUV6K+v1UeIfTj3fMbzd1bziCtPacuQK5F2VxLt7iT1vNM9ik73CTx0eTLXzzFRZzmatcUjqbSns6z4dO699Rr+9eE/jf3PwxDrGIRTpBjWqn29sHsnv7/tappdubRHgClwSutwj6LDfTytnjQemJ+Gf7aJeuuRVNuSqbSNZYllItdeXcLzf/w13X1dh2EXfX1vOYbg1DbRBUvt0Qe9PbB7B7+5uZzmkkwFow6lfgy5k2jzJBHyJrCtLIuHFk7EbzuWGksS9ZZM6u15rLCNZ/Els3ngntvo6tqh/wHjGOMSiCKcw0tGm3eK8gzDuetTfnO9i1ZXJiFP8l6tzZNI0BtPyDOKkDeJYGkmd8/PY/VZJuqsZgKFmfgtudTY8llamM+P/Iv54K2/09XThehRme0aj9iUQEzCqYBRcHbDp+/zVNPlBN3ptHmS99GSCLnjaPfEEfIk0lw2gTsvzaFqholAYRKNjiz89kyqLVkss46jwlXME+1b+eC9d+juFjtUxEP/dujHiJeM00MrgZiEUyxDmubshvff5peB/6JtH3CG3Km0u9Jod8vqfRTt7njavdm0lk/l7svzqZltomLO0VRZE6izplPtGMPqC6ex5KJvcGP1Et5742/Q9dmA1HUo5Ruinw+8apwdQgnEPpwfvUvbShtBl3lYrTkUzpBrBJ2ueIIeM1vKx/DjK5Kot5moLUrAX5RNrT2DGqeZSnsmq4om4PcW89c/PAHdu+nd06ftOcm3Q7edCqDGIyoSiEk4tXmgzDm74J//YNvy2QRdKcPDKfNQtWo/gXb3CG1x5Ikn6Iuj5SozGxeO5keXp7L6XBPVzlTqirPxOzPwOxOpdSRT6chh1cVnsuXuH7Hj47AGFSB1OI1JaVTAlD8ak3Bqykrg3EPPWy+zdckMgu6EYeCUlXqiWgx1uI+h3T2SoNdMqy+JVt9IWktPpLk0i4evmsz3LklixXkmaorS8dtzCDgTaXCMoNEeR6Utm0VFZ1C9ZBGvvfiS1hl7aU99jDdU6aGiNbbh7NvF7tf/xKarptLqEa04dEEkwEpLIuRJIOQRWEXDpqEN93KewTbfaB5ZNI1bik34Z8kiKYcGSy4BSyZ+Wxq1slhyZLHKYmbFRWfydNvDsEfoFE+8PZoGFxt9nyyeDDi/tnDKB5cdzz7Z5On7jE9efor1ZWMIek8YBs5EpTn3hjZVwdnhSqXdnUrQk0mzdzSby/K5tegk/LNSaJiTSYM1m4A9gzq7Gb8tiYB1BNX2TK52TOWe6+r46NWXoacbenpADALGxtOh4lL9nZjTnLp1SMHJTt57YTsPeM0EfccOA+dQTTrwXOah7e5E1ULuNJrnp9Dsy2PrVWdy69x8ArNG0VCYit9mpt6Wit+aQGDOCawtPIF6SxorCsbS6LqY5598nB6ZYRgK85CCKX8s5uF8+49B7pPFUOlxBwanR8CMC7dEpUlDrhy2eSax0Tud62YfR/UME7Xi0eRMpd6eSNP5x3JdwVE0FRyLX5xIHOO4at7Z3H37beze8bHWObJIM4b2QwJqbMPZt4PXntzI/SXJBD1HHyCc+r7nKDpc8WwvSWL7AjMh1xg2uyZx7+VT8J9tYvXMo6iwplFvS+PaOSNoKkikwZJMvT2FOnua2m7yOk7nlrqlvPLsr9UiTXqmV4V+HpI++tr+kZiGs48dvBy6iwcXJBN0H+CwrjRnvNqU73Al8OiCJB6bn0hHSRaPLMinuex01pWeib/gJFacG0ddYTrXFiQSsGRTZ8ulxi52+QRqHalUzx3HynnTWPLN2Wx94Kf0de3SjAQR+/TGqH/wv0NRg1M6c+8mM019D0cWRTv5/f3XsmFBGm2u4w9Ic8qqXeaakU38P8XS1OrJpdWbwdbS0TxQPoWaglFUF6bSYEtlrSWNxkIzAUs6tfYsau1mNeRXOzJZWTSR8qLTuP2aVXz8lhb5KYO8BCmLv73+gbTPpS3rIv8/+N331f6NUYVTX/8OHHU4tS0b0Zy/vaOaDVfE/wdwpmomTzF7qiYWJtlaktW7nCfQ4k1mc3kePy2ZyIqzTFQUjqLekkyDOIxY06izp1NnlyF+JHX2FKqcOawuGs9Saz5+9wU8+8Rj7N75qfo6qTsOq89etdfQS+Q/gdR4HJgEYg7Ovv6uli7+lF/euoT1lx5NW8mBDesCoQZlJJypSvsGveF9UW8CrWVJbC2fyJ2uiZSdYaKyIA6/Ix2/rODtidTb46hzxFFnT6LOnqo0aZ0jgxWF2SxxnMJ9/+2n918fKKnLl0zT+5FYaucGnAcGprw7RuHUuriPjwld52HDt0fQeqXpAIf1oXAKpLr2jCfkTlEr+ZD3aILeFB4uH89tC/KpONdErTVZAVpvP5F6+0nU20R7JhKQZhtFwDaCOvtJVFpHsPJ8M1WXnM/fn/sDPV2aM/PeaMoXzdCcB4pn1OCUG9XmZpFH6cKIQb7vI7b5v8XmBcm0LjjyC8MZcpsVlG3iWudO1SxKXrE8pbLNl8M6bx4/uiyfmlknUDUnlVrrKOpt8WpbqV4N70nU28WRJAm/fRR++/EECpOpKBhH5bfstG24h892fBgGUT7JwL/h4NQ//4F22tfl/VGFc3ghS5cJoOIh9AGbVjlo9mYSLDnmP4DTrGlL0ZgKTIFTNurjlYlTzJyiNdvcGbR5zLR409jkmcxtF4/j6tOPobogQQXNBeypaqNeLEni1VRny1JmzwbrSNYWJipz6BrLJBYVn8Z1VeW888Zfw0uk7vDscwiaYSr1r+HwcjCuxh6c4mQsTR673mHD4rPZ5skgWHKgq3WBUBZAAy2kzuV6Em3utDCg4tUkQ7xs2sfTXpJDs2cat87LYOGZJqrsCTRaU2m0pKkVfL01C79qsmiKJ2BNJmAzU2fLoNqWyWprNquKJvI/7ffDbm0uGv40e9EWZnSv68YFTQKxBafei/rxk9d5qOxUmsU+XnLiAWrOAVPm3rZ3eU0WRwKuwClN4EygsySVNlcemzwTuOHCo1gz20RtQTL11gzqbZnU2TKpt8mCKY2ADO+2lP5Wb02m3mamxp7FmuIp3HdjNTvefVNJurtXW+pFgmfAGSmNvc+jC6feO5HHyHt8/1XWeSbQ7E4h6B55kOHcG16JUeosSaLdlUrQl82msnS+e+GxVJwfR6UlDdnrrHGIo4gM88n9UA4Amozfnka9I5MKx1iWFZ9Gte9SXnlWEjygYpZkqRf5ceXceAwvgZiGc9dff899C8ZomtM96kuHU7SoFtUpAXMjCPpGsrk8nxvmJrDynCOocWZR48zGb0skYE3YC86ALVF5N/ntZuocWVQVjWfl3NNYWnw6zT//MT1dA/FKOqDDd4txVSQQ03B+/L+/4r752bSIV5Lry9ec+vAf9CarhVKrN5VmXy6bSidxjeUEqs5PoNoqfqCpNFgHD+ma9kwiYEumwZ6mueI5clltzWG1bTyL7Kfxg7XV/OWFZ8K6U9OgBob7lkBswTnkPt/7Yzv3X5lKqy+VoArB2Hso1oE6WMdWbwotPjPbfNls84mZM5ugJ4v1nikEzjuRytlmAgXpNFjSwppThnd9iBcXPDGDmhWcEvFZazVTY8ml2jmFqwonsPSy8/ll5+Yhn9R4OpwEogvncHfUf62XN3+1gXVXnESrL4Ggezhn4y8L1hSCyswpiyatNZfmsLF8Ko0FR1J//kgarWYaLTLHHInfHqdAlcWQNHFg9tsy1FEWT9piStzy4lltz6LUMoGf3hzgw7dfgx5Jeisz0d3QK1Z6lRvP2LKP9rCuz7v0Yz+Xaiupi1dDP+Why48g6DuJoPvA/DkPliYd+D0yxOezzjOVxtlHUXXu8dQrzyWxHmlDvOyD1tnSCdgl/EMD1G81K+fleovMUU+g1p5MRdFoljgncf2Sb/K/T7bC7k+gbzd9PV0KSs0+Zgz7UdOcAqS+CR15VHWGJCyC3Tz/8H/z0OUm5QUfdB/oJvzB1KopdEieJncOrb6p3LdgMstPNqnw4jqHbC2JP2jY7m4XOHUw09HgTKVe0uNY46izjaLWkUStM40KaxLLiyZy7/ea6N6pOTOLd5Msm/RVff8X9mt4EpNw9nV3Qe9OfnlnXQzAKcN6Gp0l4rAsgGayzTeOn307l6tPl6x2CdRakqlTQ3p6eFiXmCQBU4czhXpLIn7LKPzWkwhYjqPBciQNhSaqLIksnzuVm6oW8vbrr6iQEJ1D3R6h2yT061+XY9TgFAHrw3nkUQleVGnPDh7/cQUbRXN6jyHoPjBP+IHh+ItqUM3FTssoMlI5i7T5MmkuHcdd384mMMek5pI1DgEyDb8lVVmMAoPgFM2ZSL3Y6q0jw00DVYb52gvHs9Q+lsoFdh5v3cSeHVoxsEg4RUbqESmsyHP99a/QMapwfq4cuz/l0VuXseUKgfNoWqMMZ9CbQNA7kjbvSSphWJsvg5ayMdw1P4vV55ioKpKVegp+SwoBq5kGa7o66sN6nTWZOmu8ajW2ZKrsGVTbzdQ40qlzZlDnSGaFNYNlF57JrQ2r+fS9t7UqYGFrrpYffx/faB3SzxXo4fdi7MK560MevaGcRxYcS4vnCFo9xxJ0SyjwF9WE/+nPi7OItERC4iziS6e1NJutZbn85HIz5aeZqLIlUGtNotGSQoNVINWAFbNmnTWJWpvekqmxpSCQShOLU50jlSprMhW2dFYUprPyorP4259+A93Kx15bvesQft7x8GNwn3ccu3B+8v9oq7+c1pIRtHqOVHC2qVyc/ylcX/TnBmLkxYEk5DUjw3traRaby8fxvYsSWSO+oLLnaZdN+lQaBFIJlrMkKTgF0OGaBNOpgDplm09REaGrrbms/OY5bLzjFj755zta2LwOpUx75FzUqbT+8X+f/XxYvhBdOHVhRxzlVD0+eostq+bR5oobgDNqWnMw2AJnu9dMuyeTkLjz+bJpLsvn+9/MZM3so6gpMhOQeKTCZNXEc8lvlUWRJLTdu/Xb5q1hJxJrivJyqrDlsWLedBqXlPDayy9pyR3U1oYAKYDqHlxhqfULTxfi4X2MXTjffY2NyxzKlU0SKgS9B9sraTBwBzJdaPek0OFJp8OdTafbTKckEvMksaVsMrdcnMHSmbKKT1RDe5NF3O2SVWsoTEJriTQUDjT99cijaNyAgtTMKvt4Fs49m8cfeYjdH2tueIOxM+AcLI+D8Ux9+wdP8vUvf98//sKmpXY63AmEJNuH76QozjcHgyyaU4Mzi053Gp3y3JdGizeTTeWncl1xNmtmHaOC4vyONDXEyzy0sTCZRgFUYuMjmnZdXotoEminAE9QG/sVzvEsnTeDH19Xzxuv/m2I9HWpDbl8mD+NOc2py3PPq8+ycfEctktCWN8xhHzDJfIaDM2BaL8v8l41rHvMdHgyFJztHkmXk057aTLbSsexvvQbKu/SytlHUO1IIWAXQFMGtGcEmAJppMbUz9V81ToAaKMznUrnBJbM/QaLL/8vnnvq8bCohgNz6Ldel+rhdYwunMPIShf1jpcf46FFp/Co+3g6vCbafYfStr4/0KfS7smgw5NGuyeVkDdNreKDviSay5JYXzpe7YFWFIzEXyT29WQabZoWFVDVsF2YpNKCq+dybUiTYV3NV8OOJWIarbVlUyda1D6RB3/QSM/OjzQpqvlnt6q7JLWXVOU6dZQkZLpUhxF4DF+KKpxDv9/6czFsfvJikPULJ/KY+yg6vSY6vP9JmMb+QPafvkdbsbd702j3CpzSkmmTEoi+kWwtzWFd6WSunZvI6jlHEig20ygeS2EAFXSFSfhlmB8CpTzXwBzwsleLJllYSWx94fFUW9JYah3Pf1ct4uVnfhXhyqwbP8UAKpn6wounGIZwX7cWNTgFxEibun6uvuM9e/jwhWbWl43jFy4T2z0CZ7QdP/aGWANSBzOVdl8y7b4U2n1mgt5UtpSN5sFFp1BnP4Ia64kHDGf/Kj4cCqLFK4ll6UgCBSOpLshkWeFEld++5cHbw/lDVXoHPURQ2x/dV+/H+PXYhJMe3vjNgzzgG3NYwSmwtnuT6fAl0e49gRZfEpvLR3N3yWgqzjRRNydOacmARdOYojU/T3MOhbPeJibQOOqtI2goHEVjYQp1BWmssqRTahnHLYGV/PO1F+nbI7WW+vhs9x5lq1df+BgHcbjbixqccjP6MB551G6ym1cf+xkPekfzC9dRbPccSYeKL99be32Rhc0X/dmhmlOHs90bT5vveIKl8WzzpdNSNpF7r5xI9azjFYwB8QMVQMNNH8Ijj0PB1J6LU7Ns5EtlEAmmS6VebeynUOEYzWLnNBrKLuL3jz4Ce/4VlvDgKacu6+FgiLVrUYVzeGGI+Lp4qfUHrPfk8ZjrODo9J6I6PEY24XWoh4NT5p0hcY4uHUWwNIE2XxrtJZk84p3Kz9ynU3vuUdTNkZxMYoeXzXndi37I/DIiqnMAVM3TXqCsdmRQ7ZRkY9r8VJyaK+y5LC3IYUnxqfz0O9XsePtVzfkugshB06fhOyBmrsYonHv4y5Zb2OQaHYZzFO1eyfce65oziZAvUcEpgLaX6qHHqQRdGbS4xnDPFROoOfsI6qWynOQFHTYWaV+gpin/UC0bs+ZDKpWSNXjluZbwodaeS6U1l1u9c3jz948NOIiG/UTDS6WYgXBfNxKDcMp3excvPHgtm0vyeGzBCXR64g4TOKXEdmTT4JQvlSRuCLnS2Ooez+2XjGb56Saqz0+k1pLab28X0HQ7+wB0OnxylLglvYW9oCLg1PxHJaZeQkQyqS1Io+6bZ9Py8zvo+vBdNcwLmJLRaSAOdF9oRP96dOHUh5vIo9r+2Mkf7qpli8BZMooOT7zmphbzmnNg5a4P+Zq2lwwjCQRd8Sr1TXP5NL5/6RhWzziSWoukWpQsyoObQDownO/PuWhV3cE5nTpLGg32POqcE1lZdCrfXVHCO688p7A04NyfL14klPq5wNn9KU/fUUmzZxyPlcR9BeCUMjQjCbmPJeQ9XtVKaimdwm3z0qiaaaLGktDvNqdD+kXh1EDNICAZSiyZVNrHsnTudJ791Tb69rwf1p/700nRe08Mas4e2PMxT966lBbvOB5zCZxSsnpgiIyVuaeuHT/vqN2rFPKSorEnEPIcr2omtbky2erK54cXmVlxzpHK17NaQZqiUn0LpF9Ec+paVDk+WyQqNI+K4gksKp7Evd9dwYdvvrif1InWiM4j9uDs64HPPuCX3yml1Z3Po6rQqlhjJPFWrC+I9jWsy32LP6gAKhU+Emh3JbHdnckW32Ru/GYey6WyhySodSRT65AhXluZqyS2kshWtaHA6jHzcpRyNea9msAZEDit2dRKkgdHOpUXjqbhqgt49pnf7EWdPoBpSMr/sgaIDqDRhXMv0YgseuBf7/JUk4t2dz7bxSvJaybk/byS1rEF7b6/RLLjIPWRUuhYkEpHSTat7rFs8k3hGmc8a84/kjrHSVSrKE1xGMkYgM0mMUqRiyAJR5b0N3qT5zrEA0fxxlce+VYJvpM04jLHTWN1UT5u2xQ2/PhWej6RTXttoSTzUX1OKilvtTjQ6AAag3B2w0dv8UT1JXS6RtMhZQMFzMMeTpmWaAkapAR3Z4mZjpIc2tw5bHWns6FsGtc7R7JyllQ4lrgiLZudlqhBA0ttuisnEEleG68lc5CEDnKuKtAN2OQjN/S1cw1S/bzWns2a4okssZ/KD2qv5tXn/wQ9vcoUP7AXKme6rV7OD+0jNuF8/x90Xl1EpyuPDu9XBc6BNODtLvMAnK50WjwJNLtz2bDwLBrnjWHxzKNZPnsEa+YkUm2VhLWZ1NgyqLXLprtkDpG4I1lE6U2yLafgl5ilYZquPbVjGg2S8MGaRb19NFWOPFYWT2Zh0ek8tv7nINMqaeHs9gNwHvqhPTbh/OhN2pc56FiQo4XiSrzOYa85h4cz5M6m1ZPONs94HnBPZ8XMUZSdcSS+M47CPf0I3KeZVCs5xYTrVBOe00xcNeMYFp19HEvOOZFVFrGtm1ljMVNpNVNly6DGkaVqeMp5tWzMq5I1WdQ5srVmy0KS4EqTaiE1znSq5k5gzdyzuKP2arreeUOba/Z2h+OUojPtjEE4u+CdvxJcPEeZ/SQVYZs3HFAWYwuifc8th5sDp9HmzlQVPgZrznya3RO461vjqD/3OKoK0vAXj6eueCw1RXn9TaIy11jNVAiIBSmsOi+BFbNGsWTG0SyZcQxLZhzF4rNMLDozop0lIB/BorOPYvE5x7J01gksm30SV88eyeo5CVQVplJTmEGNJY9q23hqiqexcPZErl/k5oVfdMCuXQOuY4decUY5BeJwUxipsf73P9Fc/g3aJTW2+HF6JRxX5mvDdfrhck3y0mcRcqcjcHaUZNDmGsM2z1Tu+a+xrJpuoqbQTGNxLn77aOrtOdQ7zP0tUJShzv2ODPz2DAKOrP7WIOeSN9QhQ3UGtTazajV2M9WOdFZbk7m6II5lc0awcOYRlJ1lonS6Ce/JJrxTjqRs6gjKpo2ibPoxlJ5txjVrGi7LTO684Xr+9f/eH/DQGa6/vsRrMag5P2PHS0+w2TeN9tI0gmXH01YqNuvDG86gJ01VjZMS2wJn0JXDBu80/nuumYqzxJ0umcaiLBqLzDQ4Mwg4s6gXEJ2Z+NW5HDNV1mTJnDy0SbpFlUBsuNccmfgjrsu5vF9avT2bOnuOymdfaTOzypmPa3YeF52ZzUWzTub5p8WR+dAvhoT5GIRzJ+//sYWN7nzay5JoWXg0rWUJtIWdKA5f7SlzTjMCaYsvl82+iXzXmUDV2SbN7GhLp8GRTqMzhQanBqiCJwKqoUBGPheNGrCn45cmRb70phKLSXKxwW2t1cx1BWaaJDOJI5PauTmsmZfL0gum0HT1lbRv+hnvvyVeTdp43huFUI8YhHMHb//6IdZdmU7HwkS2LTyClnJxP5Nsw4fLED74PrWAuHRCrkweKc1l48KJNJxrov6cI7hGhmRbBo3ObBod6ax1pNDoMNOgYBus8SJhHHouMEog3f62aywp3Hh+ItcWSg77HFYU5bPy0tPZ9sD3+OSDtwaZN6OjN2NSc+7gtV/cy4NXpBEqH3nYwykxRgJnqzeTLZ4xPFA2hQaLidXnisZMUFmQ19qzaHRI+/Lh1EyiqQQcCdTYjqbCmcWKC07n9qZaPnj1tb1mkKI3o7AWUvcRe5qzbwcvNP+AB69Ioa30JFoWHkVrWdxhqzklnkimItvKx/PT+flUnm2itvB46m0j8TviaLAnsy84ZT9SzSPD80M1T9zHMD+gOSWzsj6E761JlRXJnspKWyaV88/l3u9W8eofnwS9mEJYTQ4AGT08YwJOFSAYloZUCn7mgSbWX5mqVuqtZcfQVhpHmy8Wh3XNHKmKbknhLdWSlabUKsWl0iLV48rzuefKbFbONFFdEKfFsduTCDhPIuCIHwRnoyNVDeuNjgwarRlqw1zMmJFNFkqDmyyQMvBLGka1mtcWRxqkGqz1UgHZkcWagjTWWDL4YZWH11/5H9jz2YC27AMp39nTKwnuJGpTrEOSSEwMmod+cI8+nCrdTx8qo7GIqe9Tnr51OVuuTKPdfaKKxQn54gn5vnxPeK2KhvYl+LxzbVGmOXKIM0dkC3kkNU0Gj3mlZGEuW8pO4dZvZrL4FNGYcQQcAotoNBlaxX6eSsAu1wauSzUOiXFfa9WODRLvrjd7GlJKJnKbSVIo1hZlUl2cSXWRxLXn4LdlIVtMKh+9fTSrraNZXnQyjeWX8txjj2g56HUsh1vsKGWha039qP/AoTlGHU6BUm/qI/d9wm9vKueR+ZLmJY4On3jBxx8ST/jPA3Loa8PvGsgXKJWO0lyC7mbYHpwAABUVSURBVDw2uybygwsyqJLFjy1Zg9Kx91A7dBEjIGpwprLWGm62VC0pQ3jRI2lu6qU5zVp+T2cmtdIc2dQ6c6my51B7wXhWOcay5oLp3FG/kGcf3UqfSsIQHqbCjPUrhkPD3H7/lZiBs7dXGzb6+j7hyetdCs5HfclsL02hw5sYY3BKtQ2x+Oi13PWjmVaPpOXOY6NnEk2SVPYbJhos8ax16ppx/+FssqaiN4FUZQwZCqfaqJeNeSkWm0W9TcrK5FP1zWmU28ey/JKZ/HH7w/R+/PZewRmDlMJ+I3Po3hh1OOWj6kJS3+Cej2itnMe2knS2+5Lp9MkwGUuaM4WgN42gFIv1SI0irbW40mkV/0zPaO53j6OxwESlrMhFC1okH5LUa//3YMp7dM2pgynHz4dTLEN5NF0wlRrnRCovPoMql53Q+tvpFij7tBIyhw6rg/OXYg/OPe+xdXkBbd5cOj2JdPjMtEdFcwqEqVrzJBOUFq7sFvSa1dZQi0ecNvJo9Y6mzTeGVk8u91+RTe1sE5WzZSiPU95CDRapMLx/YEbC2WhLp1H2QFWT83StAJcjjf5hPaw5q4rGsdg2hQbvPNru+xEf/uNVVMbZPhmRtCwgBweZQ/dbYgLOQR9397tsXjRTVU2TOpQhb0Y4ovFQL4g0DSmVNLTqwpovplY8S4bvLFo8ObR6xtHincBWdz73XxrP2nNMBMTCU5SM3yF+lon4rRIGLCvu/QNUW/zIdlAmAVu21uyZNNhkFS6rci2PvNTirC7KpbpoNMsvOIW7v7+Wj958RUvmNUioYRc43R1OHSWP0qA3xdyTmIGzf1L+6T/Y4D2ZbSVmQgJGaRYhn4TbHmo4xcoTdhCW7SB3NiGXNM2zSJ4HS8bQ5plCS/mZ3H7JGFacYVKOv7La9jslzDeBgCMpYlW+f3CqLSABUYGZQ8AmLRu/cgbJor44h8qiMSx3TmbN5QU88L1G3nvtzwNwde8O+2Xqq2wBUfw0JQudtMMjwVfMwNkv2XdfZt2V+bSUiEdSBsGyPNp84jIXDTiTlT1cfC7bXdnKk6izJIV2l1zPocU9mS3ek7nFOZIKiaK0j1LZ5BrUfqNUdtPh1AHdXzhl8SSRk1kE7Nmq+e251NnHUO0cx6riSVR+61x+9p0K/vqnX0Ov7FWGAezpBmkKQB1CgVQHVCANX+8XemyexBycvf94noeukK0YCc3IorVsrErpEj04xSaeS0dJuqrF3umKp8OdTIsnn03eU7nRcQyVs0xUO0dS50yk3pmCv0g2w2VYFyj1piWR3d+hXbSn7FEGHOI6l0etYyxVzimsmDudm1e7ee25p2CP1Cvq0XLFC18CXW8ffWoXXS9moNsfw4CqzXSZh8b4mB5LXkn6VtI///QY66/Ioc2TqeBsKR0TNThlAdTmMdPuylJgSonBlpJkmkvHs849mWvmHE31eSZqnaOoKU5SXuV+Rwr1zuRwS6LeqTW5vj9gSiUOeZ9k7aiz5VLrHMcaxxRWFJ/FbdWLePlpyWg8kK+jZ5j0m/ruR2zqw/2/q5jQnJEGird+G2T9t7MIebM1zemLNpxphFwZdLokMUI6zWUTubdkMvWzTKyeaaLBIUN3oqYhJZzXkdoPZD+YziQGwynD9ud7EdU58lhRKEP4dG5eXsLTwS10f/heWOPtQ+spa1s4q9w+3rL/aET/nbEBZ4QcXn98E+svkxV6NiFPJkHv6HDW4EM/52yVrSNJqe1OU63ZN5Y7v5VN5TdM1EkqQkci1xZncI0tmSZrIg2S8c2Rgt+ZPNAcyQSkDTJTag4dA4AK1GKSzKDWkaUsPEsLRrP60kJ+t209PR+8o0loWODCqlNek1OZTuqjdviaGsGH/dkIwcfgaRTh1CUXOfvp4s9bb+ehy9II+TKRQgDtnpywhUiqpw32k/xynksZwXhafdJkb1PyHCWxpXQyP7ksn1XfMFFTcDR+WfzYxOUtgQZrAo22JBrtSQrQBimSFdlsZhrUHqU4c+TQYM1VK/BGSy6N4uxrj6e+KIuK4vEsdU6jZr6NtgfvoGeXFk8+QFsMEvQl3lKU4dRMltoXXf7fxR8fuImNl4m7nORaT6bTnUmHVypqjPpS4ZT5Zas3iZBYozwjkMA6yUzcrEoITuIm+wgqxN3NLnE+Kawt0mBUQNoSFJhy3mjTChOIqXGgST74dBqtmTRas2mwytZQLgFrPnX2fFbZclhkGUNNiZ0Nt9+kbQv1iFXn6/2IIpwCo2wOa85YPXTTx06evL2eTd9OUf6bYhmSIlTtvhMJ+UZ+qXDKEL5N0mV7ZDUu1YFHsa00nU3lk7jOPpKKc44mUJSr3M4CAqE9sR9I0Z4KzH3CKSZJse6IC1wmAYf8njFUOyaxqvhUll40k4fvvImPJSyi6zP6evbQK2G5X/NH9OHs0xOeyP7bDh6/rZqt8zNVzNChhFPMky2eRNolw4h4rvtGs841huoZJladdwL1xbnUKr9KsxqylYZUkA5o0H1pzoBKJZOuil3JnLKyaCwr501j+cUzuKVuGe/8/RXo0QqwCo8DE56vN51RhFO6YMiw3v0x7TctpdWdQ5s3QTl8SIW0dsn64TtYFYNlYZXQ7xjcP291J9HqilO29Jbycdy/YDxrzzuW6vNOpLY4nWpZ0BRlItYfzTEjlbW2FNUiQRXPdu094kWkexKlK1e2NcVjWWIbw+ILpvOT71Tw0h+egF5j+N7XVzDKcGpLSO1/4LP3aFnrpt2TrdLQdHri6XRLEVQte1s/SF9gYRSSktTKQTiJoJgnVTy8xMWLp1EWbYsmc3/JWFaeZqJ6dpqKH68r0vYqG5ypNNhSwtDp7myaU3CD1BhSK/JU/JK+0JqkoikDdnH6zaWyaDw+x2R+cs1y/vbCU9Czcx99on9p+6Wyj/d99S9HEc7w1ke//gQ+fZOW+m/T6ZbKaEnKK0ngVPkvD1LcekjSD7pH0epNZVupmW1lqbR6jmFbWQ6bFp7GHd/KoX6mSQHot2cjibQaHPHhvUzZz4ynQc0tU2iyptFkkYVONgHrGPy2MSo+vGFuCtWOeGqK86hyTKF27lnULZjLrzq3QLeswGU+qY0aeyMmUBpgilxiC84P/87m1UU86kpWqQ8l/aFU5NVqm2uBYl9Me4rWHEnIcxxt3uMIekcRLM9gW3kWWxZO5fsXZlN9lolGS4LaEpJwCNlUl0hFMUXq5kgZumXIXmtNp8maQZMlkyZLFk0WbSUuSQoqnWNZMe9Ublrj5angenZ9+JZW8k/ZuPcF5t6ofp2vRB/OSPPbe3/loSXn8YuSUSqj8aPuODoPagpE2cM8jmCpiQ5VFU5qBeWwsWwiN1qPpebMI1grKWFs5n6buACpWXrEVq7H/IgDh7wvkyZHjkpMcI0llWsK0qgvHMPKwpNpnD+X5x9voXvPx3Qz2Nm3Z48EjBmPfyeBmIKz960/s27RrC8RziSCvhNpKTPR5j2Cbd501rsm0FhwFCvPNBEoSGetLVvB2WDXhnDRmprzhti8U1QorxaclkFDUQ6Bojz8xfn4502k2jGWyssK+NkPb+HD/yeJCbRH/yCtj9j9F/R3GMfhJBB9OCNmWHv+/gc2LP4y4ZTCqWL5OYnmsizuuTKLwJyjqTr/ROqsYsXJoUEWMHbZLhItqTXtXIsB0s7F3JimClRVOXNYeH4WDb65bLvru7z+5z8MkrOKsB0KpQHnIBnt60lMwKndXB87XvoVGxfN5BclcTzqimO7Oz48rJtpU8kJZBsoskWaM8UxeGjTk3/JNlQCbW6xlWfQ7M3jnitzWHm6iTWFkoBVcgxJWhjxnRRvcy3nkPhUysa5DPNaggPNC11iw2ud2SwrNLPEMY4Hbq3jw7depbdrZzjxqh4XpTlhKMcWmWYaUO6Lw2GvRxfOQbfUzVtPbWSd7+QIMOPVllKbrNTVaj0yRlxs7ZHOIBINKR7rehOPdXG9kyQHJ9Ip5f5cZraWn8qPvj2VmnOPRrZ/ApJHXYVPiAVHwNQSE0iiVVmtN9iyaLJmco09m6bifOqKxlA7N59lF57Jtf41vPj8M+GVt6zAxeI1EOqsu67px0Ef13jybyUQI3CKStnD20+tY33p1LDGjA9HXSbQWppKUGWZE/u63gTUCDgll2dEqG7IlU6HS4ocJNLqS+LhkjgeWjCa2y7MYuUZJmoLUmlw5qiEWZKZTdeSA8kN0tQGe5MljbWF6dQWZLPSOoHFF8zgnptqeOF3j9PVtVsJuE9BKapRU486jEOP/7Y3jDcMkkCMwCmduoe3fnU/60snKzi1cGDNMtQqe5EHCKcqCuDSgtS2luWxYeE0ms43US3ubnOSqS00UysVz8KpXVRC1n7zpGy0J9JkjVPbRTUFY1h+3ngaSi/lhWeeYveuHfQqvzSRpT6hNOAcRNZBeBIjcMpwuJvXH7uLh8om0+nWqrbpZssDhTPkyVDxR63eDLaWTWJD+XSuKTieihkmmpwZWv1IR6ZK0Ko0pUNyY2aq9C1aktUsah051DlHs9I5nbWLyvldqEU5ZagNdBUkJvc8AOQApAehV4xfoSQQdTi1NYJ08i7+0vJ9NpRNotM1gg7XyCHDuixuxCaut0St2KlYkNxS+FRCeNMJemQoT1eLnk0Lp/Jz18n4Z5qommGiwSqlpEdqYRDh5KqSu8ivMgln0uDMpK5oNBXFk1lsn8YNiy/j6daH2fX+RxouKnhsTzj0VodT15z60SDrYEkgNuBUaeY+4382XM/msolsLxlBp2skYluXUi9BmXP69q7gJkBK3ngpOiXnAuY2r5kWbxYPl03hZ6Vn0GTPov68FJrEXc0+UjNFqkWPLHzSaHCm4y/KpK44l5rifNbMm8rSC8+mY8PP+eyf74BsmMt3pzsc1djbFc6+pi1+DlZHGL9nbwlEDU5dz0i/q2lbz2e8eH8TLaUT2F4ycmBR9G/gDLnNqOZKptWdQnNpFpsXTeb2BRNZdtbRVJyXQoMjT6UZbAhvEal0gTYpPJWC3y4Fp1JZbM1lscvBpp9/n88+kLxC4ftS5cwkwlHlBQzHfxtgagL6cv+PKpwCpnSzgrN7J8/fWUXQm8+jJSP6t5OkgpvErWv7nFrWDa0Smr51JEm0zEqDtnqz2VI+ie/9V5LK7FZ1Xjy1hWJqzETyXQbClSikzF6NLZMKWxaVxeNovPxsNv1kLa/9/Tn6kBjwCEdfucn+FhlB9uV2jPHbo+j4IZpT+lxhIE+6dvL7Hyyj1ZU9xHwpuTnDcEZsFQ1sG2Wo+j6SUOsR30S+M8dEhaSEsclKW2J7xMpjRpKn1juzVO7KGnsua5xjWVY0hQduruSDV/8IPR+Hc1Zq20N7wRHJpdyv8fjSJRB1zdkP555/8cz3lhB05x4QnArKkjwe8k3ievvxVM0+Ab9FMrslca3lRBpsSao8X5VjDBXFk1h9wWmsufRc7rp+DW+9KBvoetZePYOvPFf6/EsXvvEHPl8CUYNTbksUUP+wvusTnrrRQ9CdNQROqX2ppaYZ0JZ6PkxZAOWzzjWRxtkmas+TXOuZBKyayTFgTVbD92p7PkvtU7j64nP4Xv0ynnvqUXr7k6j2iE1H/RvYDhqsGuXZ0Pb5YjVePRgSiCqc8gFkaFf/7fyAx6+5TM0ff1ESz6OueOXTKWkQtUxzGYTcWi2fNsmN6ZUMb7lsLpuCf5aJQGEiax05NEpuIYsUL81EtOUq50SWFJ3KDSu9/OWZX9L72ad7yU0Hb68Xwhf014ce9/V+4/rBkUB04dR9OSWr8cdvEqqxq+Ay5WzskrDgFDo8kiMzSzl1dLqOUTHkm+en0XzVKfz0kkwqTpHMwQmsdWSxVhw1LInUFyZQZc9jWdEpXHvVJfzpFy367PbgSM34LYdEAlGHU42XvT3wz1dprZiNxPhsd6X0gyl1fFp92QSlAIA7gRbfaDaXTeUnl+QQmHWkmls2OcXak0udU5JdTaD6wuncvOxyOjfczWfv/l/YA/2QyNP4IwdRAtGDU8ZIGdPVsZuuN/+X5hVnEfKOYntYY3Z4zWq+2eLLptmbw8ML0tlcNo2bbcez6gwT9ZZM6ixSlFSq605k9dzp1Lsu4MmtD7Dz3TegSwu37es2FjgHkZlD9qtiBs6et19iy9LTVIyPDme75CnySq3ILLaWjuPh8lO42T5K2cgb506ituhkVlmnUHnhDCq/Vci9NzWw+13xQBcYI3yF1MQ2/EU4ZKI1/tAXlUCMwNnDzteeY+NVJ6sw4O2uDDrcGbSLb6YnmdbSHB64MpsbbXFUzTyWWtsYKp3TWOU8g9r5F7Duh7fw1ksvaI4Z3VLlSZKnyoQ2nCRVuaMbcH5RWA71z0cdThnVJRX0+3/+Net9k+nwZvKoK48OV65KdS1Wn4euSCZwpomKmSOptuazbM54rrKcxvqbG/n4//5GX3dYNYqJUYCUOaxqAqmeyfdQi9b4e19UAjEC527eeTbIet9YJMPH4/NzaF+QxzbPJO66JFvzKpqdyKrCiayZ+w1uXVXO68/+DpSW/Lz5pL7580XFZPx8NCQQXThFqakF0S7eenIdG640s70khe3zR9NaMokfFaVRc248lfbxrLnwLH7aeDUvPhmCf0kSVZla6pPJgU1yuay0sfYO4//DWAJRh1OR1LOT/2u/g4culQxvubT6TuVHjlSWTzOxdM5kbljm4eVnnlDpaohwzOjuTwKmLYEGUD2Me8S49X4JRBXO/gy8vR/zSvCH3Dd/LJuumkG9PZfF52YQKCnm0Y0P0rNTT3YVEUQWYXAUKA1t2d+nX5mT6MHZD5Tk5fyAJzfdwK2uU1l2fhI1nrk8sfXn7H7vzf0StJoZ9P++/foR402HgQSiCKeO1C76+Ii7b6vEbR/NlrtvZOcn/wxbdcL2TXnrv1GNoj11Dfpv3noYdItxiyKBKMKpd4Ag1cMzTz/JG6+9HL6o0xiBWcSp/pORx8if+Ddvjfwx4zyGJRADcMawdIxbi6oEYgZOSUBgPAwJRErAgDNSGsZ5TEnAgDOmusO4mUgJxAyckTdlnBsSEAkYcBocxKwEDDhjtmuMGzPgNBiIWQkYcMZs1xg3ZsBpMBCzEjDgjNmuMW7MgNNgIGYlYMAZs11j3JgBp8FAzErAgDNmu8a4MQNOg4GYlYABZ8x2jXFjBpwGAzErAQPOmO0a48YMOA0GYlYCBpwx2zXGjf1/mlQNbx64LE0AAAAASUVORK5CYII=;" vertex="1" parent="1">
          <mxGeometry x="988" y="961.69" width="74.09" height="72.31" as="geometry" />
        </mxCell>
        <mxCell id="KFGAFjV_gYXadnEVJTAJ-445" value="https://grid.space/kiri/#" style="shape=image;verticalLabelPosition=bottom;labelBackgroundColor=#ffffff;verticalAlign=top;aspect=fixed;imageAspect=0;image=data:image/png,iVBORw0KGgoAAAANSUhEUgAAAVQAAAFPCAYAAAASgzbtAAAgAElEQVR4Aezd2bMlV3bf9/PmsEOSKVMcFbIcwf/GFnsgKVmhB3n4L0iRrabtUIQfbD1JtCJoBdnsbjQKUwGFQqFQqEIBqMLQAHqeSXY32c2ZzUmT5+P4novfxap197D2kHny3KqHjLX3zp158uTJ/Ny1M/Ocu7t69er+13/916dMn/jEJ/aR6bHHHts//vjj1b70Y7py5cr+qaeeOsTPfOYze6bf+I3f6JqeeOKJC8t/8pOf3C81fepTn9oz8T6eeeaZQ1ltvZH3zz7hvfD5MVHWe/v0pz+9t5Pm2bZIWft/JL7xxhuH911ahz7TGZHjhOnatWuHiX1DnX3AMbfG9Oyzz+6ffvrpw2vxOa01cXw999xz56+nz51I+0svvbR/9dVX92+//fYhUmey/XrL/jhMrefJJ5/cz56ef/75/TvvvLMn9qybfcbnxXTjxo3DpDrztE4dVzayT3ld27Z75ZVXVsVU4OoEUx3Q1KYN5ECkDXh6AU0tx8EOKMxbClLW68HUieXba3Utx34RELRx0EZgpA/LtvRnGX0eI5GDElRz6xhBlH2gY4WDm0l13qvKeo01MNVrcFLy3vXZrRV5TfbDzZs3FwU0BWYNVeE0O7agyrkvMD2gue3ScZSKHtWddsJolioYo5ETjDfAAaiokw5gtJ4UiKNtnGAcEEtimgKV96UTK4co+0B9ODmY+CBpY7u1XBRS24/PmnXYtlxZn8WM+MILL+zv3LmTRFXYRSL7gH0hNCygueV1Egi6NaOyJn2eS0YAZSL7vHfv3gFTsk/2UQq/pdrkSWr9ObBmtOdQFaCMWDgOmQRq9HV1DOWiRXUHpGSpHJC9qAq/XAQXnZh6EzqwqeeWo30Uz9zyvF+2YSlUBV8q8p45uZgnQGkToDrxmJdanrYchKV23jMHfKmP5unzmhV1MNv15RBUuw5gAao/LrSrTyTynjUE13G3RuQzXQJVTmALKIiqzjyOH97z2pgK0RSq7IulJ/Y1oyGONQFKbAXUb6eOw1IUqgdQ2QGkvz2gpjDUScNBq41TG4DZZdRu21TOYTijne3gAFgC1RyCtHOws0+EJ2UBWlrOzhN6PZH3zIFRWlafyezoUbUYsg90wHJwMglQ5tm+rWU+47VR1WfK5zuKKvtCYIJnClC9HtHCxrKqrxk9qnJgdhSWFtDXX3/9MCKa8Vo6JiORfX0AFUi1A1pRtdmnACXqZBSOpaj+vs8MOHPrYLtBhcyF8sxJ+LEPdKALUNWJfODq2xJLGEbm6cTK9dVnt0Rk6A+svH8dpByITKozrxXNUn+OLyZOOt676ktG+znz2YOqbSuV2RcAam8gCdTScpqnz5eo89q2rVW2rz0DN9aRAlRt9jVA9datW+cJnZ3XUtYxGY3noALp3bt3DwdbCVVBxMGoDdOJxzyPYqTOcmyw7ZuDcEa7xZP3wQFm23rLApT94gFlnkdTJ4BvL9VzCLa266Tyy+mznB11rLBfXn755cOkg7SE4Yx5gpP3vAaq+lxt5H1z4ts2lYVlL6Baj6I+W0ULm9rWirw271uff2sUljYDpY1EqLauGajqGI3GB0Dlzb/44osPDP11wglQotosgKNlncCsZwaapXV4MHXC+fZaXcvxwXLCEHVQl1C087SMbSuVte9nRA5MTiy7Ln0Oo1EHO/uFjMvuH8p6nGoGmKV16DNS5ETk5FR9iahjwEfeN/tcgL711lt7JiCljf3kl2mt56A8JqpCUcdEKaqvLg/xWdEWATS13hFUo4jafg+ACkI64PTB6GQDF5u5jgKaWp6DhxO5hOHovBySvG9Ortx89oNOPvqqP21sM8uVICzN40RjHaU+zNNnMSuy7RysWl8voqxHB7NOCNX1mdp1AyDX7EG1hOGMefrMbOSzAxjbNqvsAWR/WEA5wcGCNub5/qN1nbepeAxUdRz448K3C1D14zNSn9HYi6qFMlrecTJx4PIBEKnXhv4pDGe1seGjaOaWz2FJO++bD1F9dIKxX2gnqk19fKyBmJvPSQSquflqF3wzo94f67TolcrsBw5y9otOAB30zCstyzxBCapcU1V9dtTnlYpsO1Nq3kgb+8MCSgaqOvP0WfN5j+Lpl+ezrE1ro6rjgki2qYxzSUDta6rcg2oUUdvvACoA2eyTne6H/nb+LDxT69FJlUNxpN0DqDqYcBIJlyigWp4o9HqjTo7c8jMR9evifXPg5SDUQSlAiWrLLZNr1+erqIerVZ8ZazDyPphq/UrzQZJzhSQEPIkCVJ9pKgLqbFRrmGr+WqjqeGEfCVChao8hHUtLxxZULZIt5QeG/BZN7XTbRjmF4Kw2YamTSvUZ0eInQDlRcieV7R8p5yBsadeJl1rGIzi7roOZfaIyJwKTDn7m5aCMtuuztXEJVEsI2nm5z9/2sWXw9ICqTZ9fNM5GVWBGos7vSN9oH/al1itAdQzpmCKm2uz8JctRVFsQtX2zoIInf22PASqAspHAMgNTTl5OCg4MPnSiTpIUlvQBrNS8VFsKwN42DkhOSLv8bDzt+tgPOoD9gc68KJSRfhZRX2boD6y+vbeuzzcS2ed85qm+wtJmoLSxr3z/KKS2H+uZkalG0bP9uAnGe7dtLWUBStYJoESBynp0XKWiP9ZSfZZq43Gq0iNVFsjWchFU7RyhOisTTa3Hw8mJxIHn22t1INJJyAfOxIfLwR9Fkr4sl8Iz1WbxGy2z7ex3rcfiN6OsE4b3x0FN1IHL+xYUESBb++hzycVZd/49dJE6+xwQBKjuwKuu/ZJbl0Wytcy6R1HV59oaW1AFF/YTy1y/fv0CoP61dVzlIu+bKTd/yfYSqq2Iqj/7pQgqkArVFIKz2nJI6sTLzaddgHIQ88YAQssBEH1SCNbadOLU+gm+mVHvhXWOIqqDnH3Dwcv+URvr9ihyENPHt4/W9ZmUIqi8+eab559fqW9pnj67WuTYFpgASpkTjci+qi1v57ci6vvzer2o6vPsjTlUde4LUPWjvfZaUQx530zR/jP75VAVkLXI/mDSJSvKVVA19J+FZ2o9JTB5U5w86qMTSegQ1aY+NtZALM3XCZPrMxNRvy7eFwdtC6jsBx3oOhlUZ15qXSkoddCm5vW26TOqRQ5O/bZErW9qvj6zVBSgrB+4iQKV/uwrstTUsqU2j2NPnX3e+xVVfcYjUTiwjyiTgRKpcw62rlvHUCRuCdUSotpHFlDa+EOo5UKg6g2nMBxts/j5MshwcGpjiTqJmOf7+3oOwpZ2sjUgSi3jEZxd5/1yIKcgpI19wXz6RQG16yrhqBOh1Cc6T59ZNOqAjfa3/Sx8wjIHqO2rMp83+1L1SOwBNLVML6qt2Km/jhkLKGUdd+rXGnXstEQZ07LMrL42U+W9M4FkBFD1VwyBCpp6w6OA+uUtgjoxhCiRNh18tm+knEKwtY0TigPKLzcbT78+wcdBzz6grgObD492otrUvyXWQAQXDtpav9p8fa4tsQfVHKCtQLagqmNzVmR/t2Sq+vwjUYCSfTKpbo8jEKE9sr5cn17oZEzv8iPLcVOUx914/zr2BKqwjMQqqBZA7nTa+mhZJxgHIxtLVJsHU/N8e67uARypK0ux6/AAzq6zHzhg2S/+wGdeC5ypvjUENZ+DnPevemvU59kTySw5uFPLsk904DN8ZxKozNNn1htBlam2/CxI7XrIjtjvti1XzqFmj5sSoKnl6c/yqXmRthHY1kJV+5jX03EEqNwY5b33TkVQPZh6s749UgccnYzaWJ0ozMvBqHb6sJzqtWjxm1HmIOHkYl2z8WR97AudNALUH7wpGHvb9FnUIu+bz73WLzdfn3FvFKopQHUiMI/11/BrnR9BVZ/Z7KgTvrRee3xwbui4aQXUrocy6+pFdQRTLStnVJ8RtT8toP51eN/8cA/PqlLumZpABU5tRA1RnWAcxGwYB4baWLYGYmq+TsrUPNs2A9DUOvhQZoHKvmCfsG84EbSPaEshqYM+Na+1TZ9DNHJAg0u0v/rp8+qJAlTZJ1GAptbXimW0v1C99uLH9rff/Mj+zlsf2X/te7v9zdc+fP4HsITeyDyON4adqXXouGE/eUB1rIxE1t+D6gz8WIec6V0fn5vWoeNG9dQ6eb+aRlDNgloC0w/9QUYnkTaWA5Y25vl1WfxayzqZSsulMJzRxnvi/fVkqDopWJ4Thag2u74Sjpw8vP9Sn8g8fVYtUZ9ryzL6rCJRB729gaQ2IqCW1hMFMtpPgILoV393dz6Bqaa77/7w+Weoz3J25Fhh4mQXsECna50cEyNwlpZtRVXHyKzIExcgGFmfBbT0La3cuoSpYi+qSVA9gL7OG+UNCBg2UidaClC/fAnDyDzeNAil+s6As7QOnTAWQV9mX6ifTgjVmef723oJREDhBCr1qc3T59QT+cztZ11aRwk/5glLbgaApR3ap5alP31S86JIlvqdAfrhQxZqAbVlQWrjy2/80P6Z5z92/nnrcx6N7GcLKIjaY6kE4cx5LajmsBppz6E6CqjfJkFqYw+qIVB14ghQIncimTyWtXoKwdY2TioOWL9cCcIZ8wQfHwavrzr7hzrt9qCnjXnqV4s1DJmvkyXSN9VHn2VvJGPg868tb+FjnwhQLvozqa6s2/bPlbWMn1+CMjdPgL71lb+5/8rvfJCBWkB92UKq8hd/e7cHVT7rkUnHDfuX84qoNtZryzoG1opCFcRyr+mBmlkXquwTpp4MtLQ9FlFfbkX1AqjAo5NFG6ETiHkCkw+ZH8ZVPRI9gCN1nVR2HTPQzK3DYsh+4QC3USeT7ddaTgGYatNBnZpXatPnOhI5FjioS+tg3wg/Dyjz9Nn1RK1Xy+bA9O233yT7/PBegIKoJg9nqi5AU7EHVQHJvrSAckzpWPJRy+jzXzPyhw/Icq8pK2bFVAYqWGe9htbjEfV1ocrn5Of5+g5AOAk5APUCOlksoCkw9RcjNS/VZvGbUWanc2KxrhyEM9rZNxzcOqC1n4itaOb6lyBMzeOD5OBOzcu16XMdjbxv9r3Ww37hZGP47gEVfDOjLg+wTg+n6h8A+jfO4RSgPqYA9W0pSG3bu9/Y7Z+//aEqhi2AelCp69ppDrYl20EV1FKvYc+JnnIKUPmi9S0BqgcxVwfTd9555/DHL9eH9h0HoE7AFIK1Np7d4o3X+s0A1K+DE4oPYiao7AudlAJUBzaAWBDVbtt6y/oMopH33nI9VfjNiOCp3/wEUCDVMGwmnKV1cd2V96/P6uU3Prxn+vJ3P8g8PZypuoczVbdwpspf//5uz2RR1bHDicikOjjouOmJYLY1VAVeS4wAmlrfbFRLOPp5EVTPh/w1EHPzOSgiQ3+P4aw6Jx0nVW8mKkA5UPmQ+RB1kmqdJSQ5UdgHpT61eVFEfT+2mQ/dt6fqI5AKS2WgApQDjP1l111CcNa852780v7e5/7B/p2v/uMDoCCqKYVmqS0FqG9LIWrbBKpQvfnaz00D1KOr7HBLqKbg8229gPr1UJ+JqkezVq+hOgwq0Co1z6E7C8/cejjIoqgKSwGqZXPL1zDkgAfVWr/c/BR+LW06wUrLWPAiZQGq4bsA5X365TmxOchpnwWmX89zN35x//IbHzpMgjMXS3j6eR7OXN3imSpbUIVqafjvkYzW9VkTOfF7nhO16xgpa/ifAo82AQp+Op7kRG6ZlvYZqNbwzM0voXoANQdhS3tu6J9DcFY7WSSY8AEqo1SkXYAyn4mDiDbmqV8p5iC07TohbFu0XIIwOo8PnveV6+8RtHX2iQ54Aap6ClC7LGXeO6hS9hD21gXom1/+a+eZZw5Q2+7BrNVzgNr2FKC2zWOquh3+6/gYjR7ALaHKcQSYAlTg0dYCZUtfvUbLMrZvDsxIew7VXQuapb4cLKmh/yw4U+uxEApORQGqehRQu84oivTTydKyTA7AnnZdT/TLegAF6O3bt/f3798/TALU943WOUjBdwTQW/c/tG8F1GJKuQaonW/RLJUtnqmyAE3FN7+8m/aMqsdU9WOhKkB17Ai3JQG1GKqs11U9GiNo1vqkUJ0GKtgqpRe8KQRntglLDi4+YB1ktFsYe8otMKqvMjrVa9HjN1LnvbP//Tp0wAtQotqiYEb66eCLoAqeTG986a/tv/Sd3fnkgWypWywj5RKimpcC1LalEFXbN35vt2d67XNzUNWxnYr8MWWUkJo3q43zS8N8jh9BpnN+bUgtnNoW21Yr63gdjRZVzv+poAKpHfrPxJN16WTlIBGg4AkiQpN2lUdiDcPUfLJUPsjUPN/m4ZtRZ7/wi0tcW1saUIusPhcdnKor5gCdhekWs1OBynsEVY1gemIExdmo8ll6QKkzaXssWoLVtq1ZbkVVx+pIBFD+kGEez6oyQp8OKgcMKx7FFIB0QoIkk+oWUI8mwPKB+/aWusevpa4TprbMDEBZB3gyafgOqBxc7C+L3pJlfS5EDjJ+QARELZi1cks26vtGMlLbRxloKdpMNFVWJpqLApX4pW+PfZtKgNXiCKoCFCA4njiGPKD29VNYHhtVssVIptyLqABlH+kLJpSZWCe/UjUdVLJUvUgLqgIUkPSGdaL69dRw1KWAWr/c/BqGtfkcbLyPXL9eTEHSA6o687ReHVRLIqp1cwPp1v2fPkw1NHPzPZCtdYtlrVxC1M5LIWrbcpDSbjFV+b1vlh/81x/iVLSQ1colBO2yHlDO2eiyrCcFKm2ngKp8qcUaoKnlFwEVAMlS+ZA8hqoLSwFKVJv6pGIOQd8uYHx7rZ5DsLWdDwN0UssJvlqMAurXwx8UDmyhNzM++8I/GQbUwtqKp+9fA9TPt2jmyhbOXLkVVGDtQdUiGC2nYBwF1L52DlO1bxnVFIK2TclgKgO1/XLl6aAKQTZMQ39QEZbaEAHKPC0TiTUQNR9UAEn1aEwB2NOmPxR+WY+frbNvyDi5HsMQnuugykBtv1oZQDm4ef+jmArQN770HzcN4S2apbIHsqXusazVc4D69hyiau/BFFC/+fvtqFrIWsqCgcgxRExB27JO9RWcpbhVVOWPovZTL6Baj+JUUAUiiACoUmZeTKAyT/1aYxRF9Wsd+nv8RuugyqT1eAiFJYDeu3fvAKnafN9o3QKqA9621cov3fvpPdP9L/4niwBqcW3BM9W3Bqif7+HM1QVnLvaACqaaopmqAItEzjHAtIAKi8jy0T46piKx9UZRZJ0tffw1VfaR9okHFKuE4kicAqpOUmVlRAFaG/q3oCooWyJZGrDWlhF6syMfjlAVluBpAaVPFMxaP30Wirx/DkLVfbSA8qtJmix8S5VTSEbbPJa1eg5P355DVO0lTJmna6Y+ClPFCKol5DhmPKCpDBRAaC+tq2VeC2j0PTaqwAmsSwHq8e0CVSdlClAPJB+ohv5+Xku9BmJuPgBFhv5LQKoP8qWXXjoAKlBnAmqB1edio66nEmkXoIIzFZcC1K43CmeuXw1QP9/DmasLzlwsgeoRtXVBauNbX8k/o+qRiwLql6M+E9VWUNdGVZcadO5Rp8zk8VuiXgUVqHSCameqDkKRh/iVZrcAavvmsIy214b+MzDlw9EHpwxUdf7wcGBb/JYo63NR5PongPJTdik4c20WviXKOSSj7R7LSD0HqG3PIWrbe0C1iNryt/5gt8+hqmyTc4c/xEKxN9vU8ilwo206/3viUpmqB5RzjjaG8HY7aWcfLIGoXecFUAUoCGmDdIIyT4DaaPHLlV977bXDG8rNL7VH4Sz146DhPaX69IAqQO31TwHq1weeOmiXgJR18hkJUBDNYVlrXwJQv84onLl+EUBtH4tmqWzhTJV7MCVLtYjaMqCynYdvU73/v6M8oBxnOnZGIusB5pH1yYPeOANVAcq6NJxPAeq3Uefr0qjuhKUAJarNopkrlyC083gjoGrbIuUUgL1t/NXyy3r8cnVhGQHUr0OIKrtQfTRevU4G+vcON5BqUEbme/iWqOeQjLZbKKPlEqKalwLUt80EFUw18T5uv/2jh6xqBLwauCOoeqB6662oWkDtV159BlraHt63pqUz1cMPTAMo0OTQLLVHUFQfUGVSPRI9gCN1/lj4LNXjp7oAvXXr1vkNJNr4YNQnEi2a3KgDVdvWUp4NqEV2CTxT64zCmesXRVT9BGYtejx9vYQp8+z1Ulu2GaktC1PFz33r7NtUNRRH5/eiWgKrdR4w6mapX5Z2EAVeC2iuv18+VRemikuiemHIX8LTz4uA6Pu0DP1H8Mwta1EViHwIApSvjzGpzjz164keTJ0Qvj1VJ/s8y0D/o+4hvEUzV07Bt0RbDslou5BsiTVINd8D6uslUC2gvmwRtWVBaiOoXr/zoSlDfB1nqcgfdRKb1LxUWwqpkTZwFKo5QEF15DW0rBD1cSlUu0H1UEbrfJDc9a71z4E4o52dyZCBOBtQi24KSdp00Pr5awFqYV0CztQ6o2iW+rVASl9hWYsez1S9B1QLqC1bRG35N/9wt98iqsJpRhSggKpJw/oZ6/fr8JDa+hKorg4qkEaG/jPg1DrYyQwhGL4DKB8kO5PJAjiz7LH0dbIEAWqBW7Ocgm+pthKUkXmtmM4EtQdTMlWLqC1bRFUGU01rosp5oT/wqeiBaq0LUD+EB1GbqbauN9Lf4pkrz0a1C9RadhmZz9CfDzDVVxD2Rj48CyiQqo11AiePMumB+5mQal0XAL3+C0cH1GO9FJ5+vREwa31aQa1lpZqfykZ929qgrp2p6mbpDFAFKGBGMtAlUc0h6ttnono0UHND/x5EhaUyUAHKX7HU+oQew/4lUAXTqxsE1IJq0eNZSL65Y9tmlmtY1ua3YrpWdgq0/pqp6jYjtWVlpD4qO7WRz2Wta6opVCNZYCugqXUugapHs1afhWozqKmMsrctNfRPAWjb+CsqQHX9U/UcoHZ5YUoEU1C1bb3lZ57/hf3N1//L/f0vLnsDyaLYW7ZYfuqZ3f7OZz+YXv/8bs8EsDOQrWEZmd8KqrLPWvSZaKp+jOwUVH/rj84mUL16/WPFYXkqs2xtA1SPag4/XfOMZKCpdaTahGpqXk9bDdDU/BmoHp5D9Xfvc/VeOEvL2aG/hU9lCyh9mVoA1XqIKSx7h/7geSqAWngtptfu7Pb/8tc+wNTCassA25PFRrCs9WnFdGZ2CrAzQfVZqeo2K1VZoPJHgQf/W4Hs6W9RtYgtAahdv8q8Due26iMxBWakbQRVkrPz51BziNr2Eoy98+zQH/QEKE8CeEAtjj3lFKi08cHVhv6nCmgOU5AE0wioFlfK0Sy2hmVkfiuotazUzk9lpLathOnSw32BSmSbX37jh1dBVclK9BroCHqpZWegGoGz1CeKKoBqlK0fXzlkqLwxC2eq3AtmbTmBKkCJ+lB70Mwtk8OUdr7Y4If+AtSCdMplm5lSZqjfC6oHVsjaLDaCZa1PK6Zbzk65jqqM1EZlpDZaTFX+/G8uh6oyUw3hdf4xDE+ht3TbKKolLKPzcqh6QFXXeg/XUGtfNa2h2DJfG+AB1dA/B+JoewlUrn++/MaHDtMpo5nbdo+phvozQfXIKovlESCmGp6p+ccEdSvZqUD97T/e7UF1xk0qD6jqAMoIETDBFdiWxjO3/l5UBduMCKqCVRmo/Mqt//ymFG8MtGZmp3w42gAN31VnniDmdfmrCLKjcKaW95jqBhJZaA6hy9LuMbVD/SVB9cDaLDYC7DExnX3tNJedkqnazFRlIaoIppp6UBWY+vlI1QUo56KdsEA3iY6VpbINPajmoIu2yycg1Y+vUGYEG1nHOahkqVxH9KAKvUiMAmrXZQHUUMO2jZbBVICewh34mZB7TP1Qf21QPbKlLPZhAFWA2ihEbRSmijVUBSY42J/+AwQLZ6psM8atoApodrty5Qh4vk8KUNosoMpS/bKp+jmoQOqH/ha+VBmAeXEN38lCtYGp/qk2Dybr8G2t9aev/fzhDvy9L2z/EaaZgNp1RTEFVQ/dMesg+/ZXzy4TtKBqbzaVyvamU668xeG+MCV++092+y/81gfD/xFAPaoeK6Hq29esk6lGLj+kgPNtupFkM1APqF+GehTVB0AFVRZWluoBFJY3b948/Ao/UW2+b6SegrInS9UNpIcZUIspZQ+qv26q7HRroHrMfRabQ7aEqJ2XQ9S2l0DVg/upaB/gt2V7E8qWbWaqss1MVbaYClRQ5Q/PS6//3OEcBFXOXQ9kSz2HZM/QO7eu3vYaqikEaROgOKUhvMzKLZNrj6B6AVRlqYCoF54FqEU2hanaaqg+AvSD//3kIU1hmrpueiqgemCp+yzWglkrWzhT5RKmzEtBqjaLqC1bRFUWoDYKUBs9phZUoTrrwf8SdltHVQh6QEFUjqnPSKyh+gCo+ivAjyizIcpAGdpbDGeUhWcu2qG/AE3h8ajtQVx9Zpq7bnrKoHpk731ht2fi2iJTDtUUoL6tF1QLqC0LUB8tpCpbSFX2oIKon3jwfxTVEqaat1VUBSZmzQY0hW8J1R07iX+ixyRQ+SFkVjQDztQ6cojSruufdz/7M5f+DvzsPwYpTEtDfaHqgboMdYBlSGyB9Xim6iVQlYmmokXUlj2kqgtRG4WojTVQv/OnZ1nz6LephGYtyohavyXnAxqTB9TeSEpBOLMth+oBVF0zJQpA/Rto1WfFHKZXnvn5w9cbZyPzsKwvhWltqC9QdZ3yMkCaew/KYrmZw9SK6RaH+2SqgMrEe+r9NlUrfmujqtcTogKVOBPJ1nWlUH1gyO/R5AV47Mi3j9RzoN56c7d/5Z3d/t1vPDiEfVhAHHmfKUwjQ31ABVMtz8P1PCPKN55oz+F0WdpB9rNfO8MIkE4tO7WgCtWeB/9bQaW/kOtZtrYMmSbrt4BSp90umwKtFcXR/n4biqDOzlJzmL742g8dMAVUDvIRXB62ZYWhj5GhPl8/1XKpbyoJWJB9mLJYHUMW2NQwX212iG/LGhq7o1YAACAASURBVN77aIf5KtthvsqR4b4y1EP8wdm504KqBaq1PAtVHs1iXdyM5htaIBVZNxh60EaB7FnebsM5qLmscxaqOUyv3vyvzjG9++5uz0SGpIP6UczvC2HoI/hpOJ+LFlOWz4Gaan9Yslj+wN//4tmkfSxEFS2gvuwhpS5AbRSgNnpMqfubUQ9gytD/B2cT50wU1VZEfX8QBD/fXqoLUJbT7wdEAPXrFH4WNLWtHbUNVVCBlo3LgRttT4H6qSs/fwFTofoI0jyk7Bud4KmYQ9S2+6F+Cs5oG8Be9iwWXC8A++22f3OyFqjAGkHVA9Vbj6AqMEcAtdvnwRRovn3NOttwALWG4miWmsKUNkB94bWzrFSQKj7KUtOgpgC1bfZXpCygtszlAC0TRbO132XNYgWrjedZ7Ld3+y+9j2wqOx0B1Wen/vqphvzKUolcHy5lqhao0bL/MZXZgPrtS0G5BVR3NUw1nzcArKq3xByotD9zc7fnhpQgtfERqg+iKgRzcdZ101Y8c/3tt5ouWxZrQfVlgH3jS2c3WNk3wtUO81W2w3yVR4b7AvW7f7bbM4Fq6hlVD9RoXdc/FQUqw/vRdfvlU5iq7diohkEFUza6BVL6ljBl3tMv7vbXbqdBBddHQ/+zfZBDVO2R66ZkqTOH+jlIabeY2jInOBPoXIanBTymuTrAMmlfrAUqqKYe/PdItdYFpgDVsJ9MdQlE7fYJz1zk+dQ1n0m12xEGFRxbh/41TAUqWeqN19OoPspSPxieC89U3MpQX8gKDgEKJq++98HEH8vLAKp9DzlMc+3sE/5vF9/sUnZK9Blqz3BfGSqRDNk++G9xipZ1I8kD6vGkDqrR9bb2s3jlymB6LFSbQAVV3kQ0S20BFVTtcN+WH2ZUU3j6ti0N9XOAWkwpX0ZQhWsO0Fq7slh9dVawelBzd/f9cF+o/s6fn6GqB/8jiOUAJTOtLU8f4K3165mfQ9S3HwNVvrLfDGo0Sy1h+vjjj++Z+CWcp278xGHYX8pSOfkexqG/hzNVbx3qK4OcFbk2qiG8R7NUv8ygjsJq4QXZGaCCKjfMQDUFmQAFwxl34pdA1aNZqy+NKoAy3bt3b//uu+8eys2gRob+HlMByofGBKS08f/rrzz/o+egllB92LLUFJ6ptrWH+r2AelwfBlAFK9Ei2VJ+88vzQBWq1+98+IAq6M0CNIX0bFRrgKbmz0SVH+u2gAIpddr12l2g8nVUVpAb+ntAVQdQj60H9dHQP3bNFFwjmNJHEPdkpbMAfdhBFa4tmNKX3xwYyVBB1E6/+xdnmepLr//9828jkeSkQJzRJrRH1yWweuIIqspCyUCVhdKW244uUG2WCpK6DKAMtASoB/UzV//eIUPlbj+YlrLUh2HoL/xqMTrU13qimC4F6CNQH7wJF4GVz2IEU66hWkwpA6pQVaY6il1t+Rmo5gCLtgvVWv9WQP36mkElO/WAqp7KQD2gvp4CtYTqZR36C75IjGKqR6RKmK4FqAcVUJS1Pewxh2vL101LN6SEqjBV5Lg4BVQ9Wr11fjeV51Tt8gLUXgelzQ7jbf9auQqqBVQrE6BErodq6O+xjNRzoD5MQ/8IorZPZKivb0N5TI8F6CNQ639ALKyp7JRstecOfw7U7/2lvk11dk21lmmOzu/JVGXOrMiP5t+5c2f/+uuv7995551DHAHUb9cFUAUov9JPZ6IAFZw2al4Ez1QfC6od9pey1Ms09LdQRsotj0iB6VYAfQRqHVRl6tzZD2Wn5gdRUhmqIFVUZkoEU008o/rsC/90seuoFmJ9AcC2lcoerNY6GamyUAEKqLS1rivSf9cKqMVUZa6dprCMtPF9fiDVBKR2uswP/EcAtX2iQ/2X3jj7JpJHbEv1Uxry37x/9puph8/i2x/8ApUAnB15DjUE6vu/LpXCtHT91IPKt7ZAtQTbzHkgR7ZaW2cEsFQfCyiIqm77pob/dn5veVfLQIVmKeomVARQ36cG6mUc+lskW8qRoT5fL+UHZ7aEZ2pbTg3U668++MtS+n4+owB+FH3WV2lz2ekSw31lqN//q7NvauWeUa3B1zOfbzLVUI2iJjA1jFfdXy/161sC1QtD/hKcqXkCUs+Wqh6NHlQ/7L9sQ/8WQG3fyFBfvyi1dVC5ZHNKoDJKAlQyUf3mqUD1UV+51S9QtWavuex0aVBBlT8Oa6Gqu+7EFMgeP1vXMF6AEkG0Bqhdh8qzUZ0GKnf4e4f+Gu4r2iG/ypdh6G+BbClHh/qnACqYniqooMqD9h5RW9ePntgIshFglZ2uOdwnSwVTTWzrWnf+S6gKPKIABU1dB1UWavv1lkGVqXd5u9wQqD4L7R36C1JFIWpj6Reptv4oVQueqb6CMhq3mqEK01MGtYSqRdSW7Q+fUAYtMlEAZVIWC6Salnr+1F8/9aD+3r852761UbVZKkAJTADNXQe1kI2WZ6HaDarHVHWy1NbnUQWpjRZTlXNZKifoVr/rnwKypS163dRiuzVQLaQqn+KQH0w1pTJVi6jKHlPVBSex9mMoawz3laEC6tqoci2VO++3bt064LkGoCmAZ6A6HVSyVK6nCthI1NdPa6AC66n8GHULmrm+LddNtwqqAPXx1EEFVv6I14b7AtRGi2mqXM1OK49L+Tv89nEpn6EKUqIwVVxy+M8wHkB1HVSPMvVcB03h2Ns2imoXqDUkW4f+LaCWhv78tuQWMtUckC3trddNtwaqB9TXTwlUZaWpKFCVkfpoIVU5hahtq4I68LhUFNTf/7e7PdM7X59zTVWAKgsFUspMGu6TqR4bVCAeQbUZ1Bqmmt9ygyoFKtmqhvo+5ob+W/gX1C1olvr2DPWF6rGH/B7PVP2ygMr1T1D1kKouRG20eKbKS4KqR6UUcxmqQBWqPQ/+C0xdB1VdgPo4illvVpparhfVxUBtyVL9t6U09PeQ2nrqJKXtWDeoSji2zusd6h8b1NxnkmrXjZhTiKnM1LZxPVWA2mgRVTkFqG3zmFKf/XXTFKZ+yG9BZRsi36YSmFFALagWtV7M7DpmlHu2owlUZZ/RGH02tQfUXJbKybvm0L8Vy1r/kaH+MUFNoVlqOwVItY0Wz1yZP+QWU8pC1EaLZ6rsQb2A6ULXT0ug/sG/O/vVK/+Mqobxug6qYTztFstI2QPYg5lfx4w674Vtia4rDGoUUduPLDUy9H/i2ofPv3qq7FTRZqW+nEN1raF/Dcee+SND/WOBWoIzN09YnULMIerbPaoWUpVTiNq2KqgrXD/lppTNUAGViacRQHUGoBbZHFatmOXWM9resh2LggquqaG/2tipPNzbCyrA5k7YJYf+PVBGlpmBKaiudQ01t+9r7dde/un9zdf/s/PnL7eM6stvffColAc0VeemaC47BVXhactq85hSv5ChDoCqob5i5PopsApUoXr7jX/YnIFaQH25BF4LZqX1jM6LbkcIVJt19pTJUkGUSwCU2aHUH3vsscPjVbkhf+nGlLLVXJbK98eXuOMfgbGnz4yh/poZag1NOx9AmZ6+9kvnf2D5/J+79aHNo9oKKn8ccqAKzlzcIqgW0z/897s9E5nqrAf/I9BFMYusa6RPaTtIDLk0UAW1B1BloAKUyJR74P/TT/xCdsjfg6p+jOPtr85DtQfJ6DIzMV06Q7VQ5so5QHVc2Lh1VFtBJWtldKQhvo2CNJWdMs+DeiE7PdL1U6EqUGeiGgXuWP8W2m+fUBWgIMq2qX0KqDpBLKC0WUDVJwX0KKga+gtSG0dRjaI40m/WUH/pDDUH6Ev3/mYyA9VnXotPPfdLm81U+SJJamhfa0uhOgyqG+7zs336V9H+YX5+AzX6QH/thlQK1D/6D+OZqseqVLff+y/1W3KebpQBKJPq9jWLoKbwo00nSAnQ1LLsFN/O77Ey6SZUKmp4X4oM/S2kttwz9B8BsmXZ0UekhKiNs6+hekhHAdXxYyOovvja9q6r9oLqM1WLaSpD9dnpsa6f5m5IgarNUAGVqffBf4tQtLw2qspCyT4toKXtyIJq4dOB3wqoXQdlrUftwrQGamTYD7Y5VFuy1BYMR/vOHuoL1ZmggqkAZSivz3CpuDVU+XHpWjZamq9M1YKqso1bAdXe3fc3pFKgCtWr19t+8T+KqO8nzHz7jLoA9cN42v36tR1+XhJU/q0JJ8wooILTRjaAddM2G1RQtZmpLddQHcWxZ/nZQ/2ZoIIn1zf1L26WAlTr5UYlNywP2cDdn9vMJQBAff7uGKpf+vbZ3X1dT7WQquxBXfL6KXf5I3f4NdT32SmwKkP94/9jt2fiXIui6nFqrQMex0nrcqn+GraXhvGp5WhLoXoAVSfNEoBaTClzArEhFtNZGWopS+UDTw39eyCcscwSQ/0RUAH0hVc+ejhIdTwoCr2ZUceaEOUEoazpxkZQnQEqX7MVpqnhPqhWQd3Y9VMP6nd/cIaqfyQqVc8B1dLei6oATQ3jW15ffT2qOw5gDm5OHnsTyUM4s86/XWGyqD5x/UeL11Gjw/4SqjZLnYFi7zqWGuoL1CdfyGfqytp1J15oKl69evUBVGciKiz5R21Mqqdeg3mgevvtD34v9BjPq64BqseU+oUM1YFqb0Yd44aUB5Us9Wvf2+1v3f/h4jOqgmhGjKAKeOpHFgqk1GmfsQ2sw6L6wJB/JpqldQEpG7EUqGR/gsNHUO2FcNZygm+pmAJVgD713C+eD+OFqI9gp7YUdtE2gRkB1K+TP7gcI9de/B8OqB4LVoE6MuxnyK8MVUN8G5cGVQ/yK+aG+603pEBVQ37in/yfZVRnAWbXo4wz1dYzjLfraSlzrL744osPPodaQnDWPCHqs9SZGWopSwXYWTD2rGep66YWZ0BtAVR4KnIgkal65Gp1AcqyNgNlBFRb1s/X8UFGcfX6xw9PAIDqWrByo+mpG7v9Z547u4baC+qU4X7j86f+kSlBqpgDteeGlAdVqKYe/G8BqqUvx4gmeze+ZR0z+oL7eYY6C8zSeoSpok4a6qVvS9lHqcAyOvFQts9QqR8rS13yuqkF9ROP1bNQ4ZmLHGAA6aGzdV0HFaBElukB1K5XxwWRv/ycLJR5AkCoLgUriPJH71c//cEkVEt383PzbHbaff20EdTS86egGgHV3pDyN6U03E9lqID6p//Xbv/17z/4baoZYGkdHBN+GC9Q1edY8QBqCcGZ8wSpIl89ZecsBeqWhv5LXzcVqP/qE3/nfLiewzLSDnACUtgtBajWT7SYqswxwkT9uVsffgBVATtyfRVEmSyivtyDqs9OU6AuPdwv/aA0sOrX+WcM98FUoHpUR4HT0L40jAdV+o2+1sjyq4EqRH3USbNEhrqlof8aQ31QnQGqgCPb1NCdKGBrmauW74k6HnyMoNqStUYQ9ajynHMuE02192Snp3pDSphaUEH13W+cZaqtSAlQkGwZxh8b1d3MDDS3Lo+or3OyPHX9o9W7/Br6R4f86pca9q859I8O9WdksaPDfQ58QSpEgbQHx9ZlPKK+zsmiTPWFuz+czFRrGWstE7WI6ngj02Rq+V6/HujXzahUdpp6XGo2qLpuqpgb7i+RoQLqD/7vGKp8rn4YT/1gw1NPNWWdx0R1x0Gfg3BWuwfU1zlxnr72y4uBmvsG1RqoRpHkpseXv3t2A0TD954YGc7bPsocwFPZqM9Aqfu2Viwj/T2gvs4zjZwstD9760cOP1MoQHORSwEg6q+LWjhVFqAcL0LUR+76p7JR28ZrWkhVtnf2VfZD/guPSzVeP+29IbUkqKDKufbsCx9/AEZloaVhvI7P1sg6ezBufR3f//Ac6iw4U+vxeObqjz/9i4uBesyhf2SoTx8w1QSuPZhGhvs6AASo6lwfBdocfMI2N3+03eOZq3OS8M/cAJX9xNds+b69BzUypGe/gyiA2t8r8Ij6+ktvlFH1Q/0cqB7TSHbqfxDFP4M644ZU9CunqTv8fsgPpkxsF6jaLFSg6hicGTlOjoHqIUPlZEhhONqWwzPVXvvFKWUPihrOt0Q+0NS01F3/lqG+MFXsATU13NdBygFmh1AC1GarJRTpD6qlPr3zcnjm2nkv127/5AFUUGUC1RqiApRjyAJqyx7PXD2H6kh2GgF17Qf6W+/wW1CFKfHP/p8zVO+89eOrZY7HQPVwDZXh3CieqeVTcJbahGUktkCqvmsO/VuH+oJUsSdLBUcQAlEPKO0WT1+OYLjU0D8HZ6mdP1bC1Ed93orPvZwHVJjm4Cy1czzZoT5lvt6sjNRGDfFt7MlQ1wY194Mo9pGp3A0pDyqofuP3zv6Niv7QLx2F6tKvo/UfQNXJlEKxt60Ep53Ho1M6cSKQqo9OltZYQrXnQf3cMmRDTKVMk/kCNBVbUP3VT/3dBzJQPmCPZqmuY6AWZ6Oqz741lkD1wJJNCs5ULKFZm2dBJTtt+bV+D+plvX6qDBVQhSoP/guhpaMuMyz9Oqz//C6/bjr0AmqXs2D6sgWUvx5MOpmEZTS2Yqr+qWE/bUsN/clWAcADm0LUt5VAtvM+deVjTYBaXGuI+vkM/bkE4Nt76vrsWyP7M4pqDtQalpH5duify07JVG1mqvLDCuqf/79nmeplRPUcVE4GThILY2/ZI6qTxQPq+0UhVT8B2RpLWernvrX8V1MBlsnjmapHs1QLZGu5FUL++M64nqrjoieOghrBMtLn/hfPsl8ekxrJTiPXT0/1hpTNUMFU0zd/v+8Z1d5Mc41M9RxU8NSJ1Qspy4GkTpAaoB7UyPf5hSmxFVLbP4cqJ0huGL90ewpU2mqoRu7u55DVZ94aR4f+OkZ64wioESijfTheeHgdTJcGdY3rp0vc4c+B+hf/327/3jfXRxVYe1GuLfcAqPx8HydKK6g6GT2gDO89mqV6K6ijqK499G8F2QLrLxfY4X7q7n4OUNuuz6036ptTPcv3Qspy1+986DDcj6KqIX8UyZZ+XCbie+uXBdSR7/DbO/x6qN9iyvVTZadEQL0MqHIegDTTA6BGs1SdQAKUOgd6K6Ae17VBzWWpQLvG0L8FWC4RgGoKVotkS1mf40jsuZ46ium9L5xdP42CyjOqLUi29K1lp8e6fjr7O/z2V/rtHX79bJ/u9AOpxTQCKqhyzvkH/2vZ4Mh8Adi7Di3PT/YxqX4BVFAlS7U/Nq0TjmuszFMdQJXNehx76tHv888a9nMJIIfqMYf+KWhttkpZwD5+7ce7bkbpMxyNHA+tX03tAfXmzZuHzBRMuVMvTIn+rr6v85XRFiRb+n7ldxbKTjf8DakcqMK0B1S+qbU2qi1fUVUWev369QOgRBCl3aKcBBU4NXHCUObEs8gKUmIPnqllekAdHfZzQp7S0N/DqvqbX/5r+5ff+Hv7527EfrpvFFK7PMeI/UNr5/lyFFMAZXrrrbf2b7/99v7+5//xHkxToNZQXQrUN770AaZLXz9d6obU0l85jWSof7nf7ZnYlpff+OEHgLJYLVEuoaqs02ehpe04gKqDXhmoMCVaOFPlFIy9bccAtZSlAm0qW1yzTWC2RoB99b2/ngRWn/fMyF/qGqolTAXo3bt3D4iqfsgCrn/sHNMtgWqz06VBHbkhVfoN1C2BCqrf+oPjocolTI43ZaECtQSon3f+P6U4uWwGSp0TJIWobevFM7XcsUAF1dSPUb/2ud3+s187HqqtiJb6AyzTtRd/6TDNxJR18ce39iiVBZXv44OmACVSp932u+ow1WNKdsivsh/qq75Ehsrdad2IymF6atdPl77Dn7sppQyV+Ffvo7rWM6pC0/5Aix/GezRL9eSQX2DqpFPdxxSKI22t3+efeS3VDv2B1E7HQLWE44x5b375P90zzQS2NPQHSWWdDOOZVLeA+rKG+UCqyV9DPQaoFtNHoD74w9KRa6i6w0/0oC6JagpQ2shOQXUEU6AtggqguSx1BM7csscElSz1xXsPQmpRPYVh/gi04PrWV/7GMLAWVV17agHUgvryWz90GOoLUsVjg+qH+jlQ9Y0oG/23o5IP9A/ekJpxh3/kR1FmgDoLVQ3juVYKmLpmSrvPNMGUY3YE1SqouSw1h+JI+7FBBVWLqC2vlaWOoDi6LFDYCWBvv/nT4UsEAvTOnTt7JtX9MN6imSuDqQD1MQcqmaqG+Ta23LWv9fU3opSp2h9CUdlCqnIIVPcvo2s3pFp+A7Xn3560PjKVAzX1DGoqQ9U+4hlfPo/W4X8uC/WApuosy3Gbmhdpq4JKlormwKoh/wiatWXtML61DIijUylLXRrVURBHlreQ5soeWKDk4LPXQanrh6A5ZnJgltpfeOVDWUzB9Zigsm+EqKIA9VGI2igsbLzwoygOVH9DijqIaur9DdToDakRUPWDKLnrp4Cq/cPxC6J24rPmR2eev/2RLHI+CxWoEQBTfVieG1OpebW2EKicGJwkgFoDcXR+K6K2/yimWr6E6lJD/xEMZyybQ7TU/oXf+tv7L/zW39m/9ub/cv5sskY0GvqX4EzNq2F6TFBbslNwFRQ2WkgpX8B08nB/9h3+3DOo9ltSPCqlKQUqkGufWDxTZZ631o+HW8yEZm0Yb5dpKfeiGgIVSHWijIJZW94C2VoWiDOiHe7b8hJZ6gwQR9ZRQrNlHhns21/96/trL37sMJE5MKXgTLVFMAVU7trrRlQq2uE+5dowPjqffaGs1EafmUYxPUVQW36l3z6Dqn2UQrPUxh8xQP301bNf+7d340GvBcnWvkI7uhxJRBhUDf1rII7Ob0XU95+BKesoZakzUR2BcMayLWDW+n71d3d7O7391R/av/P1v7V//ubHDlMKUbVFMT0WqPYrphZTysLCRmVgNvrsdA1Q7T/lK10/nf3IFK/FvuHfwZTAjMwD1F/5tZ86PCPKH+gocDP6RVHViCwMKlDq4B9Fs7R8z/f5LaqzQK2hOmPoPwPE0XXUkGyZbzHNlUHWA8uzpkAZnY6RofLAuYdUdQupyhZSlUOguuunrTekeu/wzwBV+yOCZEsfRiH/4l//3VUhtRjXUBWm4QzVAshfiNEfQbHr8+UtgQqqdrhvy6NZ6iiEM5ZvwTLSN4doqf2zX/uhw0+4cYLNAtXe7ee3GqJD+ly/1uwUVIWojWuAqn8XrRjNUHt+ZUqAkoVyPtipBUzfl+NA5xr/K+xf/cZu/6u/8TNHAxVcc6haTLtAXTJL5Ztao6CSra6VpfaiOgPDGeuIIBntU0KzNO9r39vt7UTmz7eQSsCW7vLrmqquo46CyjW81uw0CuraN6RKQ/4IqDxVwL5gsnimyh7JWt0CCqJ2AtRPfubBf0FtM8i1yvpBFL2exzQEqs8gqXPHH1hT83rbwJSfnnvi2ofD/07aDvVteSaos4f+MyCcsY4olNF+JTRL8yymqbIurXhgo8P+UVDZ162g2qxU5VB2upE7/Pahfn5VPwJoK6rKQnkkyuKZKm8FVCAVqilMq6DmcARThv65+dF2AFXGy7cTmLYI6qyh/wwIZ60jCmWkXwnM0rwUoKU2fsjZAlvLVMlSR0BVdvowgco1WxBNDeNTaNbabGZaykJTkKrtf/2V3f7xp/7ZUYf8ykqFKr9bkUK1eFOqBKMgLPVJzdNyApQ6P6xBhsr0+LM/PZyhzh7217JUDiqd6Lk4C8IZ64kg2dKnhGZpXglPPw9MUxM/BM5Exuqz1hFQwZR93YppdLifvMM/+YZU9BlU/rUziNZwbJ3PPgTRSBYqPH28+tJuD6i5a5gWujXKQpQvsGCY6opZUFMY+rZIlipA6csGqE52yvoEqeIxQNUv4dcuFZQepcpBSvsMBGetowXKSN8SmLV5Hs1SPYWpbwMGps//5hmuPG7TkqFy80k3oIBUk26++Kg7+j5qmG9jaMg/GdTcDSntp1YgI/17s1APqeqAqjv8W0BVcGJZCtUkqB7OXF042vlq4zoriKouQG1fIWrjY0/+wpQMNZqlgumvfvpsqoHKDQ8dMD5ysKVQnQXhrPVEkGzpU0MzN7+EZ2qexzNVFxQ+8rm88/WzpwjsnXwyKABl3wpPZaS+7jGl7iFV3UKq8jFB5bXZX/yb6wiKLX10HgjA2dGCSgZ6TFSFqWIK1SFQwRE0wVOA6oZV5NEqC6nKa4L66098gCmogmsN1VKW6lGdheCs9bRAGembwzLSnkIz15bCM9XmIfV1hrWH64PfOYsWzVI5hWkOVAFqYwjTwA0p/x3+0o+iaP+04Bjpq2E8f5hm45laH+ekMlQN6fWLUaqvEYWoj1xLJVNV+wVQbQaZKgMlWacFVJloqn+uTYD6uAaoNitVdhoFFXAZSuovs4/KUmchOHM9ESRb+kTgTPXJwZlrFw6l6PFM1QVqKp4CqPoxFEX7oygAzv75wm+dXhaaglRtuWdQ+Qoq7hwTUyEKqtz9p/4AqCn8BCiIKhvVMF79fV3tuegR9XX7CNRo2WecOUwFq++fqteG/jMRnLWuFiijfVNYRtpycObaS5BqXgpQ25ZC1LblQG3JThny28xU5VkZqiBV1P6KZJYtfdbOQoVnKuYemcKiNVAVmqXI0B9Qmc5BtfgJSDaaSXXbx5fp59tydQ+or48iapcXiDVIBeqV5+vDftZZGvpzU2QWhDPWEwWypV8EzlwfQRCJArMWLZ6pssXTl3OY0r4aqIEbUtpfLThG+2qklULtmG3c4c891C9Ul8pSS4iSlWq4D6SqH0DV71a2AOqxjKDLMh7PVN2COFoGvyimLcN+1quD0Ef+ws+AcNY6WqCM9s1hWWsXCtFYg1TzU4jaNo+orW8VVDBnf162YXwL0CVQgZSbVFxTnY2qx5QsVEN7rpkKUN9vZzPQyI0kD6mts67SOlJ4ptpGEbXL/9qVB288KRNNRZCMZqi1LJXMYBaII+uJAtnSr4ZmaX4UUvUTmKVo4cyVLaC+PAtUDfF9DA35389Qte+imWW0n4bx/PFvAe2YffUMag3L6LLceQAAIABJREFU2agKSaEJoMpCgVXzU3FnQRwt17LUFJ6pthnf549kpcKTfxfNt240gWV02vLQvwXJlr466XuioIzEEqJ2Xg5RtXtAfT0Ham64T7sekbLRQ0q9himvzb7nMlEUx2g/jZyOieLIa/tHpkqwznicKpqFpiBV21RQAVmPTXmcU3Dm2kZBjWBKH24ueUxBlYfBo6DSTweuj8ce+rcgGe3bg6iWiSBq+1g0S2XBmYseUF9vBdUiastRULWvozBG+ykLXeuRphEsI8u2gKrhP7CW4PXzBHFLFio8U3E6qGSpSG9BzcGZa+8FNQIpz54Ky2u3P8hKlZ32gFrKUjkZRobsvcvqpJ0dhWNPtFhGyiVENS+HqG33gNp6DlPacxmqRdSWc6DqM4jC2NJPf8QjQJ1an08+ffEZVA+irzM0L6GKTcynH4gK1BSOPW3TQQVSO/TPoVlq7/n6aQRT+ghTYg5UULX9IuUSqr0ojiynk3hm7EFUy0QAtX0EZi1aOHNlC6gvLwEq28Fnt8Qw/rJloSnkX3pjt2fKPYPqEfV1j6rQVBZKHVi1XA+cuWUWARVUlaWW4MzNawW1duOJ+Y9f2x2+0mpxLIHKPNs3Ula24CNfexzBsXXZmYjadQnHnmixjJRrkGp+DlG1e0B9fRao2k981i0ZZqSvjqcUPpetTZgK1NwjU8IwFbFHeNosNNU3B2Nv+2KgkqXaX5HK4Zlqj4Jay0pB9KkbZ5Dqzr+H0Q71bbn1OirrtVkq/63RTmuhqhN7duxB1C4TQdT2EZi1KDhz0QPq6zlQc8N93ZDi9ZSF8tnaKYJkqc/DBKj9g2AxpVx7ZMoCmcpCwdRmora/yr1w5pZbDFSg5M30oBoBNYUpgF5/9ewmEcMtTcKUGAWVD9r3jdRB1UJqy62ZZk//2ZBqfRbH1rKFMlKuIar5OURtuwfU1nOY0p4CVZ+HxTNXLoHp5z0Mw3gLpy97SFUHVMHnI7aAqL8WavsxH1Rtmy3nUBxpXxRUMOUNpLLQUlvp+/ygaZ8hBVAm4ZmK/B5jDlWblfpyBNBUH4uoLXPy6aRcIgq/JWIrorZ/BFHbR2DWooUzV7aA+nINVH1GOTRL7R5NX39Ys9AopqlnUFNZaC0DFboWUsojaJaWXQRUiyWotmapOVDJSgUo3x5J4Zlq6wW1Z9gPsDfv57PUpVBdAlGt0+LYU7ZYRso1SDU/h6jaPaC+7kFl2/hxG46hEpbReRbRhz0L9ZBSVyaainpkChD5JhTf2xeoHsda3S9XAnF03nRQLaYq81dE5UhMgfrCa2dfwQNSO6UATbX1ZKi9oNZQVeYzMwq/JWIPolomAqjtIyxrUWiWogfU1wFVvw4WRbKl36MsNP2trBSgvg1Qf+XXfuqAKN/ArKFZmy9UR8GsLT8V1ByWPVmqBVBlC6ktpwD1bWS2Wg9RQ3X+Uvqhvq2rX2vk32/Y4b4tc1I+DJiCqsUyUq5BqvklSDXPA0pdgHJ8tOAY6avPmOMnlZE9aitnpRbVnmdQa6jqq6Q1FEfmrwIq0JKl8qv9OXR5E1xgvn379v7+/fsP4CcIGbpbSG3ZA+rruWF/DdTeLJW/sGsM/ZfISO06lWn2xgiito/ArEWhWYoAynYL0QiKLX3e/PIHfzT1P60eoZn+Y2KxjJR7n0HNoSokMQZYVZ8dp4Gag1LtPksVoLxBAAVSykwsI0RtHAGVa1h2Xco4lwKV9YMq26zMxccZWarFb3a5F1EtZ6GMlmuQan4JUv7VB4i24Bjtq89QgNr4CNM5mAJu7ndQc2CW2j2aS6I6BVShWYsvvfTS4a8DgDJZQP2yua+f2qzUl31W6usWVMqgVwOV4ZvwbY2AuuTQfzagfn2CsTdGEVU/YVmLHlO2D0T576dRGKP9lIVyHFg8bfkRpGlI2S+RbDTVp+UZ1BZMwZXRsp5R9diO1hcFVWDeu3dvz6Q34fFM1XOgcoB7SG3dI2rrqWE/Q3p7zTRV7vnWlDLUpYb+Hr/Z9V5EtZyQbIk1SDUfUAGUKQpjS79SFmohpfwI0/Q+SCHZ0lZ6BrUEqJ1XwnEpVIdBtRjyZkD05ZdfPgBKpE67+vmhv9p9zIFaGvYDqwXUl3tB7b2OalHVSZqKPUP/2YD69QnG3tgCqfoKzFQUoMfKQh9BmoYz9QelBc5UX5KQUVBLmGoe11LxSfUZcQjUHKBspAfS1iOPUeW+LZV7fCqapfphfyRD5aBpHe6rPwfH7CzV4ze73ouoXU5IRqNHlPckRFuyy2hf/WHzUEbqKUQetZ2BmwKytY3zxf+nU5t51sotMM5GtRlUHrJl0jAePGuAWkwpR7LUz1z96QduIlkILZ65ss9OVfdZagTU0euoM1GdjWdqfRbGnnIUUdsPULcKqJB9hGY+S21Fs9R/BNQWTNV35uNUVVA9oKp7JFvrZKnAmluuBGpt2F8a+ntQyXhT101924xhPweKMqNUjAz9UwDObutB1C5joSyVeb98VlsZxgvOVHyE6TqYAu3IM6hCsjXOQvUCqKTToGmvg1KnXT8anUOwpR1MWWdumVFQS6jabHdtUEeeTZ0NZ2p9FsbecglRjSiiQ/OWfvojlQJxpO0RpmlMS1nmyLzeZ1BbEfX9Z6C6iwAqSIk5AHvaS0N/QPU/vWch1IlZixrq22i/NVX6TVSfpeq6aGvUkF+xB9UUfku09SKq5Tym+nxaYIz2jTzS9AjSNIajfyRGwKwt2/MMqsext87lS2BtWZ7RNsuw7I5roRrGWzhz5R44S8vkblDxff4SqLXHp3QiEy2mlO2wvwXU3senAFiYKiqbSsXU0H8JPP06heJIXHIYD7TaXyNQRpYdBecyL18DcXR+6zOoLfhF+vJ4Zw1VZbP0VX/aLgz5c5DOzk6FbC5LfezJf3IANYdq5DqqUPWg2m9NtYA66zoqqLZkqR6+peq9kGo/v/uN+c+FClBGCxEIR/tcZghH39solNHlWx6ZigDZ2ockT8/M22Utospk6Wv7hEEVgEvEZ599dv/444+fX0547LHH9jVQI49P6URPZam6fNACKgdk63Bf/ZWZ2hhBdSk8/XpbMLVZKIj6KTpkT/XTMB5IR3FsXX4UnMu8fBTD0X6cH1FQLWSzy0IVRH0WWnqtEKhLIGrXabPUA6aA+thjxQwVEC2YkbLNVO2w318rLdUFZE+0mKqsDMxHYPHoLVmvgar96/FM1VNQltr03lsBnNX/MkM4+t5GgWxdnvMi8gxqCbWReT4LTWWqpfVvAlRwZSOBNQXqjGG/z1J7QZ057OfgqWWpSyKqdacwbQG0FVVloWsN40vwjoJzmZdvxXBG/8gjUyXQWueRiYIoQ3h7LVTr0TzVa7EKqs0klyyDKUP/JUH1qGrYX8pI/bzZoNZQZZsF31IRUGvD+BSatTablR47C/WoXmYIZ7y3GTj2rANQP/nEP8r+oHQNtMh8m4WmEPXrUH/fnqoXQV0SUL9uIH3yyScPk1C98vyPLzrs1+NTHs1avWe4r2U01Lex9ItUSw79R7PQEqhvfeXsjjz70mN27PoMcC7rOnoQnLkMj0w9ee2/PzwHzyOddkoBFm1TpgmguqEUXZZ+UVR34JW6s+/BW7ouRG2WakGdNey3WaqG/TVA/fy1s1QyvRnZKb8Ryvvnm0klDHvn3fvCbs90bDBzr39ZEZz1vmbC2LsuPYPKF4uYBGoLfhZAAI1koZH1RyDeXbly5eigClOizVKXAlWo6vEpDkiPZqm+BKhkrACvobGPbHMPqizH1ItkabmtA2phnYXOZVxPL35LLGefQeUZeVCNYOcRFX7+sabounL9tN7c/B0v6FFdOhu167eYqkyWCqz84hSZqSZd8/RRaLRE3fFnXa2ggq2G8D3RDvdtuTT0j2ap2gclCHvnMYwHUd6/xWrL5bUBfOWdZb6ZtNT7WALFkXX6R6befffdwxA9BVjthlJqmRltZLw5qA8ZKmm1hv0Wu6XLAtRHMD08m+pAzQ37uc4oSFqivjXVCiqvN/NbUxZV3fVX9mcjEPos9WEfxpcwn4HQ7bfrQOozeu+buz0Tf3i2DusIeksty3lgQQU/MkJQFYS6lmmH8jnctMzsyOvlUD3clCJDZVoaUL9+D6mtg+rTL/zseXZaylIZKrdAavuybA1UThgQJUtUZstyPdkpy1hAU2WdoKkIqNr+3kyztNwpZqEe1RmQltYBlnw27CshmopbhXUpEEfXy7mgZ1CFIHjxr5OYZl0L1bpHIrCzPX4d56Cy4R68JesWT1/WddQoqK3fmhJIRIBM/eIUgDIJUB+Z1wtqDVWy1BSmQMi//yiB2DNPr+VhOsV6CcKRedpHKThrbSw78tozlx1Fb8nl9QxqKgt95ZVXDv/I0wN2zDrbSQZtt+H8sSn7baUlIWXdHlC+dnrISJ9++jDUF6hXnvnYhQw1N+y3SLaWhWcJUA8q9aVA5S91CtXv/eVuz9SDpl1GOJzStdAa7jPRYV3RLLSGqeYfO1tdEsJZ6wbUTzz+D88fa/JDef4zMpMF7Nhl4a/tOIAqQNfIUsFUgAIn10rZGMq0P4Ct+YEUDflzoI4M+1NYRtpGhv21LBVUBR/xt/7oDNMeUDWMZz01mE5x/mxMa0N5IdkTWffs7a2tbxZ4S6+HR6b+90/+bBHMraO6E6bEJbNUrRtAdRcfRB8A9P3v8J+3rQSqhv4RRG2fpUFVlvqbf7jb/+5ffABqZNgvjE8RyOg21yDpmb8Ept/8/d2eyQLM59OzfS3LLA3g7PUD6qeufLwIKskXj1NtNVN9AFRQnZWlkm2CKDsAQCkns1CPqKvbzNSW/aNT1FuH+r6/xTJaXnLYrywVQGugKgu9TMP4EqwtsET7zsKUr/EC6Hd+sNv/3r/5YKJuUeX1lnoaYDZ2a6yPO/wRUHXn31+/1LD7WJHtuQCqMkmbuUbKn/nMZ84zXA3jWRewsvx51unArLVbRG05BSrXQD2SLfUoorYfN7SWRJX1k6kqW1W2wzXRhyEL9ahGcWztx7602LWW9bl8/692eyYLKeXf/7dn07f+4OLrzMxW14BvqdcA1CiGQjXaf61+F0BVlgqQNUiFL1ktk+p+uRqapfkWUV/2qI5cRxW8FstIeelhPw/7C1QbAcNjc9nrrUhG+/dgShbKyOHbf3J2KUaQKuZABdYUqgA+mq0uBd0a62U01gIqQDLsZ/i/FpaR10mCmoNRWShfBLCA1vAtgVmb5xG1dQ/qyONTvaAu+fgUB9kjUJe/1hgFFUCZ9LSFohC1sQQqqPI8cSoL7r0MsAZ6S74GxzrPoEbQsn22dpMqCaqyVMFKBFAgpVwD1GaoNTBr8/33+UugzriOCqyRzNT2GRny1+72P+ygRrPM3n7K6nOoClGuYWsSpIoWUpVroH73z9KgCtnoZYAlkVtz3XoG1WIZLW8J1QugCtHaMN6imSvXsIzML4EKrj5LnTHsb0V1yWH/wwpqL5AtywlTRW7off37Z9Pv/PkHgApSe2NQmBKFqI01UP/g3+WH/kK1dhlgTfCWfi1ArT0yVQJ2K3f+d6VhvHDNgVlqj2AZ6fMI1IfvGmoLir19haiPn/3abg+mI6B6TKnrppQioEZQffW9s2/ycf1c73Vp3I6x/ugjUyVUSz+kUlpu5rxdaRivoX4Jzty8CJaRPv4Xp+yQP5Whzhr2t2apSw37H6YMVWAsHT2itn7tzm4vVG1mqrLNTFW2mSnlFlBBNXc9lQwVUPkhdKYX7+32x8BujdecAaru/B/zcaoLQ34PZE+WGoEy2qcGagrVyzTsfxhAXRpQu36LZ6oMqExf+17/kN+DqqzURmWoRLJhO8y3ZbZdoBL1GN0ayK35GtFnUGvZ5LHu/L/wwguHpw6qoAIs11M9tLl6FMpov2OC2pKlLnUd9bKDarFbupwC1LcJVB5hUlZqo7JSRZ+dpjJUCylliynlP/z3uz3fhrOQquxBFa6XDdbWR6ZKsK51k0qIvvfee3smXjcEajRLjSLZ0q8H1Ms07L+soC6Np1+/hzNXF6hEfq7RYkpZkCrOAjWHKlmiEE1F/nvEmpnkEq/V8wxqCVTmLYWq1gug9+/fP7wOsGp7QqBGs9QWKMN9M9/nr11LHf3WFNmpJvuIVKlM1jByLZUDy0+XEVSP3dL1HJ6+HSwsqB5VIWrjTFBB1V9PrYF6GS4D9D6DKsRyUfjl5kfbWQ94Kgulnls2DGotSw0D2fjV08c6QZ11HbUF1SWG/ZcJ1KXhTK3fo1mqp0AFVWWpFlKVZ4MKqhruE/n8mVLZqW871csAI8+g5mBTe8/jVKmhfAlRvRYxDKqyVH03315DXQxT8O0ElYNLGM6IpcxU80a/NZV6yP+ygJrCbum2Ep6peTlQdT1ViNroQfU3pEqPTOlaKojayV5PbQFVwJ7aZYDRZ1AtaKkymaUdlqf6KJvNDeVTy6TamkBNZamLYvp+NuuH97m6f8h/BqR2HYKzFEeG/C2gcvKnUNha29Joltbfui9yoGrobyFVeQlQ/+g/fHCTqgdUYOW5Vd7PKUwzHplK4aY2MAVK1RVbhvJaphabQCUr1U/xKUPdMqiXYdj/3MvpB/u3DmoJurXnRWEtgZpDtQaqv8Ofu8uvDBVMNX31dz8Y8keH/cpSTwFSbePSoIKg8CSCK5Oy0hqSLfObQSVLBVVAXQNTXiOXkababZY6G1Sy1VJ2yrzR66g+Sz1FUNcGM/p6NVgZKgNnaVJmSvSYUvdD/hFQ+S8NylAvM6iznkFNwSc0NZTn5lJt+J9aT7StGVQgBdXqr+233nwq9E/BmWuzoM58fEpD/xqozJ857D8lUKOwbaFfCtcIqDxKJVR7QNV1U0VlporKTokPE6hRsCL9lI2mslABG1lPT58uUMGULHWtDLX2fX6Lqwd15uNTUVRnPj51KqBuAcmebbCwRkAle+XHvXszVEGqKEgVLaj8cbYZajRL5fjTcHrrccYjU3zVFCijQ3k9P9oDZm2ZLlCBFFTXyFJ5jSeu/9hDO+zfOqg9iG11mSiooMrP+i2doT4MoDKaG/kdVA3lAbVlKK/stQZk6/xmUG1WukSWeuXKlQPUzzzzzP655547/AbrUzd+shvU2Y9PRbLUmY9PbRnUrcLYu13c0CldP7XzyBY9qP76ac8jUw9Lhqr/PtHyDCpo8lwpvyo1OnTXnf8WhCO4NoFqMZ2ZpSrbBVAgpQ6svAY/L/j4sx/uBnWJ66iRm1Oj11F1c2qLoPaCtfXlWkDV0N+iOhtUfmnKD/kjw34y7S0P9YUpkTv8ud9B1VAeQGcg6kEEZYb/vn2kHgbVY6p6T5YqQFmWSXWtUxFMe0Dlmqq9lrrE3f4aqrPu9m8J1K2DOLp9raCCG9dTheojUMuQW0hV9o9MKfMEUH3Lacmf45uNaghUAZeKOQxtX75dRT/kB1AiddptP1sWpo9A3cZzqKNYncLyPaCCKv/xFFTXArWWpYLV1jJUAeojoD5/859PG8r3ZJdCvGdZv8wwqCCoLNOCKGhrWahdRmWL6QxQlxr217LUGcP+Y2eopwDhrG1sBZVhP7jxr1NSoLY+g8qdfnsNlXXnJrY1N42Cevvt3Z5/Fsglh1GYPaC+zjOoT179nw/XRD1Oa9ZnoVoFVciVovC0WajaSsvl5nlQP/PULzZdQ9VjVJdh2H8sUGchdUrrabnLrxtUAo+hv89QTxFUYQqoTPyzQNp6YPV4puozfwd1FOAZj1MVQc2Bp3ahqSyUN1Qaxmu5UryAKddRNwxqKUuddR2Vf33BZA9IDnD7DOXM8ikhOHtbW1EVqER+Hcqi6kHVs6c26vlTn52Sqdp1p8q5DLUHP5bxmArVHljtsZor9z4yNQpnaXkepxq5858FNYWeB1R1+lIG1tRy0bYkppNAPeVhv0BV5ABdAtTZOJ3q+pR9RqPFrgVUiynl7/zg7D+ufu5bu/39L579AbXr9uXZoFpAc+XaZYAcnqn2LYKqx6lK6JbmFUFtvZlkgY0iqn5ZTN+/069hfGu0w/4lvjVFhlrKUke/NcVBJ0htnA3qqeK3xHaPZKlcTxWqtQwVRPkBFL4kwNCa49NOr32unKXOBJXXzyHq23OXAVJoltpankEtITZ73sid/wug6nv6Gsa3IDmSpa4B6lKPT5VAnTHst5CqPAvUJUCauc7nbn3kMPp55vl/ur/x6o8cppnrz62rBVWfOWronwOVX+X/+vd3+9c//yCgFlOVGYb79du6R7Xna6ctmFpcWY7jsIRmaR53+D/x+D/cX7t2beqzoDOA7b1JtSMLBVE2AkQFaO+1UC2vzDMSa5gyv/XrpzaTVZa61LemSlkqJ8bo3X4haiMH6sh10xwkW2oXpjqmFMH1hVv/bHFgwapn2A94oCpQf/uPPxjKC8qWWEJ1FNReTAUry5fQLM3TM6gvvvji4R+BzoBw5jp6UN2xAYDKFMEv0qflWmoEU/q0flsqBeqS11FLWerWQN0SmrltIRsVoKlIVsPENa/nb/5P+2df+OXp2SsY9IJK5hbNQiO4si02M1V5BNRRTEEV7EtoluYJVP6rMqjOxHDWulrv/J8P+SNQRvvoBKj1j2Kqfr2oKkMlLjnsz6E6Ouy3manKHKitGWoOr621pzDVJSgAZaIOqHZUpeOODFaXCEbfW8vQn88DYCJA9vQRoj5aVNleMK9Nx8aU49c+MsVnueQ3okaAbfkhlUVABdJaliokW6PNPFvKQvVhBHUUlTWXt5haRIUnJ4bgJIKrrafK4MrlA9bd815KqPIHbklEBS/ZIMeux5R6K6jcqdeQvTeOZKbKWi2ofK58xkwj+C2xLMdY9HGqA6i1TLJnvg7s3LKtkKr/jCxV1zyXiqkfoR4Z9isrtTGaofYAcsxllHkqC01loDq2iOpv22rlHmBzQ38+E6E3K5aQq6HKcVHKTreCKedD6mf7yFK3iCrXU0G1BvYuB96Mdn49ioPbr0s49saWzFR9laESOfCXwjQ37B95fMpCqnIN1GOi2Pva3GgCSA7aGop2PsvU4LX9fVmXB0oZbC5L5dGmUUhLgKbm8dn7TFVZagnUrWDKNuZA5bPf8k2q1K9T6Y86ScCioOrAtaD2ImqXG81Slx72W1R5RIaJR2R6s1QhamMO1F7Mjr0cqOl46YkczK0Q514nB2wK1RZMUzj2trWCuiVMOXZLz6Bu+SaV7vzr8sTNmzf3TKovCiqQ2izVojhaVubZEpWlLv34lBDlV4g08e2XpUE9Noq9rz+KKTCSJYBqDsne9qvXP75nIns9TOYf+fEHzoPaC2TrcqmhP1lqarg/A1O+sACEsybu8Od+B5U/jAC1tZtUQvPOnTv7119//bCNHHdsr6bFQeVABtVRQP3yPVmqQCXOHPKnABWkNvaCyolis1PKNkPthWwLy+WeNe0BkIObqWfZ1DJPPfXU2X+MMBFcdT2VUUcrhDP7e1RToG4RU45dPTIliFJRgKXmrdWmbSAL5Q82dV479zjV4qCSpXKwcnB6FEfrI6iODvujiFpQe4f9OVC3AOLINszEVCBy0M9ANYWp2p658ZEDqjNx7F0XOGn470HdKqZRUIFLoK0FKJcbeE2OIzuUT71+6s7/KqByIC6RpQJyy5CfvspSR0FlCG+xjJQfgbo7f2xpCUxBlQN/dOgvOEvx+dsfPWp2agFOgbplTAHVPzKVAktt3KRSZqi2mVGI+uuhtdfgOPN3/hcHVVmoDk7VZ8WRLHVk2M/vX0YQ9X16hv2XLUNdClNlqaNDfx2rpXj33R/eDKga+itD3TqmraDqJhWxhlx0vjJfsAZG6hw30eXVj5tU9s7/oqB6NGdnqecH/I1dU6Y6I0vlICbj9GDW6j1Z6mUCdWlMhapOENWj8fyYMtdNU202Q9xCmeOR44QH7ke3Z/YNKAC1E0lF6hlUIZWKfJ6jN6ksojOfd9Wdf7Z7VVB1YHpoo3UtD8zsHNVbs9QZoHJ3l/XUAPXzH2ZQuUsehW1Gv9ahv46nWrz24seH0RpFL7X8K+9sH1Ng7QEVrARiCtxUm4by4KnLBqwj1Xe0TaguBmoOydYsVQc3y/EvpqnzQy5+/b3XUkeG/YDak6W2DvtTGSp3+kduCK297NqYAnLL0F/HWSRuabifgrW3benMVFlq6RnUGmw1VIUogC6NqN9Whv6LgOqxs3UdsLbNljUfQJlUt31S5d4slUyzF1WGWT1Zqv5KR2E9dVCPgaky3AiqOsai8TKCuhamHPu1Z1A9VL7uh+tC1iI683qrf/1SfTqoKex8m6BUuw5km4VeuXLlQhaq/qnI77deee5D4WupM4b9ArU1S20d9p8yqMfEVKjeuHHjMLpR3UYde9G41eF+b1bKcmtiKlA/deXj3UNvsFT2SfTAlsBbet5UUFPQpdoYujO1ZqGpddEGpofp6V8Kg6pHqEa/NSWYW1Bt/dbUKYM641tQFsCeMlnq888/f+H6bRRR2++ygTryA9EawrfGyEP9KfjIRHU9VDHV75htq4Gqg1JZqGIOyWj7Oabvo9qTpfYO+VlOWWrr0D863KffqYK6BUwFcGror2OyJV6m4f4xMAXf6DOoteuhGuofE1D/2tNA9QDqIM1locxnnl+upe4xVT16g0rZJSj2ompBbclSW4b9fNXRf/V06zeltoSpUGXoD6zUdXxG48svv7xnGhlab2nZY2FKglACVUhGr4eqv4ftWPUpoApBHZzKPqmXroWqv5ZvjQLUx9YsdQRUIBbMLVnqZQb11c/+NxeG10LtmBFMQVXHXS0K0XfeeefwYxivvfnPLwWox8KU7BRQ/TOoQrH3euhWrqFyGXMIVP2lz2WhNSA5oHuzVI+or7dmqb0ZKstxHVaotmSp0WH/KWWoPLh/69atw3RMPHOv7Y9ViyrXWUGUXxICUYGqPpdhuH9MTC2oIKrroAJ1JKsqF0CaAAAgAElEQVTka6P8wRxZR++yuifUBaoO1GgWGkGVA7bWz873eKbqrVnqjMenWlHVAVaD9VRAtd+C+uxnP7u5LFUwAifHL3WhCaApRLUMcUtD9p5tOTamHO88g6p/HQ2kvYj55cAUVH37UnWLqC1XM1QLKAeh6ha40TLrja4jhWeuLYoqEI4M+/WtKYFK9N+QStWjw/5TANViyjGytSzVwsjvWQKphvKUQdb28eXLcHd/xv+BAsWRafQZ1BKQAM2340p9RudZPFPlJKhCE/VZiDrXQmf/8r4Q1cGrei7m4My1t4A66/EpoRoZ+kcfn9o6qB5THT9bQTU1lCebUZaq468U7777IyedoW4BUyDufWQqCuGMywf+tVJw5toOoOoEAFAm1S2gtpwDb6S9lqXm0Ky1t6A6ch3V3u0Xqqms1LfVhvvM3zKotQf3jzX0F+aloTzHXBTVniH2VpbZCqZrgAqG+vUoD2NrPYdmqX0HoLwQiIKThTNVHkGztKyyg1yfGpyl+ZEbVCA4MuxPgRrJUiPD/q2CWsOUY0qw6Y/0klGvpaE89dpQXt+i0vGXiqc83N8SpoBaemSqFbxS/5GbVCUwa/OSQ/4UpLTlsJvVTrrOAe3XV8IyMi+SpY6C6h+fUpZaQ/WUQb377g/tn7tR/+d6gm42pmDJunVX3r9OCkffRoZaQ/dUh/tbw5TR1lqgkii23qSqYRmZHwbVI7dEXQe7XXcEzEifaJY6Muy3j08JVKIf5vt6bdi/1Qz17a/u9kw3X/vw+WWiHJqzhv5CU0N51f3r6liKxNrQ/xRBXfv7+ZEbVRzn/hnUUpY5Oi96kyoCZbTPpkAFUr5uxklAOQJltM8aWWpq2A+otSyVx1lKqOZA5T9crv0zfPb1BGoE1Rx8HsJUXcv6oXyqL20RRH0fhv72euqbX/y5PdP3/nK3/9r3xn9ndM3rqVvEFHDXBhWQSzepoki29AuBajPGpcsc6OyEKJQt/Z64/mPFH08Bv5HrqKnHp5Sp+qxU9W/9wW5/GUCdiWptKJ+DtBdTjjkwfeer/2j/xhf+/v53/2J3gBRMNa0J4shrbRVTQOUZ1NK/jh7NSHPLe1RbgGztWwV1aUBT6+cAZ+e0YBnpG81SR4b9AtTHXJYKqEylDPXZW+nv8m8pQ1W2ynXVEnhkman5Ngulj+qpvrk2n3VG6gD6le/+xAFRINUkSBV/+4+3n6VuGVNAXfIZ1Bymaud6Kn+oW4Fs7V8ENYXdGm38Iv9SWWoNVSCc+a0pC6tHVZgSNSRKwXpKoArW3M0qC6XK0aF8DlLaI3jS5+Yrv7x/4ws/u/+dP98dJgHqoyC1cctD/61jKlBHfgdVOLZGUNRNKmIrki39s6CuAWfqNZRpaqepPjPWblCNDPtz11EFq4b6RAtqadh/iqCmLgFoKA+gvVloCtUapvc//3MPICpMiR5S1S2kKn//r3b7z//m9jLVU8D0GKB6CDn+eEbVt8+os26mHQeof0wqBd0abR7NpbLUp65/tHgtdfa3poQpUVmqxZQyJ2oqO6XtVEEF1Vff+a8Pw3ePKPUUjj1tKVBBlOm7f7Y7TBZRWxagNgpQHwGVaeQa5+xlTwVTQF3rkakSkIKv1Cc6T+vS5YQDqFyM3wKoHlPqs7JULiGwLtJ93jTlUpYKfCPXUSNZqgeV+mUEFVTf+sp/ftjvFksN921bT1mYMpQH0C9/58fOERWmRIuoLVtIVfaQqi5QtzL0PyVMObaXBrUVwmh/2w8/yHItonb+IUPlQBaqa2SiqddIgUpbb5YqjP0dPr1O7VrqksN+slSB+t43d3smsuJrt9OokqHeeP3ijakt3pTSNVQfU18C4IF8YO2BlGXuf/5nDtN3frDbM1lAbdkC6stC1EYB6qNAJR4b1VPCVPcHlnwG1aIWKYMiONb6KgkrIWrXcQBVWWoKujXahFwqCsbUPN+mviCq/3pIdur7qV7KUkdAzX1riswXNMGTb7EQc1mpbReooGphPSVQBay9WcUB3Tr0v/e5n9kzCVEbLaK27BG1dQupyh5S1S2olGcP36PrOzVMlwTVYtZSLt2kEqJkocpEaYus/3BTir/2DJ3WwNO/hnArRYAES99HQ/lcFur7+/qV5z6SHfqPDvvB0gJKmbbnXj5rt2DWyh5UwXqKoAKr/WZVbej/4p2P7+997qP7L/7230oiekxQj5GlniKmgPobT819BjWCW60Pf9ABk36UVVf2GkXUvs4BVDAlS/XYLV33wOXqyjyZr3I0C82tk58jPEwFVHsfnyLTADsLKKDaqYaonb8WqGTl97949uUG+42oVJm+yjp7okXVD/0BlOk7f7p7cHp/aG8RtWWbldqyzUhtWRmpj8pIffQZKvWvf3+9THULPxANjq0T//9s1s/2WbxGywCqobwQHV3nTmjq4r7qS8ccdL59NAv166N+jun7qOaG/q+8E7s59e43zu7eC1ELZ6ls0SyV1wDVA1mD1ffvQVVfAuDA/vJv/3dpRC2qBVAtoL5sEbVlD6nqHlLVU6D+3r85O0b8+48O36P9ThFT+48lZ4A6ih3L20xUZcUZ638A1LWy1BRyts1moRru61/K2n69ZQ9qbuhPhpm728+JACoa2pfgzM0rIWrnrQEqgHoUqOdgnQEq6wfVb//J7myyeKbKGwWVTDq172a18Rm0ZoXH7m8xpcwd/s889T+ejzB1jkfiKHSAqUw0h+f0DJWMdK0sNQUhO1Zo5m4oaeenlo+2XcC0kqVaUEGESddBc1BG2y2atbKum9o46xpqDlMLgod1Fqi8xpe/e9qgkqUy9Lf7a1b51DD1kKoOqFyv5LqkzuNa7IVUN5VqiPr1a/t8e0v9PEPVEH/pLFXwaWe23FBi+E9/raM15jA9tGeupZKBjmShNVxrkGq+hVRlspDU9c2WtgimFgfB2gJqZFj7jd/b7b+dykpt20YzVEBdAtXLginnAKACHWjp3C/FFsToK0RZP1MuEy2tV9tX6lObdwHUJbNU7cCRG0pax1RMK1lqDcWR+QKzFoWojTNAfe1zfZlVDuIInqk+/H+tUwcVVO0fn9Hy1n4gOncZQVloLnJ+6BlUn0DpfFasgWXnC02LKCjaPq1lXR5oXU79L4BKpjorSyWjBGgN5bXTWjH0/Vuz1GJmqrv9xEyWOgJmZNkapsy3kKo8A1QuGzC9+l4fBikce9sY+l+4s39CGerMLPUUMM0B6tstqBiQQ1UolaJFVNc9RxH1r6fX8O2RehLUkSxVy2qnUQdWj+JIvQXmMKaCNYFqBMWRPscAVZD6GIG1F8zIcllQC8N9Hp3yd/Zt3d7Zt2Xd1fdRd/V9zN3lB9Lf/MOzG5g88fEwZKYezVI99QwqGGIE53INKgFHJipEa8uMzu99nSSoLVkqYNksVKDqmuwInKVlo1lqM6jPfCz5sP8ImLVl1wbVI5qqc43UDusjGM7ok81SNwgqP2jDTUv2H6OFyB+jGrZbz0xLcObmpR6Zql2vtIiqPIpk6/IA3pr9ZkH1MApIouZxaYBJdduHcgnE0XmRLLUZ0w1nqRrm29g65E/BWWvjBOcZyBlYRteRRPXIoCo7BVEmu98eYXrxdyYsrilQwQ0oyQQFneq9N5W0nlmxhn7qdbKgAqK9lio0aWNF1AHLI2rro2jWlteQIdWvG9P3UfUP+9eyzNH5tSzVQqpyFFR78veW14b1wtD/iKCmEGU/sv8fBkwtjj1l7vDrh6UtQoAFqExbQdRuH2Uh79tz9SyogKSFSlmoBdSWU8jNbstlqaOYHpZf+VrqEqD24llabi1YL2SpnaDaa6a+7K+dqs6Pf4MomXlqXwhSIvujNoyvzedSgV3nlso9gPplAFXXSkEUpABUiPZer5RPS0e2lynyOg+AmspCbZZqwSyVZ8NZWh8fEB+W+kzBdINZqrJSGznxcs+cpiCY2bYGrA+gujCoPLbFVNtHFrvLjKlHsbfOyO1/+/WfOkdUeHLeWqDA1bfZ+ccuR1HdgSgbm8tChWwJUDtPsK0VwZQ3y+vNxHRrWaqFVOUUqDUQZs9fGtbzoX8BVHtH35d9VmrrUUTZZxZSyo8wLV83FcAW1BKKnMOgWupz7HnKqEvbcQAVNC2KvhzNUtdC1L+Ohv7TQSVTdUP/0WulpeVLw34haqMFdTaUretbCtbzLHUSqC2IpiC9zJgKwZmR4/1f/Ov/IgRlNAssgbbkPDLoWib9wJDfQ6p6JEv1yK1Z5/dc+TBOHVQOvhyq11+9+HA/J3crfEv3XwLWA6qdoPKVVhDNXQ8t7Q/2r58uY2Y6E1C/Lj2DGoVu66iyfVy2yL2fEKjAWstS1wTUvxaQ6g2eOqotoHLwlkA45rzZsNrfPfVlP8znh0r4tzK9798jauv22dzazabU/K3dgPIAzq7zyNSnn/jl8/NT52kpRobWpeWXnldCPwxqKUv1wK1Zt4AulqXy5YUbu/OpNGyfMS+FaipD3TKowmwWrF/5nbP/G+Ux1bek9L+59Lq90eLpy5cJ09lw5tbXA6qG1kvDOLL+HKphUMlSee5TlwEU18TTv5bFdM0sdQaapXVcJlAF2wxYPaqzEGUbPZ6+/gjT2E0oDyuPTLVmqEBXG1qPYDhrWT2xYNfXBKrPUj1wa9Y9pqrPzlK51MEQ5NVXXz3PUMlWSyCOzruMoM6Cla968l9jtb7R6OFM1S8Lph67NeqAasFpKeeywJZ1LNlXmbR93KsJVJulromnfy3hmYragal50TYAZXr77bcPE2VgtXf8R9GsLe9RPdUhfwk8ridGv45q+3GDiYy3tO7IvBSevu0yYLoGnKnX4BiP3uHXeetjKgv0fY5ZB3180DY0g0qWah+k99itUa/ByJvkDdb62fkWUbJR6na+yk9c/7FDploDcXT+wwCq0FsbVo9mrs52pW4sRdvAOLfutdpT0K3VNgPUVBYovLYSbSbdDCpgRn/paQlcBVspakeX+tihPJmoQC0tc5hnnksdRbO0/MME6lqwtiB26piuhWbpdTi+e66f6vxVBKzSo0rqd8woVLtA1YP0S4BZWmcVO/1aVOYxKqF5YShvlqu9Br/t+sS1D6+epV7GIb8g9bH3BlbpUsAjTPtuKpXArM174vrfPh8Kj2InsEbXs+TyoN8EqsVu7Sy1Bp2fz47jQ7CIlobyfvlU/YApoPKfCN5/jKqUZY7Os1nqwwSqgJ0Bawuk9D3lzLQG3Nrzr15ve/60ht1WUdV2YU0YVIsp5TWz1BRuuTZdcwHPe/fu7W/cuJG9HppbR6rdYnqMLPVhBHUWrFFUTxXTtaEsvd5ztz66Z6rh2DsftOxd9d71jC5nEbU3zkKgekxVXyNLTeHm25SFvvXWW3sm6oe78leuTPlK6gVMTZY6moXWlleWeu32xa+ecmALncscBeJoxqr1pOIjTPsvCSyNqMVPo07btlbZIqqyf+0qqMIzFZfOUj2ctm4RvXv3bjYL1Ru2y7aUc5iulaU+7KCm8JsNK5h+9mtjd/TZptS2LtVWyhLXmLcmojqHFXOYaf7MqNfCG5VL6y+CmkLUty2VpXr0NJQHT2WhvEnfL1VnR6Taa21FTN/PUp+4/hOLPuRPBguqD1uGGoFoBqzCFFA1RR+LUr+HBVMQnX1dtIRTaV4Et9LypXladxRRu64sqB7OXH2pLBXsbBYqRIG1BqGfrzfs20v1EKbv3/GvDdtH5z9MoEYg9X1GYBWiuSg0c3FNTNfIPB94jdd+8nA9dCuI6jxWtNcu1dYbQZT19SBqXzMJag7PXPvMLPXFF188vCkALQ3lSxim5rVmqWFQV0D1YQHVQ9la74EVKHOY+naP6lqYPoDcvf5rnZH1XH/lxw+IakRosdhaeXQbZyFq98sUUEeyVHYKiPYM5VNw5tr0pnPzbXsTpu8P/Uez0Nryl3nI3wpnrX8rrC2oCtnLhKkQ1TmiKHBU32Js3Ub1H81Ec/viAqi5LLTWTpYKRLV+zAdQJrJQJso9Q3mLYKTMzmRHlPr2YHpY5tqHF72WehlBrcE4Or8FVkEZiWtgGskmR/pEbypxzui8ySFy7PbSNuIK82cM5yPv8wFQIxjm+tSyVIso2Sh1u64ScrPmaYfk1teN6QpZ6mUCdRTK1uUjsEazVG5itb5+a/8RKEvLRhHVeaKobE71LUZ7PVWI6h5MCdzZ7+UcVItbb5ksFVhZ3g/lBWpq3TnglmjXDvTrHsV06Sw1BSr/X+rUnj9txWVm/xqsNVSXxrSEYe+8Z1/66J5Jx31P5FwGp55l11pG22gRpW2t19frHEBNIdfTduvWrT2THcr7TNSv18O2dJ03fv369QeG/VMwXThLfe7l3f6F1y4+3H8qoM6Ecca67r6b/unA3JB/SUx7scwtJ0Q1atTJPhLXzPKi2wmYbJcQ1bA+uvwS/XYeuNa6Mk/dlSdL5Y1F1rM0nrn1a0cyfyamS2apAhVULaxbB3UGfkuuw8OaylJPAVMQvXr94+dfCQdTHeez4hZQ1TYIUeo2E9X8We+5dT3NoLLxIKq78gJVgOqvouqlmANvjXay1OmYvp+l8mtUtbv2rfM9qIJ1q6AuieAS67awWlSXwjSXXUbbr7/yo4ehvEdU518rBNH+QGYBiy430k9I8tq6VlraBvUfec3eZUOgCs3oUN5eS82Bugaapde4evXqnmkRVK9+7KEGdQnw1lqnrrMy9F8C0yiYqX5CVGjmYi8GkeXACtgifUf6CEWLaMv6WI51tCwzo28WVCH65ptv7l955ZXzR5tyQNp2fdC2zZZL0K01D0hPKUu9+tLZUF+ZqeKWMtS10FvjdZZ4NCqFZK0tiijn3AwQIusQdpG+LX203l5E7WuRwa4Bv31Nyuegkq2BKHiCqEC1ELaU2Tl8yH6ZtcAsvY6y0kWz1CeemJqlbhnUNYA75deooenn37j7Dw7DeSUmkehP7KXrwm/0dbSeGYj6bdG6ffuS9R1wAugMRC2eOghsWwm5teYJU8VTyVK3CuopQ7f0tnsoS3V7Z55LZrpspvOoFJcEorRuECxdy8wtK+hYXuVc39H2pdfvt+8AKpmahW9WmTfDgcD61gKz9DpC1MZTyVK3BurSGJ36+kt4ap5F1IMZQdWfzGvXOb+5SRR5XcG2BqJ+e3Qjy7cvUT8f8s9C1K5HB0kJubXmWUR9mSwVWH37jPrTL/zslKH/VkA9deiW3n5hmYslRHW+KCoDVN3GJTDoWaegTC2recdA1G6Prqf2ZNN2PZHyoqCCKzuVDVkLztTr1GCcnaWyPjIM/jJSnoHqsUFdGqJTX38OUNpTz4haHHNlHUN+fuTEXrOPzQA536kfG1H//rVdvn12fVFQwU0bnIJujbYappo/gupTTz11gJN/uyJEWZ/WPeO51GOCeurYLb39HlPdmc89I+qBLNXt0F/n0taiAN0aon4/KWP27TPri4MKmsfKUs9B0wP3hQiALTeoBDDL6JIBJ0buNZ98/iNDQ/9jgLo0RKe+fgupEC3h2DtPUM088UfXpYxP2waqTKPrXXp5tlEeLfFai4Fqs082nOsXtm3pcg62UruQzPXRfAAlG6VOdprrb9uffPLJkwH11KFbevsF6ZKIWnwBALiWACC6Ts5fj6iHibpvi65/zX7sy6Wupy4CagpL7bDUvNltFrLWss9SLaIqt64TTA/TQJa6Roa6NESXYf0tN5Usij1lnTPEY2AlRAFImWgNoqUzQLtPesvsy6X+QE0HNYejDorc/Fntrdj5/mSemjSUB1LfL1o/x/R9VFu/w6/+OVBBavTbUpcBuiXfA78jCqQ9KPYuk8JiDax6ELXbyvJLYWVfZ7S81B+oqaDWUNROqPUbmR+FzvZT5gmgmkYQ1bo9pqNZqr5uauMoqEtCdMrr1o8x94I4spzOEx+XwmoUUb+dS2HlX2e0vsR2TgM1giA7gDcR6dvTR5BFokXUXw/VvMh6cn2SmA4O/S2kKveCesrYLbXtr372vz38g7oRDEeXrSExCwGtp2U4X9s2O1/rt21bLOtSxqxtmwJqC37a8JZlIn1zsNl2QRkZytPHLttSLmIKqp3XUoWoja2gLoXRqa6XTFSPN92+fXvPNIpiz/I6LyKxFystByJrXD6YjVVk37T2IZl66aWXpt3wGwY1gp3twxvmg7Vto+Ucdvb50Aiidj3C17ZFylVMB7JUC6nKUVBPFbwlttsi6vF77733Vke1FQH6g1VkubURtdvEa0e30y63dpntvHHjRmh/1rZtCNReCLVRvcvb5TxygtBeC6XN94vUhXCkL33CmHbeoBKiNtZAXQKkU1vnC3d/JDyUJ0MFVQ/tUnWdC60RBMgyU8sdE1G/PdoW3761+qzt7AbVotZaZmfyBlqX8/0FnUXUXw9Vn56o9UaWbcX00L9x6G8hVbkE6qnBN3N7WxD1WK4x9J8BikVAZQ2zqc94jRnr0LbNWNeS6yBL7d1vuMOyXaB62Hrq2jE9y7KMsCOLFKIR+Fr76HVKy3Vh2pGlClEbU6DOhOmU1jXzzvySQ38d+6ORExhAt4iof29sI08T+Pat1bmeiieR7RKiLMN0dFDZgCioXA/lTfImNBQHuxJ0M+bxGgytcusawbQ1S7WQqmxBPSX8Zm3rTERtprrU0D9yopb6cM4IUiLHJliVltnCPG3rFraltA1sZ+l6agpRC3BzhhoFMNJPbyzXV4jqeij910DU45nLUocx1Q2qF34i9LVUIWrjLJhOaT1LIWpBpTxz6K9jvScKo1wmynymnnWvucypbmcNUbsPm0DNwdfbzoawk+3y2jgN5akDK308dGvWfZY6DVNQDV5LtZCqzPfKTwnD3m1dC1GP6oyhv47plsh5oewzAhF96dfyGsfoeyrbSZbKZIfzNhPN7bswqBa9mWU2TNdWOCC00f411sQz9Vo2S52KqbLUAKpC1MbLDCqI6hlRD91adbLU+/fvd9/1z514qfZWRO06lvoWlX2NWeWtXqLwmaiui7a87xCoHrfROiCxkfrKm/6y5tabAu4Ybfx1XQTT4A0qC6nKlw3ULSDqse4d+kdOxBFE/fpZl84lP29Ldb3nrWwT25PKRAGW9pbtrIKaQ661XYj6D531aINz6zwGnqnXJEvlj8BiqFay1OfvXvxX0qcO6ouv/WT4GVEP3Zp1hv78QY28po7nVFQSQZaWuyaaWi7adipDau9A9P3N6sfra0hPWSNjv/7W7SyCmgMu2q6NsxsFRqnluWaaak/Bdqw2tl0n1VKo6telUvGygGqfEbW/SB/B6lh9okN/HfM2phClzfaZWd7qkNq/R0DDBt++VJ3XsohGX9v6Vdu2LKgp3CJtekE2QgdNy3K277HgTL2uAOU9Mak+PRay1BSoN14/jZtSz770kT1TCkT+lTmwpuZtqa029NexT+QY4RywmajOB9tviXILAEu8fnSdPUPq6LrVj33Rg6iWV8zhr3sriklQLWqRMi+qA0gbEFnO97FZagq1Y7V5NMlSl0Q1lZ3SdmqgClGe0mDK4QimoJqbv6X21NBfx7wgOwai2gZFbYvqW41LbOcoosLRRuFv21LlC6B65FJ1gOED8jsj1belTR/6seBMva7HlDqYgkBq3pS2TJZ6CqB6RGuYCstTHfrrHABRXb9cKxPV+ZKLbNNWtiW3jbRrH5b61Ob1IJoCsdRGwkemWurzAKgl/PSG7JsHj9IyPfPY6BRsx2gr4ciBylTqMzQvgepWQc0hWspKBamNp5Kl3rp1a3/37t3DcF6I6vzYUuRcZfu2tE25bel5RKkF0RKCLfPwiSm3zDmoKfz05tlw/aVL9ZvVBpra0GMAal+zhiH7g4O11m9kvh/6bwlUEH3m+Y8fhvLKQn20WEbKW85StW3KRDX01zmy1WgToK1uI9ulIXVtGyOIypClIllqDtUDqBZE3hBYsOF6c3b+UmWL2bGz1CiC7CemaP9oP30Gz978Bw98JfXYoEYQFaoRQFN9+OzBKzVv7TaPKHWdE3fu3Dk88K/6liN/BOz5vNVtzeG/BUQ9zmTU/BHw7TtOcnbwMRAVzhZTytpI375GPYqe+s3KUoUzf/2YqPO52Cx1bVB5vKkF0VFMAZPP/phDf4uoyoLcQwSqTL59a3VAAtWtbVdqe4RqDVEZcazIH35Q9a+/Y8N5YwAh4NaMOSSPkaUKyZYoCFuWUV8tC6B8DtQ17zyaa6lrgCpEhWNrFD4j0UM2sq7Isno90FHZL5c6+Wlj6J+bt6V2QbWlbfLbYhHVOWH7eLyOXccoJrsduzXx9K+Vw5R2bWSpz8x554Dpu/UNsSVLFaIso3LptQFNWeq1O7v99Vcf/LbUjOdQSzeVWkD1CI3Ul342VXCWENX225Pal08lS2W7OeaUQPn3cay6RVToE/WVTzmw1ehRPRqoEQzXylJLoEXm1WBkPidwFFG9pjDTr1E99/IZqKAqWHtBnYWotlH4zIrsLz7/WetjPfoMIojSP4rMqaDKcbiFoX8KUbuvwdNDtVVQ2S7wZ3spHwXUCKb00U6M9u/pJ7xGI1hyErIeYi+i2g5BpQiqHlRQbQEVRP//9s0kN44YhqI+Rc4VIBfybbIxMsBZZONtw974SgleA99gBA3UrAKyaEiiSEolia+obvvXy5d7liK/I0qed8ZHWWSPb4HZC1GNZQPcU/9/9f+efQF5IKp4V8m1X6CS7MRSf6HA3JYDtRZ6LGitjVdf8BpRKvgBa20mGo4fg9zTz8cmoMYyUQ4An9g4tTIBaFbZ8gOVIKqvDWjXzM8D0FDnKlkq89bVOnyG0W2NQwanuh3DA0dsY7+me2xX6sApXgBLgeoFndXToljZiHoIsZa2rvqCKCXB2+JLNjmg/fj9+X7V15U/laEC0dzfiHKo2fzcWJ6+Gki16upFlbPnjPRCVP5twNfWrwRVMnbOb+0zlvQFzhREsXpVjTgAAAPBSURBVFdMe0qByqO7W4e5LgNqDwRHZ6mCV0tpIUoQ0yYY8UW9B6geiKHz7fnxz/PLp/uPVbrylyAa+u7NUgWgFSX7z7rasQgeZGShrZmo9VcChbf/Sld/EgDvc+X0RkM0BCP7zyeUn9heAtQemGKrhev1g/0oiKb8CLip/pQ8BJ6n/fXpMZuJlny0ZqkWRCvqAifnQHVBFFnvHHKwqO27UpYqENY+I/qyzWWi6Cl2e8urfJ/6QOof/jnT6PYIEI7IUlMwi8kFxtrvQ7HDJuYzJSuBb1Z/S5baC69a+1kQ1TxaYFKyuRJUBcTSM9G/GqIWwpxV5mplJ9anA3UETPGhxWv1l4KZlevKXgtR64O6YBzKY+1ZsPT6JUg4rCV9AWhFSRYay0TJSjkHo+bggUirzpWu/oAq9ZxeiGKvGJ1VklSRqc7yP8Lvw+vr6x0Ao7NS/LXCL2XXmqXGQIaMwBwF0XAMT5ZagtiKfmAKqHJjjQJYzo+FKPtMmwNubZDRZ2Ut9RQ8RsqvlKUKmnp+tZW90lZfWI6AUI0P9p9Pjc1K3XuGOuPan4Jij1wLU+MjBB0BqGu5MlFkoV5vu5Sl5gC2ui939W8BltcmBtGSrWxKeqn+EAgz27fb7RL/688aAE+yPw9E0Vcs7iiZ46lQvf8o9fb2NvR71Brg1eqykF4bQVFwA6AEJG0CTv2zSg5ozPdqYHrGi2WpKSj1yAVExmMvadf6w7bWBv2Z8Iz5Zv/f39+XjxubS0wWZqKAKqZnZTsAGo558vepd6CSoY7KUr2wa9XT4pbsYxCNwW2mTHOwY3jgtkMnzFJbgJWyGQFR61v+rKxUt1BYWT/t6h9C1F7n1RdbH8XdKSUv4xOz1I8/mxqRpZYgN6o/laVqs3WVB2gWZjvqZCkcUMbeAcqaMcn8AGsJTp5+QQ+fqnvsvDokAPgt6cfgsFq2++ovUHqu89LVGimmTixPhOoHUHuz1FGw9PjR5qJLncACotRPgKgFt7LUGrDt0gWmHNISpFL9AucsiNpxGYsza2VhXVDYXe64+guMHoiG64ONYuz0krlybk+Z5wdQ+VW+NUv1QHCUDkHD4gFQQZQ2/i3ITqoTUGz6LlB6x2VtBcUQTqm29FdANJyDxg7ltENI7G6vuPr3QFTrQyzxUuXMngKp3DyY60kvgH+A2pKljgJlzg9AYFEtRAkmZLI7CaB2LswdmHLYvWDboScosabAUe1YydpzkHdANJwPZ5ZbgJULDqeVM67+IyDKOoXQYn/5hPIT26fMlZfQX4bJPVC01mikAAAAAElFTkSuQmCC;" vertex="1" parent="1">
          <mxGeometry x="1144" y="959" width="76.12" height="75" as="geometry" />
        </mxCell>
        <mxCell id="KFGAFjV_gYXadnEVJTAJ-446" value="https://docs.v1engineering.com/" style="shape=image;verticalLabelPosition=bottom;labelBackgroundColor=#ffffff;verticalAlign=top;aspect=fixed;imageAspect=0;image=data:image/png,iVBORw0KGgoAAAANSUhEUgAAAFcAAABpCAYAAABPuL+xAAAgAElEQVR4Ae1dB3jURd7eTeigglKlg0oTKQrHp6ByjyfooacCHgionKjccUq5Q1RQ9AFFFAQBFQSklyMQID0kIY303gippJG+2fSevN/zzmZy/yybzW4gaL6PPM/kv/U/M++886szsyrc/WszBFRtdue7N8ZdcNuQBHfBbUtw6+rq8H+p1NfX3za4bhUXVVVVFdprqa6uRk1NTWOpra1tFVH0R0MJKu+prIN1spiCmaq0pATtqpSWorShlJWVoby8HBUVFaisrER1VVUTIAQoDWAoQZGPeeVnmgxKba14XtPwPd63orxc1FNeVtZYt2yDMexU+bm5aE9Fk5eHgvx8FGg00Go0KNJqUVxUJAhCsCsbgCYojcCUlaGMA0IiKQaHAyM/1wg4ZzLvUVEBAWZJibh/UWEhCrVaaAsKdPXn54NtMYadKtfPD7+HkuPjA2NF2cY8Pz9oAgJQEBgIbXAwisLCUBIfj+K8PJRIAEtKUFJcjOL8fJQkJqIkKgpF8fEoyM6GRg6OVosiDkxpqQCyQqtFVWIiKmNjURkTg/KoKJRFRKA4LAyFwcHQBgVBExiIPH9/kzBT4X/+B+2yPPkkwDJ9OvDCC6jZtAna8HBoNBoUSHalpqLUzg51y5cDs2ej+h//gNbaGlkREbiRloaszEzk5OSI75CRJTExwIYNwPz5wMyZwNNPAzNm6Op46ildfbJeE3BTQa1Guy0WFqjr1QsVc+ci18EBGenpyLxxQwdabCyKf/4ZePRRwNLyv3188EEUrVyJzPPncT0iAinJyeJ7AuisLGhiYlCzYQPqJkwAevUCLCx0pRU4qaBSoV0WS0vU9esH7ZIluG5vj/i4OCQmJiI5KQnpISEo/Ppr1I8cqQNG2UcJ0pgxyNm4ESkXLyI+KgpJCQlISUlBWloa0pOTkePigsp330XNww8DXbvqBkd5HxMet0/mduqEuhEjkPvBB4h0ckJ4WBiio6IQGxOD65cvQ7tuHWqHDDFOGoLcoQMqp0/Hje3bkeDoiKtRUbgWGysGioOVEBaGrL17UUmxM2gQ0LHjf2eAHCQjV1W9hQXaU6nr1g3lEyciecMG+Lu4wN/fH8HBwQgPCkLCxYsoWroUdX36mM40gnPPPdC++iqu//gjot3dEREWhsjISERFRorHMa6uyFy/HhVPPYXa3r2FmDEFM1Xm88+jPZWM+fNx9bvv4OXqCm9vb/j5+CDI2xtxR4+i+LXXdHLShCl7kyikbB02DJnLlyP+wAGEenoiODAQQYGBCAwIQMCVK4g4fRrpK1Yg58UXkT17NrJmzUImSzMYqtwvX0Z7Kh7u7vDy9BTAXrlyBYHOzkjasQMVf/wj0L27cVFgAuj1HTuicsIEpK1ejaijR+Hr6QlfHx/4sFy5give3qKwDZ4eHmB7msNPxWn1ey5+fn5QFl9fX7CQsSE2Nkj55BNUPfaYTh6aAN5NjDX0nQZRUThzJpI2bEDw6dPw9vCAj7e3AFnUr9cutlEfR1VMTAx+jyU6OhpRUVFC9kVERCA8PByhoaEICQ5GsL8/oq2skL1sGaqGDjVdvhJIqYAMgar/Gk24fv2Q85e/IPbbb+Fnby/YG9Ag59ketovtEzI6Kgpst8RTRfNDltTUVBgq8v07db1+/TqSk5ORlJSEhIQEob1jY2OFRRDl74+kgwdR/MorqHvgAdOBJaiWligaOBCZ48ahcMQIoHNn1JsCdufOqBg9GqnvvYfwU6cQ6O+PsLAwMfhsV3x8vGgr28y2S5xU9FByc3NFycvLg6Ei32/LK9shS1ZWFjIzM5GRkSHsTjY6gaaRtzeyN21CxbRpOttTn2nGnltaImXqVHj+/e9w+OwzeH70Ea7Nm4ey4cOFtSQYbez7ajVq7r8fN956CyEuLoKxV69eFbY1CXmDzktWVmMf2BcVfeti+uC/cSlkYKSwEFqtVrijHOTsrCzhPaXGxyPT3h4l77yDGjKOmt0YEPrvqdUoGDkS9uvX49ivv+LUyZOwOnMGtseOIfizz5A6ezbQpUvLs0CtRvHEibh68CDCQkNx7do1wVISge2l2y37watKhuwYtvutCtvAiBYDKBxkApyfny/AzYyNhXbvXtQ99xxw333mgSpB7tIFgW+/jdP79+PMmTO4cOECHBwc4OjoKIrHkSPIfvllHYPldwxd1WqUjBmD2F27hOwnuGQtWco2s/3shywiWC7jmsqgcFs/liE+Bp1FaLCiQoQEOZMYUszLzES+nx8q1qxB7dixrbYGKFOzp0yB3fbtOGtlBTs7O7i6usLT0xNeXl7i6u7mBt+DB1tmL2fA5MkIOXwYQUFBoLylu0zWkhQkiTKIrpLBYqZH2roYivBLcBk7FcBqNMhNTkbpvn3ArFkAPSJDLDLxNcpJn9WrYX3iBOzt7XH58mVh2hGckJAQ4d3RrPOxswN69DAuGiwtkfvss/C0sUFAQAAocyW4DHWSJEqiCnDZ6TvxJ8Fl5J+NYGM42oy7Muidn5UFrbs76t9+G3UMmEhf3kQg9QeBrE2YPRt2e/fC1sZGAEtblKYTzSWCExMdjbCQEFzbvbvF+uq7d0f6a6/BxdFR2LQSXIowigQSRTnj7xi4nBUEVwksG8QIPyP6edevo2LLFtQ+/riOQa0EtBFgKp8hQ+Dx2WewsbYWooCGPoGNi4sTppM09WJCQ1HD2C3NMiP1Vvbti6vLl8NZAW56erpQwBJcmXMjedocXEOgUuCTrUzT5N64gZITJ0Qwu/7BB823BJoDo1MnRC9cCNtDh4TSoqtM25RKiLYoQUlLTcX1pCTkbt8OdOtmFFiCXjh8OPw3bsQlZ2chFihzaS4yQK8EVxKozcA1CmpBAfKoYZ2dgQULUDd8eKsVVnNMyxs/Hm5btsD2wgUhDihjOY1pM9Mmpfl0IyMDqaGhwOjRLbKW9eSMHw+XvXvhcukSAgMDxUDxXrQUKN7IVgLbCC7lxO2SufqASrmqZGp+djYKPD2Bd97RyVUGW1qYjs0BaPB13qt7d4S++y4unjwJZycnEYuge8pgOhmbnZ2NnOxsZKSloXzNmhZlrajHwgLZTz6Ji2fOwM3NTShCemYcJEPgEldhit0KuBJQfXnKkeRUEXZrA1PzgoJQs3o16h55RBfBup2gNogHKrHU6dPhvHOnMLs8PDyEVSBtUoJBYLN59fAA+vZtURwIcLt2Rcaf/wybixfBe1LEcLA4ULRy6CNQmUkcqKxbDa4EVSnApfZXKqrcrCzk+/qi6uOPUU979Z57bp9cNSBvq/r2hf/q1bhgZQWXhmA6gylSHEjWZqan6xKRHTqYBG51z56IX7IEdra2wj6mYuQ9GRIggW4ZXAmoHB057XljYVKVlAj3j6lrAaqXF2pWrtTlsqgwzHVbDYBnUBTIz1lYIG7OHNgdOCA8MAbTyTBO30ZxkJMjWKs9dgz1PXuaJpLUapT164fwDz+Eg709qBwZsWOAhg4EbVyKARJNYmMyc/kF+SUCyhs1YWlRkdD8+Qy+pKVBa2sLLFwIUPvTZyeobSACmgCtVqNw5Ehcoemlp8RoHVDxSHGQlZgITJmiywrLgTF2VatRNHQofDduhFODDKedTAdC31KQOLUIrgSVV8qTqgajX8pSBifoqpKlOVFRKKEhzjz/vff+N51trNG3873OnXGNptepU3B2dhZBbU5dfSWWmZGBsk2bdOLJxPopx/NHjYLbDz/g0qVLwoGgGcbZwGCN0lIwCVwJbBNQOe25pCc/H2Rpdmoq8l1dUbNiBcCgNRl6J1iqDwrjB088AY9t2+Boby/iBXRtpRKToUAqsWyaXlSoZogoEZ+YMAF2x48LZ4RmXXOWQovgyg80MpWgFhRAk52NvNRU5AYEoJSG9zPP6Izvtp7y+mDK56yXC0MeeAAxK1bAwdYW7u7uIqhCm1YpDigSMtPSULNsmfmWSocO0Dz1FC5aWwubmQPHGcFB07cUJHYGxQLfbGRraSlK8vJQmJKCgqAglP3wg/CkcP/9TVl6J8BVq1HfoQNqunRBVffuqOrRA1X33ovy4cMRt3w5XK2sBLDM1NI6oGurr8Q0Njao5foDM9tb36WLyPTSIWnJDDMILl+URTCWC9ni4lBx4ADw8ssAUyq/wZTn+oBapln69IFmyhSEv/km3DdsgNPOnXA6eBCO584Jj8nby0swllqcqSEJrMie5OQgKyEBeOklnYKVzDfxWtujB1JffRX2NjYGzTCylJYCrSkWPm7CXAksrYEKBnxjY4E5c3SKSYJq5og30eYmdqTxO2Rqx44o6d8fCXPmwGbrVpw+cQLnrKyENeDo4ABXFxeRZvf38xMmF0UBGUt/n/YszSQWKtyyn35C/YABZrOW7ZE2rr2trVEzzCC40rPglYiX5eejippfLmAzF5hb/TyB7dIFhePHw/XTT3GKoJ49C1tbW2EJcGpyHQH9e9qxFANUMLQ76YGRrdTiIqNBgCMjdSsVTXQYGge4oR8VvXsj+v33hbJkvayPGQh9G7dZcAksWUuzojgjA/Xvv2+WRtVvUKufc3Z06YKcadNwfscOnDl9WricNK8IKsOGTGlz+tMcogggqMKObVgOShORiobX/Lw8VO7YARFxa+Wgl/bvj5A1a+Dk6CjiFM3ZuEbBpXNAG7YwNVUErM0xV1oNpl6HqbQKJ0+G9e7djWkZZg+4EIOgSpbKsCE1NplKY56A0ltioEja4owV165dq9MZenWZ2ubiQYPg//nnIgjEYLu0cZUOBMUq/wgwHzcGbshaKRLoJ+cnJ6P2rbfuOHOpvEoGDoTz1q2wPntWlzz08BDTn1EtBrkbzSu5aJnL9ouLBZicdRRrLGIGFheLVeRC3g4ebFIMwRDghcOGwfubb+DSEMel/UyFaRa4jBFw9PMSE1GzZIlp4HIa36ZS27Mnri5bhgvW1sLNZAKRKxjJVtqVVFTMtEqWkp1kKdtNplCsSfFGgMlixjmyIyJQzZXiTBu1gr3aESPg8f33QoHKOC7bogw1NstcNkpYCRUVQk7lJiaievHi5sFVq1HbqRPKe/dG4cCBKBo0CEWDB6OYZciQxlIyZAhKhg5tuQwbBu3Ysch4/XU4nTsnOsHgCMWAdAaoqJirohwlqPqAKoMmEmACT8XGoHjRli2oY3ixFRYP1zy479ol2iW9M2WQnPVRHBgUCxx1Fk4lNj4nPh5VRsCtpN03ZQqClyyB9wcfwGfVKvj9618IXLsWwevWIeTjjxHyyScIZfn005tK2Pr1kCV8/XpEbNyIQDbe0VGsHKRc4xosTj8qK8pVspXTn22ULJWASkUi5R1fJ1kILtnFgUn18kKtXMJvJnsLHn4Ybj/9BDdX18YgudngypHONgIuFU7GpEmw3rwZRw8dEmbS2TNncPH8edjb2QmNyhwT5ZPrpUs3FTcXFygL1wx4uruLZZkEVSotigFGnZQLLshWgqYEVdBF8U8CTDZxICjmaPMmxcejls4Qo3RmgqsZNQqu+/fjsl4GgkRkHfrMZftIgCY7KCW4WXFxzTK3+r77ED1/Po4eOYLTp0/j/PnzInbK1AdlJLU6QWJen/LJUOHUkoV+Om1VRrCkJSBNK1oBZB7FAGWoBFYyVYFpk4d8nx3kYJDtuTk5IhFZvGYN6lqxakczejRcDh0yGldgnfyTdbO95oGrVqO8Tx+ELFuG06dOCWAZ36T9KVlHrS7XBFBeGio0ZVg47WkB0FZlVJ+gSu+K8pWs44BLYKk0ZCeaoKn3RNlBKjUa+6nXryN/61bdsnszmZs/Zgycjx0TsQvOLENBG9kuZd3mg9u3L8KWL8fZs2fFChZGoaSMJJBKoAwtR1W+xmlPk4aAUi5y+hJUKiEyTgksmSg7oIflTU9lBzk1yXrek2n0vJ07Ucv9EuaCO3YsnE6cEKvI2xTcir59EbF8Oc43mEtMpXBqk60cUck+gtVcoYKSReS0cnIEu6i0KMduBVgiTXDJcqnUeF9mejXffntLzOUS/bYDV6VCTc+eiFu0SIBLl5R7BFghWZuUmCh8bpo+3DQnAdS/cmkoQZXAUrZKxhJc6WVRHFBZmCoOJIUNgsvdlGvX6vJmZjJXyNzDh9uYuSqViFTl/OEPcNuzRxf19/AQO164rYh7t7jJLjUlBelpaWJtLXc1GiocAJbGHY8NUSylgyDNLmPWgQRUedUXC4K5dOm524cb9swEt2DUKFw+eLDtwWXDGKTOfPppXPvwQ1zdvBmJ27YhbdcuZP70E3L27UPe/v3IP3AAmoMHmy0Fv/6KgkOHRNEeOYJ8R0dkpqSINbkMtkgGtwZgCS6Zz1nA+2UHBKCeG1MY6TMX3Ecegfu+fXcGXHo5dZ07o6p/f5SNHImKhx9G5ahRqBo9GtUsY8agZuxY08u4caiaNg3VK1ci9epVoeRo3yoVG5UTRYQpik0JrjTFSrdtQ32/fq3y0LQPPQSPPXvElqg2lbk3jfptiiuICFyfPij44gvENSyWo9w2ZJJJgAmioT++zoGgnctVlPlXr6KGK9M7dTKbtewvU/ZeO3cKJ4LKmxYR9UhzTgR1xE1OBKcg2WLMQ7sJXDOnWLPf5yBZWKD6oYeQcPasWDfLrALdTNqp7AhNM0NemhJkPpaWAvvDxGr5/v2ob2kvsJF+FA0bBp9vv73JQ5OBG30PrQm4NFmINBvOTjC2YDRwY6QhzYJn6nc6dkTNzJmIcHAQe2/JEipHigkph9lOpZhQKjx2jM+lGcZlqnXr1t1SPLdk8GAEfvll62ILRJ6NkeAyKla1dGnzUTFTgWrN58jgbt1Q9sILCLexQUR4uPDi6HxwKlJMEGRDkTH2QxaCz89w0UrF99/fUiaibMAAhK9dq4uKBQaK9pgcuJENIrhUAHnp6SjauvU3zaFxGWjV9OmI27sX4SEhiOU6hIaDJ6QnJ5ksxQUBlYV9kfHcnJAQ3Skfrc2h9emD2BUrRBBKP57LulknZwz/pFjia8L9leA2mi65ucj280PNn/6kY28rYqC3LB5YZ6dOqBw+HJq330astTWiuOSeyo4gKzK81BPKFA9lLTtNojBYziNXCrdvF4dftCaeW92rF5LeektE+ujqtyrNQ7TFVNJoxOqUNC8vZH3zDSq5I1wuBGGn7yTYPBGkRw/UDBuG6tmzkbt+PdIPH0aqkxNSfX2Rdu0abjQsaJYig4xlEeCyL5mZ4siVWu4O6tzZbIuB6xbS585tshdCfxGekrmU+SRqE+aSwVI0MEyXlpKC+MhIRHt4iLMGEj/6CCU8SIdhuzsNMtdO8ISQe+5Bba9eIkZQ27cv6sePR8mmTUiPimpMA5HJ1OQsBJxihGxPP3ECNVy7YK4u6NoVuS+8AGcHh8bsL3UA700ykpRK87AJuESdheBK9lKeUYEwIUh5FxYcjABPT/hw5/ahQ4hduRJlkycLd5KJxTsGthxUeaUcHTQImq+/FvuDlYqPbq8El1Gx+OholCxahHquFTZn9nXogIIZM+BoZyfWSzDuzACVSesWJLgSYFKaU0rYvFlZIhjDuCvjB9ySz01xXm5ucLezg+++fUhZsgRVtCMlyOYy41Y/r1ajlGcjnDkjzqiRGWIGhAgAzTjKaB4SFOfiAnCDC9tqar1qNXInTYKLlZVYccOYNevg/YkT8SJbJY43MZeaTr5JBlMpSIB5E8ZdGdAmyDyshxuLuTWeBzx4MFVz7hwiN2xAORcVS2aYww5TO9rc57p2Rc6KFQj38REKh8yirGXbCS5nIQNKPGQod+1a1JlzqohaDc2YMfD++WeRbWF+j1jwvlSkFKXETOJnEFx9gDkilCkUEXJ6kQFsOGO31JqRERGCzVyv5e3pictOTgjasQPa554T4b36O7UkilmSceMQt2ePSBuRBBQRBFiGNtl2tjs6MFB33pip7OXK8mHDELR5s8i6NBdfaBFcfYApg8lial+CTDlGNrDR1JgcQa7TYrCcR1AFBQQINru7usLvwAFkzZ8vAjx19OtN7Uxz7DT2OmeJhQVuvPEGQhwchPMhvDu5NUrB3jhuiN6zRyhHk2QvB65/f0SvWSPyaFxLob/42STmElz+yVHgVSo60l/aj1ITc2pIoBkLYF6MMokNoGxmZtfv6FGkv/kmKgcPRp0p5xoYA7GF9+oGDkTc5s0I9PERA87Bpzcl2cu28rWYyEhUvfiiySHIml69kLx0aePCEM4MpZdGD1fK3WbFQgO2jRdjIJPNlDkSaHaAU4/CniNLrUrZHECRwUV0J04gc+FCVAwc2HYgW1ggZ9YshJ46JdJPFF0UY5S5UvZyxomTR86fRz3td1N0Q9euyHz5ZaPrxcwGtxFlBZvJZH02S7FB2SzZLGUzU0BUAjx4h3I5kEH0OXNQQZuzlWHAZjU9gbr3XiSuW4cA2uf6m04aZhrbFhsdDe1775nGXgsL5M2YAWdbW6O2LsloMnOV4MrH0n/mTfSBpgIkm2nGSdmsBJmBGMnksB9/RPFzz6Gif39x9J9JDGpBLAjQqYC4Cn3/fqEDJHspEjjw4niXjAwkxMfjqrc3wKNdTGBv3oQJ8Pz1V3AVuzFz7JbA1QdZjpY+m2nKUWRIkDkdqa2bMNndHTFffYWqqVNRbc5pSy2B3KkTUt5/H4E86zE8XAS45VJ+5cyiaXZj82aTVuIUjxiBEFoM7u5C3LEvFIX65thtAVeCzKtkswSaAp6mHBUgRYaUy1L5CZBjYsRBEgE8iM3ZGddXrUI5d5BLO7klAI29r1aj4qGHELlzJwJ9fW9SbpTBTJwyqRoZGIganofbAnt53kLcP/8JLsGiwjaUkZD9p5XVJkcCEGgWjiBBZkWGQKa4YAOp+Gg7+jFNz8TlSy8JpdeaZGITWaxW48a8eQi6eFHcX2n7Elxqe1oO0ZGRSOA2BbrSRgDmSSEZ8+bBreFIgOYsBtnvNgFXMrolkKW4IMi0LoR7HRgoThdN+PxzlE+bBq7ZNdbhJmDqM5l7K/r2xdWvvhJxEcpJzhiKJwJLy0aYZbRqLl826YybnGeegfvFi00Os6B+IXlIIgLbBFwJRltdpchgpVIuszFKxSc7SjuZMpJ2auh//oPMJUtQPmyYaRpdH1w+t7CA9plnEHzqlFhfIVcG0XuTijaGxwRaW7csjugGT5qEgIMHheVD3aG/wlz2kTNWMJedb+s/CbCUSaycTom0Luj5UTlIpceDfUKDgxHk4oKEL79E6bRpqOdxAkamrUEW8/PduiHh3/+G76VLwlUnwJwpLIz4XXNxQaGR9ciN9+W5OaNGIWLbNrE+juCyvWy7DD1K66kRXHa4rQFWgqsEmEpPutdUeoxiccrSERHeXkQEgnx8EHHoEHLmzUNlK3ZAckBKx41DyO7d8PHwEMqIJmGMvz/Sf/kF+YsWtcxazgLujH/0UYTu2dMEXNr2VNrsSxNwibCUEwSgrYoEVNYlpw/llARYGSQSUazUVGGLUhYHBwQgyMYGSWvXomTSJJNMp0bGEZgOHZA7cyZiv/gCUb/8gsQffkDeihW6A+FMCZWq1WKzX/Lrr8P7wgWx7pj2M5lLQtDs5Exkf4gpryp2jA/ki3yjrYqsR3ll/UpwpdnGBtNso2yUrjTNH383N0Tt3AnN88/rlJ0hOdvca5aWqBg+HIVTp6KSJp+JcQ7u5CzlHuMFC3ClYVkT26IEl/qDeoQAsz+8qsgWvvhbFraBoHL0pZIjuMpYBc0ebuwLDgoSpzEHHT6MtMWLUc4tUKbKYX6ORTK1pe9ZWqL2gQeQMnMmAtatg9Px47jk5CROnabpSLHFwWc7KXfZdvZD9kcl8k2KnBPl3p0ubAMbx0wtF80xfye28GdmCm1M+ZuYkNDo2fEc8SteXvCxssK11atRNmaMzkZtjrHmvk4Trls3cQZk+PLlcNy1C+fPnQP3G4vjCn19GzfE0JSTnh8JQfkr+qLRQCWWcXIp529cmMGVJT01VawE51J7JhYJLGOwV6OjdcH5kBDI4LznxYuI3LQJhfzlEXp25gKp93luqCkaNQpRS5bA9ZtvcO70aVzgvg97exFu5FnlDECFh4aKJVfx164hmeuS5bLZhqWz7IuqZPFi/N5K8aJFYClieeMNFC5ciIIFC1Dw178if9kyJO/dK+xgbnLmoezujo4I3rULubNmoY5HwOgBZtJzKqwBAxD72mu48sUXuHDsmFjgzTMgeRSsm7Mzgk+cQNqqVcidOxd58+dD8/rr0C5YgMI33hDtle2WeKqEi8lUTDsp9T16oHLqVKRt2oRANzdxhjh3EXm4uCDgwAFkzJ2LalNjtBwEyt3u3ZH27LPw/+QT2B86JLZ98YgrigFu+fI5exbJ69ahdMYM1HCjoKUlmL4SKSwjuLW/n48hGFy/8MgjyF61CiHMQPv6iqwssx7+x4/j+t/+pgtjtsRgS0toxo9HyAcf4NLu3eKYFe6l4yl63NDn7eSEa9u3o2j2bFRRcbYQe9CfIe0PXMm2Dh1QN2AAchcvRpSVlZDBAmQvL/ifP4+kDz/UAWIob8eI2dChiFi6FO7ffSeOEORBFdycSIV1xd0dkcePI+/NN1Gu/G2elqwLvcFsn7/Nw06y8IiW+++H9pVXEMe0Dn/mIChIBFWCHByQuGEDavnjRzIDze/07o3EefNwZcsWOJw8CQmqOCCDJ5U6OyNn9WqUT5ggfrGqidkm6zXxqqp47DG0p1I5cSKqJk5E9aRJqJk8GbVTpoj1vJp16xDv4iJsYab7mbsL9fAQqfb8efPEMiyGC8O2boU7zx5TaH8ynoMSe+kSCleuRB2Pn6H1wXjG1KmonzIFdU88gZrHHxd1sm62gW3hr6E0h58q8PBhtIcSdOQIgo8eRejx4wg7cQKRp08jxsoKcRQBtrZI9vBAAuOy8fEiRkwDnwGayKAgRDk5IdLaGsE8o6ZhnzF/EobLQekMMBRJbyspOho3PObp8qUAAAG9SURBVD2R7e6OTDc33HBxQZqTk/hJMP6o0jVra0SfOSPqDj95UrSFbWLbDGGo8r1yBe2hME3v7+sr8m9cG8GIWWR4uLB9ha2p2KJFo54+f0qD88Gf4WJAnJ9nwIZg0ttjVIvBejop9LQYMOLWLWnz097m4cXMFDMdxHvwF6dCuHeZP4bEn4xp+CkbQxiqmB1tL0WCwswFgaFLzLUSjMsyHizT5wzCs9AtlWklfoYg8vMsSkCZU5PelfQWZRabgBN4fp4DwTrJcs4KDhDb1Bx+KllZe7nS3SRQ7DAZKjO6BIduJ113rgyShWARKAk2ASeYfM7X+T4/y7gGYwIsfMzX5Hf5eZFza/jFFdYtB4vtaQ47FStrT0UCQ3CUgMqgCWPDsjAYJYMoMigkQVeCyc/L6KCMaPE1Q0CzTrbBFMxUsrL2dCWQEkxGoQiEDPXJcKaMqcrnfF9ZJJh8Xwa45VV+l5/hvfUHSTK7JcxUygrb22MlQASE4DAIz8C8fpHAKa/6n1E+l8F8CTQHQbLaVJxUbZ07+/98/7vgtuHo3wX3LrhtiEAb3vouc++C24YItOGt7zL3LrhtiEAb3vp/AYuZM7i7ugCPAAAAAElFTkSuQmCC;" vertex="1" parent="1">
          <mxGeometry x="858" y="962" width="59.66" height="72" as="geometry" />
        </mxCell>
      </root>
    </mxGraphModel>
  </diagram>
</mxfile>
